<?xml version="1.0" encoding="utf-8" standalone="no"?>
<!DOCTYPE svg PUBLIC "-//W3C//DTD SVG 1.1//EN"
  "http://www.w3.org/Graphics/SVG/1.1/DTD/svg11.dtd">
<!-- Created with matplotlib (https://matplotlib.org/) -->
<svg height="345.6pt" version="1.1" viewBox="0 0 460.8 345.6" width="460.8pt" xmlns="http://www.w3.org/2000/svg" xmlns:xlink="http://www.w3.org/1999/xlink">
 <defs>
  <style type="text/css">
*{stroke-linecap:butt;stroke-linejoin:round;white-space:pre;}
  </style>
 </defs>
 <g id="figure_1">
  <g id="patch_1">
   <path d="M 0 345.6 
L 460.8 345.6 
L 460.8 0 
L 0 0 
z
" style="fill:#ffffff;"/>
  </g>
  <g id="axes_1">
   <g id="patch_2">
    <path d="M 57.6 307.584 
L 414.72 307.584 
L 414.72 41.472 
L 57.6 41.472 
z
" style="fill:#ffffff;"/>
   </g>
   <g id="PolyCollection_1">
    <path clip-path="url(#pd730b282bb)" d="M 73.832727 295.459692 
L 73.832727 295.440795 
L 75.456 295.459379 
L 77.079273 292.621178 
L 78.702545 292.631764 
L 80.325818 286.832645 
L 81.949091 278.318514 
L 83.572364 261.107938 
L 85.195636 252.585024 
L 86.818909 242.081604 
L 88.442182 235.10392 
L 90.065455 243.333173 
L 91.688727 238.898146 
L 93.312 235.273687 
L 94.935273 250.138816 
L 96.558545 236.150436 
L 98.181818 233.831101 
L 99.805091 219.256889 
L 101.428364 231.473737 
L 103.051636 235.324656 
L 104.674909 235.804629 
L 106.298182 202.236938 
L 107.921455 204.757247 
L 109.544727 213.653569 
L 111.168 217.358403 
L 112.791273 205.862417 
L 114.414545 221.63519 
L 116.037818 211.449818 
L 117.661091 217.614896 
L 119.284364 213.939467 
L 120.907636 226.627114 
L 122.530909 230.318853 
L 124.154182 214.342516 
L 125.777455 222.475947 
L 127.400727 224.13127 
L 129.024 212.497666 
L 130.647273 210.274076 
L 132.270545 204.796219 
L 133.893818 217.211534 
L 135.517091 222.72993 
L 137.140364 186.53458 
L 138.763636 291.939916 
L 140.386909 291.901179 
L 142.010182 289.816461 
L 143.633455 289.724559 
L 145.256727 287.41934 
L 146.88 287.45345 
L 148.503273 287.110153 
L 150.126545 283.172977 
L 151.749818 283.241198 
L 153.373091 281.553176 
L 154.996364 278.7098 
L 156.619636 273.460756 
L 158.242909 268.538072 
L 159.866182 267.118619 
L 161.489455 260.180063 
L 163.112727 263.328941 
L 164.736 264.003146 
L 166.359273 258.912263 
L 167.982545 253.727597 
L 169.605818 252.267369 
L 171.229091 238.903165 
L 172.852364 237.090935 
L 174.475636 224.947718 
L 176.098909 222.673786 
L 177.722182 214.583404 
L 179.345455 213.231309 
L 180.968727 224.298998 
L 182.592 231.024894 
L 184.215273 229.792537 
L 185.838545 231.890351 
L 187.461818 217.777841 
L 189.085091 212.057449 
L 190.708364 203.678425 
L 192.331636 204.345652 
L 193.954909 211.482752 
L 195.578182 222.07674 
L 197.201455 217.649163 
L 198.824727 212.158525 
L 200.448 179.70604 
L 202.071273 200.189858 
L 203.694545 236.46025 
L 205.317818 233.000147 
L 206.941091 240.495521 
L 208.564364 240.117878 
L 210.187636 238.941117 
L 211.810909 243.668942 
L 213.434182 235.311482 
L 215.057455 234.675779 
L 216.680727 229.452141 
L 218.304 224.248969 
L 219.927273 225.481326 
L 221.550545 227.163781 
L 223.173818 207.297945 
L 224.797091 190.925773 
L 226.420364 172.940074 
L 228.043636 191.196381 
L 229.666909 186.810206 
L 231.290182 184.177059 
L 232.913455 182.69856 
L 234.536727 165.312885 
L 236.16 156.774916 
L 237.783273 180.343626 
L 239.406545 175.436389 
L 241.029818 172.955365 
L 242.653091 148.205189 
L 244.276364 160.66567 
L 245.899636 157.672994 
L 247.522909 168.05942 
L 249.146182 169.197915 
L 250.769455 125.184124 
L 252.392727 136.538025 
L 254.016 151.178654 
L 255.639273 144.761396 
L 257.262545 147.526672 
L 258.885818 132.931052 
L 260.509091 138.884568 
L 262.132364 127.890197 
L 263.755636 158.7951 
L 265.378909 170.975407 
L 267.002182 155.514801 
L 268.625455 143.628468 
L 270.248727 126.881634 
L 271.872 107.055005 
L 273.495273 106.165789 
L 275.118545 53.568 
L 276.741818 95.590933 
L 278.365091 82.15004 
L 279.988364 91.639801 
L 281.611636 109.47965 
L 283.234909 106.104234 
L 284.858182 169.918306 
L 286.481455 147.080417 
L 288.104727 103.969408 
L 289.728 67.632756 
L 291.351273 80.674443 
L 292.974545 143.564796 
L 294.597818 129.389005 
L 296.221091 110.92098 
L 297.844364 69.676856 
L 299.467636 55.996643 
L 301.090909 177.683268 
L 302.714182 169.286758 
L 304.337455 102.232613 
L 305.960727 96.371546 
L 307.584 84.236484 
L 309.207273 102.150592 
L 310.830545 96.105879 
L 312.453818 104.302825 
L 314.077091 60.093078 
L 315.700364 86.18194 
L 317.323636 201.953471 
L 318.946909 215.0415 
L 320.570182 205.904917 
L 322.193455 201.78982 
L 323.816727 197.314803 
L 325.44 133.085135 
L 327.063273 155.534247 
L 328.686545 144.238295 
L 330.309818 145.28536 
L 331.933091 130.014358 
L 333.556364 133.096897 
L 335.179636 153.000529 
L 336.802909 141.83247 
L 338.426182 128.193503 
L 340.049455 110.920118 
L 341.672727 142.723412 
L 343.296 136.152148 
L 344.919273 118.835087 
L 346.542545 127.520082 
L 348.165818 115.62928 
L 349.789091 125.388236 
L 351.412364 168.544333 
L 353.035636 153.282741 
L 354.658909 150.175972 
L 356.282182 138.690258 
L 357.905455 167.314799 
L 359.528727 169.343138 
L 361.152 153.345708 
L 362.775273 151.885872 
L 364.398545 133.077451 
L 366.021818 219.96536 
L 367.645091 222.692448 
L 369.268364 232.244861 
L 370.891636 218.9913 
L 372.514909 180.841712 
L 374.138182 235.151831 
L 375.761455 237.840888 
L 377.384727 232.131396 
L 379.008 227.224395 
L 380.631273 195.810348 
L 382.254545 213.101142 
L 383.877818 222.877506 
L 385.501091 191.37791 
L 387.124364 193.044054 
L 388.747636 183.396838 
L 390.370909 226.557325 
L 391.994182 231.077039 
L 393.617455 208.713242 
L 395.240727 209.387447 
L 396.864 193.700694 
L 398.487273 198.857836 
L 398.487273 220.921464 
L 398.487273 220.921464 
L 396.864 196.236921 
L 395.240727 212.368832 
L 393.617455 215.256747 
L 391.994182 232.763336 
L 390.370909 228.208414 
L 388.747636 191.942648 
L 387.124364 207.171541 
L 385.501091 210.596436 
L 383.877818 233.594369 
L 382.254545 231.447389 
L 380.631273 198.158696 
L 379.008 229.4512 
L 377.384727 234.103042 
L 375.761455 239.389332 
L 374.138182 237.084819 
L 372.514909 224.616889 
L 370.891636 236.717762 
L 369.268364 239.603795 
L 367.645091 241.677771 
L 366.021818 239.365887 
L 364.398545 137.252221 
L 362.775273 155.265287 
L 361.152 154.140043 
L 359.528727 170.173309 
L 357.905455 168.316305 
L 356.282182 143.116581 
L 354.658909 153.39111 
L 353.035636 159.804839 
L 351.412364 172.724592 
L 349.789091 149.804368 
L 348.165818 138.648228 
L 346.542545 147.355493 
L 344.919273 141.765034 
L 343.296 155.960115 
L 341.672727 143.976235 
L 340.049455 134.417157 
L 338.426182 149.509295 
L 336.802909 155.066428 
L 335.179636 169.425787 
L 333.556364 152.916155 
L 331.933091 149.917049 
L 330.309818 162.708045 
L 328.686545 164.974842 
L 327.063273 171.979187 
L 325.44 152.584934 
L 323.816727 199.436062 
L 322.193455 204.361491 
L 320.570182 209.227874 
L 318.946909 216.676906 
L 317.323636 219.567173 
L 315.700364 110.423129 
L 314.077091 120.547025 
L 312.453818 126.248205 
L 310.830545 120.024943 
L 309.207273 126.141404 
L 307.584 109.485844 
L 305.960727 120.384864 
L 304.337455 124.673021 
L 302.714182 190.745499 
L 301.090909 191.802522 
L 299.467636 84.608795 
L 297.844364 97.260293 
L 296.221091 141.645609 
L 294.597818 147.891062 
L 292.974545 154.399359 
L 291.351273 108.929653 
L 289.728 108.89319 
L 288.104727 118.066549 
L 286.481455 160.884759 
L 284.858182 170.513234 
L 283.234909 107.107935 
L 281.611636 114.339446 
L 279.988364 96.879749 
L 278.365091 107.583752 
L 276.741818 116.715787 
L 275.118545 123.84583 
L 273.495273 128.753302 
L 271.872 124.208652 
L 270.248727 127.648682 
L 268.625455 143.837834 
L 267.002182 157.930741 
L 265.378909 174.849851 
L 263.755636 163.529669 
L 262.132364 167.118763 
L 260.509091 165.080309 
L 258.885818 154.056532 
L 257.262545 162.998335 
L 255.639273 166.493254 
L 254.016 159.12836 
L 252.392727 156.930098 
L 250.769455 153.831405 
L 249.146182 172.918981 
L 247.522909 173.614436 
L 245.899636 173.264238 
L 244.276364 161.104319 
L 242.653091 150.030436 
L 241.029818 174.633114 
L 239.406545 178.438318 
L 237.783273 183.050718 
L 236.16 159.883646 
L 234.536727 170.837555 
L 232.913455 184.53596 
L 231.290182 185.949846 
L 229.666909 187.363653 
L 228.043636 192.001381 
L 226.420364 173.818783 
L 224.797091 192.788894 
L 223.173818 207.963995 
L 221.550545 227.712523 
L 219.927273 227.310493 
L 218.304 224.643549 
L 216.680727 229.790263 
L 215.057455 235.316736 
L 213.434182 237.114773 
L 211.810909 245.947344 
L 210.187636 241.00043 
L 208.564364 242.051885 
L 206.941091 243.829378 
L 205.317818 235.502813 
L 203.694545 238.677959 
L 202.071273 203.235934 
L 200.448 204.109782 
L 198.824727 212.453284 
L 197.201455 217.920868 
L 195.578182 222.536247 
L 193.954909 213.106317 
L 192.331636 204.789476 
L 190.708364 204.179962 
L 189.085091 212.754081 
L 187.461818 218.129293 
L 185.838545 232.061607 
L 184.215273 230.143362 
L 182.592 232.432036 
L 180.968727 226.210264 
L 179.345455 214.073399 
L 177.722182 215.192447 
L 176.098909 223.945506 
L 174.475636 225.333123 
L 172.852364 237.450778 
L 171.229091 240.24342 
L 169.605818 253.314276 
L 167.982545 256.048578 
L 166.359273 259.784464 
L 164.736 264.878875 
L 163.112727 264.316959 
L 161.489455 261.422379 
L 159.866182 267.965492 
L 158.242909 269.259404 
L 156.619636 275.786834 
L 154.996364 280.440009 
L 153.373091 283.162548 
L 151.749818 284.597763 
L 150.126545 284.629913 
L 148.503273 288.336864 
L 146.88 288.36423 
L 145.256727 288.36031 
L 143.633455 290.465965 
L 142.010182 290.445969 
L 140.386909 292.629569 
L 138.763636 292.636861 
L 137.140364 203.61836 
L 135.517091 222.879858 
L 133.893818 217.877113 
L 132.270545 205.441254 
L 130.647273 219.41309 
L 129.024 213.226369 
L 127.400727 224.451043 
L 125.777455 223.053781 
L 124.154182 214.799749 
L 122.530909 230.6478 
L 120.907636 227.164565 
L 119.284364 216.229239 
L 117.661091 220.471053 
L 116.037818 213.845684 
L 114.414545 224.158244 
L 112.791273 217.042865 
L 111.168 219.877145 
L 109.544727 216.20595 
L 107.921455 210.800705 
L 106.298182 228.161993 
L 104.674909 237.619368 
L 103.051636 236.914503 
L 101.428364 233.483962 
L 99.805091 221.577007 
L 98.181818 235.366372 
L 96.558545 237.434154 
L 94.935273 254.316723 
L 93.312 245.601694 
L 91.688727 239.635945 
L 90.065455 244.556512 
L 88.442182 236.893959 
L 86.818909 245.722923 
L 85.195636 253.732694 
L 83.572364 261.970337 
L 81.949091 278.791821 
L 80.325818 287.050009 
L 78.702545 292.722803 
L 77.079273 292.714256 
L 75.456 295.488 
L 73.832727 295.459692 
z
" style="fill:#1f77b4;fill-opacity:0.1;"/>
   </g>
   <g id="matplotlib.axis_1">
    <g id="xtick_1">
     <g id="line2d_1">
      <defs>
       <path d="M 0 0 
L 0 3.5 
" id="m8fa08690eb" style="stroke:#000000;stroke-width:0.8;"/>
      </defs>
      <g>
       <use style="stroke:#000000;stroke-width:0.8;" x="73.832727" xlink:href="#m8fa08690eb" y="307.584"/>
      </g>
     </g>
     <g id="text_1">
      <!-- 0 -->
      <defs>
       <path d="M 31.78125 66.40625 
Q 24.171875 66.40625 20.328125 58.90625 
Q 16.5 51.421875 16.5 36.375 
Q 16.5 21.390625 20.328125 13.890625 
Q 24.171875 6.390625 31.78125 6.390625 
Q 39.453125 6.390625 43.28125 13.890625 
Q 47.125 21.390625 47.125 36.375 
Q 47.125 51.421875 43.28125 58.90625 
Q 39.453125 66.40625 31.78125 66.40625 
z
M 31.78125 74.21875 
Q 44.046875 74.21875 50.515625 64.515625 
Q 56.984375 54.828125 56.984375 36.375 
Q 56.984375 17.96875 50.515625 8.265625 
Q 44.046875 -1.421875 31.78125 -1.421875 
Q 19.53125 -1.421875 13.0625 8.265625 
Q 6.59375 17.96875 6.59375 36.375 
Q 6.59375 54.828125 13.0625 64.515625 
Q 19.53125 74.21875 31.78125 74.21875 
z
" id="DejaVuSans-48"/>
      </defs>
      <g transform="translate(70.651477 322.182437)scale(0.1 -0.1)">
       <use xlink:href="#DejaVuSans-48"/>
      </g>
     </g>
    </g>
    <g id="xtick_2">
     <g id="line2d_2">
      <g>
       <use style="stroke:#000000;stroke-width:0.8;" x="114.414545" xlink:href="#m8fa08690eb" y="307.584"/>
      </g>
     </g>
     <g id="text_2">
      <!-- 250 -->
      <defs>
       <path d="M 19.1875 8.296875 
L 53.609375 8.296875 
L 53.609375 0 
L 7.328125 0 
L 7.328125 8.296875 
Q 12.9375 14.109375 22.625 23.890625 
Q 32.328125 33.6875 34.8125 36.53125 
Q 39.546875 41.84375 41.421875 45.53125 
Q 43.3125 49.21875 43.3125 52.78125 
Q 43.3125 58.59375 39.234375 62.25 
Q 35.15625 65.921875 28.609375 65.921875 
Q 23.96875 65.921875 18.8125 64.3125 
Q 13.671875 62.703125 7.8125 59.421875 
L 7.8125 69.390625 
Q 13.765625 71.78125 18.9375 73 
Q 24.125 74.21875 28.421875 74.21875 
Q 39.75 74.21875 46.484375 68.546875 
Q 53.21875 62.890625 53.21875 53.421875 
Q 53.21875 48.921875 51.53125 44.890625 
Q 49.859375 40.875 45.40625 35.40625 
Q 44.1875 33.984375 37.640625 27.21875 
Q 31.109375 20.453125 19.1875 8.296875 
z
" id="DejaVuSans-50"/>
       <path d="M 10.796875 72.90625 
L 49.515625 72.90625 
L 49.515625 64.59375 
L 19.828125 64.59375 
L 19.828125 46.734375 
Q 21.96875 47.46875 24.109375 47.828125 
Q 26.265625 48.1875 28.421875 48.1875 
Q 40.625 48.1875 47.75 41.5 
Q 54.890625 34.8125 54.890625 23.390625 
Q 54.890625 11.625 47.5625 5.09375 
Q 40.234375 -1.421875 26.90625 -1.421875 
Q 22.3125 -1.421875 17.546875 -0.640625 
Q 12.796875 0.140625 7.71875 1.703125 
L 7.71875 11.625 
Q 12.109375 9.234375 16.796875 8.0625 
Q 21.484375 6.890625 26.703125 6.890625 
Q 35.15625 6.890625 40.078125 11.328125 
Q 45.015625 15.765625 45.015625 23.390625 
Q 45.015625 31 40.078125 35.4375 
Q 35.15625 39.890625 26.703125 39.890625 
Q 22.75 39.890625 18.8125 39.015625 
Q 14.890625 38.140625 10.796875 36.28125 
z
" id="DejaVuSans-53"/>
      </defs>
      <g transform="translate(104.870795 322.182437)scale(0.1 -0.1)">
       <use xlink:href="#DejaVuSans-50"/>
       <use x="63.623047" xlink:href="#DejaVuSans-53"/>
       <use x="127.246094" xlink:href="#DejaVuSans-48"/>
      </g>
     </g>
    </g>
    <g id="xtick_3">
     <g id="line2d_3">
      <g>
       <use style="stroke:#000000;stroke-width:0.8;" x="154.996364" xlink:href="#m8fa08690eb" y="307.584"/>
      </g>
     </g>
     <g id="text_3">
      <!-- 500 -->
      <g transform="translate(145.452614 322.182437)scale(0.1 -0.1)">
       <use xlink:href="#DejaVuSans-53"/>
       <use x="63.623047" xlink:href="#DejaVuSans-48"/>
       <use x="127.246094" xlink:href="#DejaVuSans-48"/>
      </g>
     </g>
    </g>
    <g id="xtick_4">
     <g id="line2d_4">
      <g>
       <use style="stroke:#000000;stroke-width:0.8;" x="195.578182" xlink:href="#m8fa08690eb" y="307.584"/>
      </g>
     </g>
     <g id="text_4">
      <!-- 750 -->
      <defs>
       <path d="M 8.203125 72.90625 
L 55.078125 72.90625 
L 55.078125 68.703125 
L 28.609375 0 
L 18.3125 0 
L 43.21875 64.59375 
L 8.203125 64.59375 
z
" id="DejaVuSans-55"/>
      </defs>
      <g transform="translate(186.034432 322.182437)scale(0.1 -0.1)">
       <use xlink:href="#DejaVuSans-55"/>
       <use x="63.623047" xlink:href="#DejaVuSans-53"/>
       <use x="127.246094" xlink:href="#DejaVuSans-48"/>
      </g>
     </g>
    </g>
    <g id="xtick_5">
     <g id="line2d_5">
      <g>
       <use style="stroke:#000000;stroke-width:0.8;" x="236.16" xlink:href="#m8fa08690eb" y="307.584"/>
      </g>
     </g>
     <g id="text_5">
      <!-- 1000 -->
      <defs>
       <path d="M 12.40625 8.296875 
L 28.515625 8.296875 
L 28.515625 63.921875 
L 10.984375 60.40625 
L 10.984375 69.390625 
L 28.421875 72.90625 
L 38.28125 72.90625 
L 38.28125 8.296875 
L 54.390625 8.296875 
L 54.390625 0 
L 12.40625 0 
z
" id="DejaVuSans-49"/>
      </defs>
      <g transform="translate(223.435 322.182437)scale(0.1 -0.1)">
       <use xlink:href="#DejaVuSans-49"/>
       <use x="63.623047" xlink:href="#DejaVuSans-48"/>
       <use x="127.246094" xlink:href="#DejaVuSans-48"/>
       <use x="190.869141" xlink:href="#DejaVuSans-48"/>
      </g>
     </g>
    </g>
    <g id="xtick_6">
     <g id="line2d_6">
      <g>
       <use style="stroke:#000000;stroke-width:0.8;" x="276.741818" xlink:href="#m8fa08690eb" y="307.584"/>
      </g>
     </g>
     <g id="text_6">
      <!-- 1250 -->
      <g transform="translate(264.016818 322.182437)scale(0.1 -0.1)">
       <use xlink:href="#DejaVuSans-49"/>
       <use x="63.623047" xlink:href="#DejaVuSans-50"/>
       <use x="127.246094" xlink:href="#DejaVuSans-53"/>
       <use x="190.869141" xlink:href="#DejaVuSans-48"/>
      </g>
     </g>
    </g>
    <g id="xtick_7">
     <g id="line2d_7">
      <g>
       <use style="stroke:#000000;stroke-width:0.8;" x="317.323636" xlink:href="#m8fa08690eb" y="307.584"/>
      </g>
     </g>
     <g id="text_7">
      <!-- 1500 -->
      <g transform="translate(304.598636 322.182437)scale(0.1 -0.1)">
       <use xlink:href="#DejaVuSans-49"/>
       <use x="63.623047" xlink:href="#DejaVuSans-53"/>
       <use x="127.246094" xlink:href="#DejaVuSans-48"/>
       <use x="190.869141" xlink:href="#DejaVuSans-48"/>
      </g>
     </g>
    </g>
    <g id="xtick_8">
     <g id="line2d_8">
      <g>
       <use style="stroke:#000000;stroke-width:0.8;" x="357.905455" xlink:href="#m8fa08690eb" y="307.584"/>
      </g>
     </g>
     <g id="text_8">
      <!-- 1750 -->
      <g transform="translate(345.180455 322.182437)scale(0.1 -0.1)">
       <use xlink:href="#DejaVuSans-49"/>
       <use x="63.623047" xlink:href="#DejaVuSans-55"/>
       <use x="127.246094" xlink:href="#DejaVuSans-53"/>
       <use x="190.869141" xlink:href="#DejaVuSans-48"/>
      </g>
     </g>
    </g>
    <g id="xtick_9">
     <g id="line2d_9">
      <g>
       <use style="stroke:#000000;stroke-width:0.8;" x="398.487273" xlink:href="#m8fa08690eb" y="307.584"/>
      </g>
     </g>
     <g id="text_9">
      <!-- 2000 -->
      <g transform="translate(385.762273 322.182437)scale(0.1 -0.1)">
       <use xlink:href="#DejaVuSans-50"/>
       <use x="63.623047" xlink:href="#DejaVuSans-48"/>
       <use x="127.246094" xlink:href="#DejaVuSans-48"/>
       <use x="190.869141" xlink:href="#DejaVuSans-48"/>
      </g>
     </g>
    </g>
    <g id="text_10">
     <!-- len(nums) -->
     <defs>
      <path d="M 9.421875 75.984375 
L 18.40625 75.984375 
L 18.40625 0 
L 9.421875 0 
z
" id="DejaVuSans-108"/>
      <path d="M 56.203125 29.59375 
L 56.203125 25.203125 
L 14.890625 25.203125 
Q 15.484375 15.921875 20.484375 11.0625 
Q 25.484375 6.203125 34.421875 6.203125 
Q 39.59375 6.203125 44.453125 7.46875 
Q 49.3125 8.734375 54.109375 11.28125 
L 54.109375 2.78125 
Q 49.265625 0.734375 44.1875 -0.34375 
Q 39.109375 -1.421875 33.890625 -1.421875 
Q 20.796875 -1.421875 13.15625 6.1875 
Q 5.515625 13.8125 5.515625 26.8125 
Q 5.515625 40.234375 12.765625 48.109375 
Q 20.015625 56 32.328125 56 
Q 43.359375 56 49.78125 48.890625 
Q 56.203125 41.796875 56.203125 29.59375 
z
M 47.21875 32.234375 
Q 47.125 39.59375 43.09375 43.984375 
Q 39.0625 48.390625 32.421875 48.390625 
Q 24.90625 48.390625 20.390625 44.140625 
Q 15.875 39.890625 15.1875 32.171875 
z
" id="DejaVuSans-101"/>
      <path d="M 54.890625 33.015625 
L 54.890625 0 
L 45.90625 0 
L 45.90625 32.71875 
Q 45.90625 40.484375 42.875 44.328125 
Q 39.84375 48.1875 33.796875 48.1875 
Q 26.515625 48.1875 22.3125 43.546875 
Q 18.109375 38.921875 18.109375 30.90625 
L 18.109375 0 
L 9.078125 0 
L 9.078125 54.6875 
L 18.109375 54.6875 
L 18.109375 46.1875 
Q 21.34375 51.125 25.703125 53.5625 
Q 30.078125 56 35.796875 56 
Q 45.21875 56 50.046875 50.171875 
Q 54.890625 44.34375 54.890625 33.015625 
z
" id="DejaVuSans-110"/>
      <path d="M 31 75.875 
Q 24.46875 64.65625 21.28125 53.65625 
Q 18.109375 42.671875 18.109375 31.390625 
Q 18.109375 20.125 21.3125 9.0625 
Q 24.515625 -2 31 -13.1875 
L 23.1875 -13.1875 
Q 15.875 -1.703125 12.234375 9.375 
Q 8.59375 20.453125 8.59375 31.390625 
Q 8.59375 42.28125 12.203125 53.3125 
Q 15.828125 64.359375 23.1875 75.875 
z
" id="DejaVuSans-40"/>
      <path d="M 8.5 21.578125 
L 8.5 54.6875 
L 17.484375 54.6875 
L 17.484375 21.921875 
Q 17.484375 14.15625 20.5 10.265625 
Q 23.53125 6.390625 29.59375 6.390625 
Q 36.859375 6.390625 41.078125 11.03125 
Q 45.3125 15.671875 45.3125 23.6875 
L 45.3125 54.6875 
L 54.296875 54.6875 
L 54.296875 0 
L 45.3125 0 
L 45.3125 8.40625 
Q 42.046875 3.421875 37.71875 1 
Q 33.40625 -1.421875 27.6875 -1.421875 
Q 18.265625 -1.421875 13.375 4.4375 
Q 8.5 10.296875 8.5 21.578125 
z
M 31.109375 56 
z
" id="DejaVuSans-117"/>
      <path d="M 52 44.1875 
Q 55.375 50.25 60.0625 53.125 
Q 64.75 56 71.09375 56 
Q 79.640625 56 84.28125 50.015625 
Q 88.921875 44.046875 88.921875 33.015625 
L 88.921875 0 
L 79.890625 0 
L 79.890625 32.71875 
Q 79.890625 40.578125 77.09375 44.375 
Q 74.3125 48.1875 68.609375 48.1875 
Q 61.625 48.1875 57.5625 43.546875 
Q 53.515625 38.921875 53.515625 30.90625 
L 53.515625 0 
L 44.484375 0 
L 44.484375 32.71875 
Q 44.484375 40.625 41.703125 44.40625 
Q 38.921875 48.1875 33.109375 48.1875 
Q 26.21875 48.1875 22.15625 43.53125 
Q 18.109375 38.875 18.109375 30.90625 
L 18.109375 0 
L 9.078125 0 
L 9.078125 54.6875 
L 18.109375 54.6875 
L 18.109375 46.1875 
Q 21.1875 51.21875 25.484375 53.609375 
Q 29.78125 56 35.6875 56 
Q 41.65625 56 45.828125 52.96875 
Q 50 49.953125 52 44.1875 
z
" id="DejaVuSans-109"/>
      <path d="M 44.28125 53.078125 
L 44.28125 44.578125 
Q 40.484375 46.53125 36.375 47.5 
Q 32.28125 48.484375 27.875 48.484375 
Q 21.1875 48.484375 17.84375 46.4375 
Q 14.5 44.390625 14.5 40.28125 
Q 14.5 37.15625 16.890625 35.375 
Q 19.28125 33.59375 26.515625 31.984375 
L 29.59375 31.296875 
Q 39.15625 29.25 43.1875 25.515625 
Q 47.21875 21.78125 47.21875 15.09375 
Q 47.21875 7.46875 41.1875 3.015625 
Q 35.15625 -1.421875 24.609375 -1.421875 
Q 20.21875 -1.421875 15.453125 -0.5625 
Q 10.6875 0.296875 5.421875 2 
L 5.421875 11.28125 
Q 10.40625 8.6875 15.234375 7.390625 
Q 20.0625 6.109375 24.8125 6.109375 
Q 31.15625 6.109375 34.5625 8.28125 
Q 37.984375 10.453125 37.984375 14.40625 
Q 37.984375 18.0625 35.515625 20.015625 
Q 33.0625 21.96875 24.703125 23.78125 
L 21.578125 24.515625 
Q 13.234375 26.265625 9.515625 29.90625 
Q 5.8125 33.546875 5.8125 39.890625 
Q 5.8125 47.609375 11.28125 51.796875 
Q 16.75 56 26.8125 56 
Q 31.78125 56 36.171875 55.265625 
Q 40.578125 54.546875 44.28125 53.078125 
z
" id="DejaVuSans-115"/>
      <path d="M 8.015625 75.875 
L 15.828125 75.875 
Q 23.140625 64.359375 26.78125 53.3125 
Q 30.421875 42.28125 30.421875 31.390625 
Q 30.421875 20.453125 26.78125 9.375 
Q 23.140625 -1.703125 15.828125 -13.1875 
L 8.015625 -13.1875 
Q 14.5 -2 17.703125 9.0625 
Q 20.90625 20.125 20.90625 31.390625 
Q 20.90625 42.671875 17.703125 53.65625 
Q 14.5 64.65625 8.015625 75.875 
z
" id="DejaVuSans-41"/>
     </defs>
     <g transform="translate(210.811562 335.860562)scale(0.1 -0.1)">
      <use xlink:href="#DejaVuSans-108"/>
      <use x="27.783203" xlink:href="#DejaVuSans-101"/>
      <use x="89.306641" xlink:href="#DejaVuSans-110"/>
      <use x="152.685547" xlink:href="#DejaVuSans-40"/>
      <use x="191.699219" xlink:href="#DejaVuSans-110"/>
      <use x="255.078125" xlink:href="#DejaVuSans-117"/>
      <use x="318.457031" xlink:href="#DejaVuSans-109"/>
      <use x="415.869141" xlink:href="#DejaVuSans-115"/>
      <use x="467.96875" xlink:href="#DejaVuSans-41"/>
     </g>
    </g>
   </g>
   <g id="matplotlib.axis_2">
    <g id="ytick_1">
     <g id="line2d_10">
      <defs>
       <path d="M 0 0 
L -3.5 0 
" id="m6956e8a879" style="stroke:#000000;stroke-width:0.8;"/>
      </defs>
      <g>
       <use style="stroke:#000000;stroke-width:0.8;" x="57.6" xlink:href="#m6956e8a879" y="295.986322"/>
      </g>
     </g>
     <g id="text_11">
      <!-- 0.00 -->
      <defs>
       <path d="M 10.6875 12.40625 
L 21 12.40625 
L 21 0 
L 10.6875 0 
z
" id="DejaVuSans-46"/>
      </defs>
      <g transform="translate(28.334375 299.785541)scale(0.1 -0.1)">
       <use xlink:href="#DejaVuSans-48"/>
       <use x="63.623047" xlink:href="#DejaVuSans-46"/>
       <use x="95.410156" xlink:href="#DejaVuSans-48"/>
       <use x="159.033203" xlink:href="#DejaVuSans-48"/>
      </g>
     </g>
    </g>
    <g id="ytick_2">
     <g id="line2d_11">
      <g>
       <use style="stroke:#000000;stroke-width:0.8;" x="57.6" xlink:href="#m6956e8a879" y="256.779241"/>
      </g>
     </g>
     <g id="text_12">
      <!-- 0.05 -->
      <g transform="translate(28.334375 260.57846)scale(0.1 -0.1)">
       <use xlink:href="#DejaVuSans-48"/>
       <use x="63.623047" xlink:href="#DejaVuSans-46"/>
       <use x="95.410156" xlink:href="#DejaVuSans-48"/>
       <use x="159.033203" xlink:href="#DejaVuSans-53"/>
      </g>
     </g>
    </g>
    <g id="ytick_3">
     <g id="line2d_12">
      <g>
       <use style="stroke:#000000;stroke-width:0.8;" x="57.6" xlink:href="#m6956e8a879" y="217.57216"/>
      </g>
     </g>
     <g id="text_13">
      <!-- 0.10 -->
      <g transform="translate(28.334375 221.371379)scale(0.1 -0.1)">
       <use xlink:href="#DejaVuSans-48"/>
       <use x="63.623047" xlink:href="#DejaVuSans-46"/>
       <use x="95.410156" xlink:href="#DejaVuSans-49"/>
       <use x="159.033203" xlink:href="#DejaVuSans-48"/>
      </g>
     </g>
    </g>
    <g id="ytick_4">
     <g id="line2d_13">
      <g>
       <use style="stroke:#000000;stroke-width:0.8;" x="57.6" xlink:href="#m6956e8a879" y="178.365079"/>
      </g>
     </g>
     <g id="text_14">
      <!-- 0.15 -->
      <g transform="translate(28.334375 182.164298)scale(0.1 -0.1)">
       <use xlink:href="#DejaVuSans-48"/>
       <use x="63.623047" xlink:href="#DejaVuSans-46"/>
       <use x="95.410156" xlink:href="#DejaVuSans-49"/>
       <use x="159.033203" xlink:href="#DejaVuSans-53"/>
      </g>
     </g>
    </g>
    <g id="ytick_5">
     <g id="line2d_14">
      <g>
       <use style="stroke:#000000;stroke-width:0.8;" x="57.6" xlink:href="#m6956e8a879" y="139.157999"/>
      </g>
     </g>
     <g id="text_15">
      <!-- 0.20 -->
      <g transform="translate(28.334375 142.957217)scale(0.1 -0.1)">
       <use xlink:href="#DejaVuSans-48"/>
       <use x="63.623047" xlink:href="#DejaVuSans-46"/>
       <use x="95.410156" xlink:href="#DejaVuSans-50"/>
       <use x="159.033203" xlink:href="#DejaVuSans-48"/>
      </g>
     </g>
    </g>
    <g id="ytick_6">
     <g id="line2d_15">
      <g>
       <use style="stroke:#000000;stroke-width:0.8;" x="57.6" xlink:href="#m6956e8a879" y="99.950918"/>
      </g>
     </g>
     <g id="text_16">
      <!-- 0.25 -->
      <g transform="translate(28.334375 103.750136)scale(0.1 -0.1)">
       <use xlink:href="#DejaVuSans-48"/>
       <use x="63.623047" xlink:href="#DejaVuSans-46"/>
       <use x="95.410156" xlink:href="#DejaVuSans-50"/>
       <use x="159.033203" xlink:href="#DejaVuSans-53"/>
      </g>
     </g>
    </g>
    <g id="ytick_7">
     <g id="line2d_16">
      <g>
       <use style="stroke:#000000;stroke-width:0.8;" x="57.6" xlink:href="#m6956e8a879" y="60.743837"/>
      </g>
     </g>
     <g id="text_17">
      <!-- 0.30 -->
      <defs>
       <path d="M 40.578125 39.3125 
Q 47.65625 37.796875 51.625 33 
Q 55.609375 28.21875 55.609375 21.1875 
Q 55.609375 10.40625 48.1875 4.484375 
Q 40.765625 -1.421875 27.09375 -1.421875 
Q 22.515625 -1.421875 17.65625 -0.515625 
Q 12.796875 0.390625 7.625 2.203125 
L 7.625 11.71875 
Q 11.71875 9.328125 16.59375 8.109375 
Q 21.484375 6.890625 26.8125 6.890625 
Q 36.078125 6.890625 40.9375 10.546875 
Q 45.796875 14.203125 45.796875 21.1875 
Q 45.796875 27.640625 41.28125 31.265625 
Q 36.765625 34.90625 28.71875 34.90625 
L 20.21875 34.90625 
L 20.21875 43.015625 
L 29.109375 43.015625 
Q 36.375 43.015625 40.234375 45.921875 
Q 44.09375 48.828125 44.09375 54.296875 
Q 44.09375 59.90625 40.109375 62.90625 
Q 36.140625 65.921875 28.71875 65.921875 
Q 24.65625 65.921875 20.015625 65.03125 
Q 15.375 64.15625 9.8125 62.3125 
L 9.8125 71.09375 
Q 15.4375 72.65625 20.34375 73.4375 
Q 25.25 74.21875 29.59375 74.21875 
Q 40.828125 74.21875 47.359375 69.109375 
Q 53.90625 64.015625 53.90625 55.328125 
Q 53.90625 49.265625 50.4375 45.09375 
Q 46.96875 40.921875 40.578125 39.3125 
z
" id="DejaVuSans-51"/>
      </defs>
      <g transform="translate(28.334375 64.543056)scale(0.1 -0.1)">
       <use xlink:href="#DejaVuSans-48"/>
       <use x="63.623047" xlink:href="#DejaVuSans-46"/>
       <use x="95.410156" xlink:href="#DejaVuSans-51"/>
       <use x="159.033203" xlink:href="#DejaVuSans-48"/>
      </g>
     </g>
    </g>
    <g id="text_18">
     <!-- Time [s] -->
     <defs>
      <path d="M -0.296875 72.90625 
L 61.375 72.90625 
L 61.375 64.59375 
L 35.5 64.59375 
L 35.5 0 
L 25.59375 0 
L 25.59375 64.59375 
L -0.296875 64.59375 
z
" id="DejaVuSans-84"/>
      <path d="M 9.421875 54.6875 
L 18.40625 54.6875 
L 18.40625 0 
L 9.421875 0 
z
M 9.421875 75.984375 
L 18.40625 75.984375 
L 18.40625 64.59375 
L 9.421875 64.59375 
z
" id="DejaVuSans-105"/>
      <path id="DejaVuSans-32"/>
      <path d="M 8.59375 75.984375 
L 29.296875 75.984375 
L 29.296875 69 
L 17.578125 69 
L 17.578125 -6.203125 
L 29.296875 -6.203125 
L 29.296875 -13.1875 
L 8.59375 -13.1875 
z
" id="DejaVuSans-91"/>
      <path d="M 30.421875 75.984375 
L 30.421875 -13.1875 
L 9.71875 -13.1875 
L 9.71875 -6.203125 
L 21.390625 -6.203125 
L 21.390625 69 
L 9.71875 69 
L 9.71875 75.984375 
z
" id="DejaVuSans-93"/>
     </defs>
     <g transform="translate(22.254687 195.010812)rotate(-90)scale(0.1 -0.1)">
      <use xlink:href="#DejaVuSans-84"/>
      <use x="61.037109" xlink:href="#DejaVuSans-105"/>
      <use x="88.820312" xlink:href="#DejaVuSans-109"/>
      <use x="186.232422" xlink:href="#DejaVuSans-101"/>
      <use x="247.755859" xlink:href="#DejaVuSans-32"/>
      <use x="279.542969" xlink:href="#DejaVuSans-91"/>
      <use x="318.556641" xlink:href="#DejaVuSans-115"/>
      <use x="370.65625" xlink:href="#DejaVuSans-93"/>
     </g>
    </g>
   </g>
   <g id="line2d_17">
    <path clip-path="url(#pd730b282bb)" d="M 73.832727 295.459692 
L 75.456 295.488 
L 77.079273 292.714256 
L 78.702545 292.722803 
L 80.325818 287.050009 
L 81.949091 278.791821 
L 83.572364 261.970337 
L 88.442182 236.893959 
L 90.065455 244.556512 
L 91.688727 239.635945 
L 93.312 245.601694 
L 94.935273 254.316723 
L 96.558545 236.530823 
L 98.181818 235.366372 
L 99.805091 221.577007 
L 101.428364 233.483962 
L 103.051636 236.914503 
L 104.674909 237.619368 
L 106.298182 228.161993 
L 107.921455 210.800705 
L 109.544727 216.20595 
L 111.168 219.877145 
L 112.791273 217.042865 
L 114.414545 224.158244 
L 116.037818 213.845684 
L 117.661091 220.471053 
L 119.284364 216.229239 
L 120.907636 227.164565 
L 122.530909 230.439767 
L 124.154182 214.799749 
L 125.777455 223.053781 
L 127.400727 224.451043 
L 129.024 213.226369 
L 130.647273 219.41309 
L 132.270545 205.441254 
L 133.893818 217.877113 
L 135.517091 222.879858 
L 137.140364 203.61836 
L 138.763636 292.636861 
L 140.386909 292.629569 
L 142.010182 290.445969 
L 143.633455 290.465965 
L 145.256727 288.36031 
L 148.503273 288.336864 
L 150.126545 284.629913 
L 151.749818 284.597763 
L 153.373091 283.162548 
L 154.996364 280.440009 
L 156.619636 275.786834 
L 158.242909 269.259404 
L 159.866182 267.965492 
L 161.489455 261.422379 
L 163.112727 264.316959 
L 164.736 264.878875 
L 166.359273 259.784464 
L 167.982545 256.048578 
L 169.605818 253.314276 
L 171.229091 240.24342 
L 172.852364 237.450778 
L 174.475636 225.333123 
L 176.098909 223.945506 
L 177.722182 215.192447 
L 179.345455 214.073399 
L 180.968727 226.210264 
L 182.592 232.432036 
L 184.215273 230.143362 
L 185.838545 232.061607 
L 187.461818 218.129293 
L 189.085091 212.754081 
L 190.708364 203.878068 
L 192.331636 204.789476 
L 193.954909 213.106317 
L 195.578182 222.536247 
L 197.201455 217.920868 
L 198.824727 212.453284 
L 200.448 204.109782 
L 202.071273 203.235934 
L 203.694545 238.677959 
L 205.317818 235.502813 
L 206.941091 243.829378 
L 208.564364 242.051885 
L 210.187636 241.00043 
L 211.810909 245.947344 
L 213.434182 237.114773 
L 215.057455 235.316736 
L 218.304 224.643549 
L 219.927273 227.310493 
L 221.550545 227.712523 
L 223.173818 207.963995 
L 224.797091 192.788894 
L 226.420364 172.96697 
L 228.043636 192.001381 
L 229.666909 187.363653 
L 232.913455 184.53596 
L 234.536727 170.837555 
L 236.16 159.883646 
L 237.783273 183.050718 
L 239.406545 178.438318 
L 241.029818 174.633114 
L 242.653091 150.030436 
L 244.276364 161.104319 
L 245.899636 173.264238 
L 247.522909 173.614436 
L 249.146182 172.918981 
L 250.769455 153.831405 
L 252.392727 156.930098 
L 254.016 159.12836 
L 255.639273 166.493254 
L 257.262545 162.998335 
L 258.885818 154.056532 
L 260.509091 165.080309 
L 262.132364 167.118763 
L 263.755636 159.803193 
L 265.378909 171.69572 
L 268.625455 143.837834 
L 270.248727 127.648682 
L 271.872 124.208652 
L 273.495273 128.753302 
L 275.118545 123.84583 
L 276.741818 116.715787 
L 278.365091 107.583752 
L 279.988364 96.879749 
L 281.611636 114.339446 
L 283.234909 106.47278 
L 284.858182 170.513234 
L 286.481455 160.884759 
L 288.104727 118.066549 
L 289.728 108.89319 
L 291.351273 108.929653 
L 292.974545 154.399359 
L 296.221091 141.645609 
L 297.844364 97.260293 
L 299.467636 84.608795 
L 301.090909 191.802522 
L 302.714182 190.745499 
L 304.337455 124.673021 
L 305.960727 120.384864 
L 307.584 109.485844 
L 309.207273 126.141404 
L 310.830545 120.024943 
L 312.453818 126.248205 
L 314.077091 120.547025 
L 315.700364 110.423129 
L 317.323636 219.567173 
L 318.946909 215.532922 
L 320.570182 207.028122 
L 322.193455 204.361491 
L 323.816727 199.436062 
L 325.44 152.584934 
L 327.063273 171.979187 
L 328.686545 164.974842 
L 330.309818 162.708045 
L 331.933091 149.917049 
L 333.556364 152.916155 
L 335.179636 169.425787 
L 336.802909 155.066428 
L 338.426182 149.509295 
L 340.049455 134.417157 
L 341.672727 143.976235 
L 343.296 155.960115 
L 344.919273 141.765034 
L 346.542545 147.355493 
L 348.165818 138.648228 
L 349.789091 149.804368 
L 351.412364 172.724592 
L 353.035636 159.804839 
L 354.658909 153.39111 
L 356.282182 143.116581 
L 357.905455 167.561647 
L 359.528727 170.173309 
L 361.152 154.140043 
L 362.775273 155.265287 
L 364.398545 137.252221 
L 366.021818 239.365887 
L 367.645091 241.677771 
L 369.268364 239.603795 
L 370.891636 236.717762 
L 372.514909 224.616889 
L 374.138182 237.084819 
L 375.761455 239.389332 
L 377.384727 234.103042 
L 379.008 229.4512 
L 380.631273 198.158696 
L 382.254545 231.447389 
L 383.877818 233.594369 
L 385.501091 210.596436 
L 387.124364 207.171541 
L 388.747636 191.942648 
L 390.370909 228.208414 
L 391.994182 232.763336 
L 393.617455 215.256747 
L 395.240727 212.368832 
L 396.864 196.236921 
L 398.487273 220.921464 
L 398.487273 220.921464 
" style="fill:none;stroke:#1f77b4;stroke-linecap:square;stroke-width:1.5;"/>
   </g>
   <g id="patch_3">
    <path d="M 57.6 307.584 
L 57.6 41.472 
" style="fill:none;stroke:#000000;stroke-linecap:square;stroke-linejoin:miter;stroke-width:0.8;"/>
   </g>
   <g id="patch_4">
    <path d="M 414.72 307.584 
L 414.72 41.472 
" style="fill:none;stroke:#000000;stroke-linecap:square;stroke-linejoin:miter;stroke-width:0.8;"/>
   </g>
   <g id="patch_5">
    <path d="M 57.6 307.584 
L 414.72 307.584 
" style="fill:none;stroke:#000000;stroke-linecap:square;stroke-linejoin:miter;stroke-width:0.8;"/>
   </g>
   <g id="patch_6">
    <path d="M 57.6 41.472 
L 414.72 41.472 
" style="fill:none;stroke:#000000;stroke-linecap:square;stroke-linejoin:miter;stroke-width:0.8;"/>
   </g>
   <g id="legend_1">
    <g id="patch_7">
     <path d="M 250.440312 64.42825 
L 407.72 64.42825 
Q 409.72 64.42825 409.72 62.42825 
L 409.72 48.472 
Q 409.72 46.472 407.72 46.472 
L 250.440312 46.472 
Q 248.440312 46.472 248.440312 48.472 
L 248.440312 62.42825 
Q 248.440312 64.42825 250.440312 64.42825 
z
" style="fill:#ffffff;opacity:0.8;stroke:#cccccc;stroke-linejoin:miter;"/>
    </g>
    <g id="line2d_18">
     <path d="M 252.440312 54.570437 
L 272.440313 54.570437 
" style="fill:none;stroke:#1f77b4;stroke-linecap:square;stroke-width:1.5;"/>
    </g>
    <g id="line2d_19"/>
    <g id="text_19">
     <!-- se_code.final.find_combs -->
     <defs>
      <path d="M 50.984375 -16.609375 
L 50.984375 -23.578125 
L -0.984375 -23.578125 
L -0.984375 -16.609375 
z
" id="DejaVuSans-95"/>
      <path d="M 48.78125 52.59375 
L 48.78125 44.1875 
Q 44.96875 46.296875 41.140625 47.34375 
Q 37.3125 48.390625 33.40625 48.390625 
Q 24.65625 48.390625 19.8125 42.84375 
Q 14.984375 37.3125 14.984375 27.296875 
Q 14.984375 17.28125 19.8125 11.734375 
Q 24.65625 6.203125 33.40625 6.203125 
Q 37.3125 6.203125 41.140625 7.25 
Q 44.96875 8.296875 48.78125 10.40625 
L 48.78125 2.09375 
Q 45.015625 0.34375 40.984375 -0.53125 
Q 36.96875 -1.421875 32.421875 -1.421875 
Q 20.0625 -1.421875 12.78125 6.34375 
Q 5.515625 14.109375 5.515625 27.296875 
Q 5.515625 40.671875 12.859375 48.328125 
Q 20.21875 56 33.015625 56 
Q 37.15625 56 41.109375 55.140625 
Q 45.0625 54.296875 48.78125 52.59375 
z
" id="DejaVuSans-99"/>
      <path d="M 30.609375 48.390625 
Q 23.390625 48.390625 19.1875 42.75 
Q 14.984375 37.109375 14.984375 27.296875 
Q 14.984375 17.484375 19.15625 11.84375 
Q 23.34375 6.203125 30.609375 6.203125 
Q 37.796875 6.203125 41.984375 11.859375 
Q 46.1875 17.53125 46.1875 27.296875 
Q 46.1875 37.015625 41.984375 42.703125 
Q 37.796875 48.390625 30.609375 48.390625 
z
M 30.609375 56 
Q 42.328125 56 49.015625 48.375 
Q 55.71875 40.765625 55.71875 27.296875 
Q 55.71875 13.875 49.015625 6.21875 
Q 42.328125 -1.421875 30.609375 -1.421875 
Q 18.84375 -1.421875 12.171875 6.21875 
Q 5.515625 13.875 5.515625 27.296875 
Q 5.515625 40.765625 12.171875 48.375 
Q 18.84375 56 30.609375 56 
z
" id="DejaVuSans-111"/>
      <path d="M 45.40625 46.390625 
L 45.40625 75.984375 
L 54.390625 75.984375 
L 54.390625 0 
L 45.40625 0 
L 45.40625 8.203125 
Q 42.578125 3.328125 38.25 0.953125 
Q 33.9375 -1.421875 27.875 -1.421875 
Q 17.96875 -1.421875 11.734375 6.484375 
Q 5.515625 14.40625 5.515625 27.296875 
Q 5.515625 40.1875 11.734375 48.09375 
Q 17.96875 56 27.875 56 
Q 33.9375 56 38.25 53.625 
Q 42.578125 51.265625 45.40625 46.390625 
z
M 14.796875 27.296875 
Q 14.796875 17.390625 18.875 11.75 
Q 22.953125 6.109375 30.078125 6.109375 
Q 37.203125 6.109375 41.296875 11.75 
Q 45.40625 17.390625 45.40625 27.296875 
Q 45.40625 37.203125 41.296875 42.84375 
Q 37.203125 48.484375 30.078125 48.484375 
Q 22.953125 48.484375 18.875 42.84375 
Q 14.796875 37.203125 14.796875 27.296875 
z
" id="DejaVuSans-100"/>
      <path d="M 37.109375 75.984375 
L 37.109375 68.5 
L 28.515625 68.5 
Q 23.6875 68.5 21.796875 66.546875 
Q 19.921875 64.59375 19.921875 59.515625 
L 19.921875 54.6875 
L 34.71875 54.6875 
L 34.71875 47.703125 
L 19.921875 47.703125 
L 19.921875 0 
L 10.890625 0 
L 10.890625 47.703125 
L 2.296875 47.703125 
L 2.296875 54.6875 
L 10.890625 54.6875 
L 10.890625 58.5 
Q 10.890625 67.625 15.140625 71.796875 
Q 19.390625 75.984375 28.609375 75.984375 
z
" id="DejaVuSans-102"/>
      <path d="M 34.28125 27.484375 
Q 23.390625 27.484375 19.1875 25 
Q 14.984375 22.515625 14.984375 16.5 
Q 14.984375 11.71875 18.140625 8.90625 
Q 21.296875 6.109375 26.703125 6.109375 
Q 34.1875 6.109375 38.703125 11.40625 
Q 43.21875 16.703125 43.21875 25.484375 
L 43.21875 27.484375 
z
M 52.203125 31.203125 
L 52.203125 0 
L 43.21875 0 
L 43.21875 8.296875 
Q 40.140625 3.328125 35.546875 0.953125 
Q 30.953125 -1.421875 24.3125 -1.421875 
Q 15.921875 -1.421875 10.953125 3.296875 
Q 6 8.015625 6 15.921875 
Q 6 25.140625 12.171875 29.828125 
Q 18.359375 34.515625 30.609375 34.515625 
L 43.21875 34.515625 
L 43.21875 35.40625 
Q 43.21875 41.609375 39.140625 45 
Q 35.0625 48.390625 27.6875 48.390625 
Q 23 48.390625 18.546875 47.265625 
Q 14.109375 46.140625 10.015625 43.890625 
L 10.015625 52.203125 
Q 14.9375 54.109375 19.578125 55.046875 
Q 24.21875 56 28.609375 56 
Q 40.484375 56 46.34375 49.84375 
Q 52.203125 43.703125 52.203125 31.203125 
z
" id="DejaVuSans-97"/>
      <path d="M 48.6875 27.296875 
Q 48.6875 37.203125 44.609375 42.84375 
Q 40.53125 48.484375 33.40625 48.484375 
Q 26.265625 48.484375 22.1875 42.84375 
Q 18.109375 37.203125 18.109375 27.296875 
Q 18.109375 17.390625 22.1875 11.75 
Q 26.265625 6.109375 33.40625 6.109375 
Q 40.53125 6.109375 44.609375 11.75 
Q 48.6875 17.390625 48.6875 27.296875 
z
M 18.109375 46.390625 
Q 20.953125 51.265625 25.265625 53.625 
Q 29.59375 56 35.59375 56 
Q 45.5625 56 51.78125 48.09375 
Q 58.015625 40.1875 58.015625 27.296875 
Q 58.015625 14.40625 51.78125 6.484375 
Q 45.5625 -1.421875 35.59375 -1.421875 
Q 29.59375 -1.421875 25.265625 0.953125 
Q 20.953125 3.328125 18.109375 8.203125 
L 18.109375 0 
L 9.078125 0 
L 9.078125 75.984375 
L 18.109375 75.984375 
z
" id="DejaVuSans-98"/>
     </defs>
     <g transform="translate(280.440313 58.070437)scale(0.1 -0.1)">
      <use xlink:href="#DejaVuSans-115"/>
      <use x="52.099609" xlink:href="#DejaVuSans-101"/>
      <use x="113.623047" xlink:href="#DejaVuSans-95"/>
      <use x="163.623047" xlink:href="#DejaVuSans-99"/>
      <use x="218.603516" xlink:href="#DejaVuSans-111"/>
      <use x="279.785156" xlink:href="#DejaVuSans-100"/>
      <use x="343.261719" xlink:href="#DejaVuSans-101"/>
      <use x="404.785156" xlink:href="#DejaVuSans-46"/>
      <use x="436.572266" xlink:href="#DejaVuSans-102"/>
      <use x="471.777344" xlink:href="#DejaVuSans-105"/>
      <use x="499.560547" xlink:href="#DejaVuSans-110"/>
      <use x="562.939453" xlink:href="#DejaVuSans-97"/>
      <use x="624.21875" xlink:href="#DejaVuSans-108"/>
      <use x="652.001953" xlink:href="#DejaVuSans-46"/>
      <use x="683.789062" xlink:href="#DejaVuSans-102"/>
      <use x="718.994141" xlink:href="#DejaVuSans-105"/>
      <use x="746.777344" xlink:href="#DejaVuSans-110"/>
      <use x="810.15625" xlink:href="#DejaVuSans-100"/>
      <use x="873.632812" xlink:href="#DejaVuSans-95"/>
      <use x="923.632812" xlink:href="#DejaVuSans-99"/>
      <use x="978.613281" xlink:href="#DejaVuSans-111"/>
      <use x="1039.794922" xlink:href="#DejaVuSans-109"/>
      <use x="1137.207031" xlink:href="#DejaVuSans-98"/>
      <use x="1200.683594" xlink:href="#DejaVuSans-115"/>
     </g>
    </g>
   </g>
  </g>
 </g>
 <defs>
  <clipPath id="pd730b282bb">
   <rect height="266.112" width="357.12" x="57.6" y="41.472"/>
  </clipPath>
 </defs>
</svg>
