<?xml version="1.0" encoding="utf-8" standalone="no"?>
<!DOCTYPE svg PUBLIC "-//W3C//DTD SVG 1.1//EN"
  "http://www.w3.org/Graphics/SVG/1.1/DTD/svg11.dtd">
<!-- Created with matplotlib (https://matplotlib.org/) -->
<svg height="345.6pt" version="1.1" viewBox="0 0 460.8 345.6" width="460.8pt" xmlns="http://www.w3.org/2000/svg" xmlns:xlink="http://www.w3.org/1999/xlink">
 <defs>
  <style type="text/css">
*{stroke-linecap:butt;stroke-linejoin:round;white-space:pre;}
  </style>
 </defs>
 <g id="figure_1">
  <g id="patch_1">
   <path d="M 0 345.6 
L 460.8 345.6 
L 460.8 0 
L 0 0 
z
" style="fill:#ffffff;"/>
  </g>
  <g id="axes_1">
   <g id="patch_2">
    <path d="M 57.6 307.584 
L 414.72 307.584 
L 414.72 41.472 
L 57.6 41.472 
z
" style="fill:#ffffff;"/>
   </g>
   <g id="PolyCollection_1">
    <path clip-path="url(#pf66dd528d5)" d="M 73.832727 286.869949 
L 73.832727 278.335183 
L 80.45833 289.374345 
L 87.083933 276.595292 
L 93.709536 290.213236 
L 100.335139 291.820059 
L 106.960742 290.712676 
L 113.586345 290.447548 
L 120.211948 288.861725 
L 126.837551 291.188068 
L 133.463154 290.683137 
L 140.088757 290.742236 
L 146.71436 285.90745 
L 153.339963 290.890336 
L 159.965566 288.692193 
L 166.591169 290.125695 
L 173.216772 288.692193 
L 179.842375 287.882035 
L 186.467978 286.466301 
L 193.093581 285.225402 
L 199.719184 284.630893 
L 206.344787 276.65929 
L 212.97039 279.664763 
L 219.595993 275.897499 
L 226.221596 269.748955 
L 232.847199 266.42324 
L 239.472801 258.558244 
L 246.098404 256.958976 
L 252.724007 252.549257 
L 259.34961 249.131302 
L 265.975213 240.749805 
L 272.600816 229.429864 
L 279.226419 228.38999 
L 285.852022 219.267981 
L 292.477625 215.711151 
L 299.103228 204.336552 
L 305.728831 199.950788 
L 312.354434 191.55073 
L 318.980037 181.810032 
L 325.60564 174.590402 
L 332.231243 163.621156 
L 338.856846 153.754511 
L 345.482449 142.845187 
L 352.108052 120.064225 
L 358.733655 122.989203 
L 365.359258 118.401288 
L 371.984861 105.729131 
L 378.610464 97.66227 
L 385.236067 88.842383 
L 391.86167 80.540824 
L 398.487273 53.568 
L 398.487273 72.832559 
L 398.487273 72.832559 
L 391.86167 83.604809 
L 385.236067 92.796447 
L 378.610464 103.122537 
L 371.984861 113.628588 
L 365.359258 122.287513 
L 358.733655 132.483937 
L 352.108052 142.011717 
L 345.482449 151.716644 
L 338.856846 160.140446 
L 332.231243 169.272979 
L 325.60564 179.73788 
L 318.980037 186.429115 
L 312.354434 197.3208 
L 305.728831 206.661885 
L 299.103228 214.341246 
L 292.477625 222.55974 
L 285.852022 230.568814 
L 279.226419 235.980656 
L 272.600816 242.748928 
L 265.975213 248.648401 
L 259.34961 254.614501 
L 252.724007 259.711125 
L 246.098404 263.729136 
L 239.472801 269.080941 
L 232.847199 274.514502 
L 226.221596 276.766163 
L 219.595993 279.482067 
L 212.97039 281.083808 
L 206.344787 282.575492 
L 199.719184 288.131842 
L 193.093581 289.060355 
L 186.467978 290.096555 
L 179.842375 290.565182 
L 173.216772 292.677349 
L 166.591169 293.268917 
L 159.965566 292.739239 
L 153.339963 294.412479 
L 146.71436 293.237579 
L 140.088757 294.898037 
L 133.463154 293.710048 
L 126.837551 294.44468 
L 120.211948 293.74173 
L 113.586345 294.476906 
L 106.960742 294.25183 
L 100.335139 294.44468 
L 93.709536 294.348148 
L 87.083933 295.29045 
L 80.45833 295.389112 
L 73.832727 286.869949 
z
" style="fill:#1f77b4;fill-opacity:0.1;"/>
   </g>
   <g id="PolyCollection_2">
    <path clip-path="url(#pf66dd528d5)" d="M 73.832727 294.930603 
L 73.832727 291.487864 
L 80.45833 291.729207 
L 87.083933 287.141158 
L 93.709536 279.687655 
L 100.335139 292.063269 
L 106.960742 290.388851 
L 113.586345 284.682266 
L 120.211948 290.831035 
L 126.837551 291.57821 
L 133.463154 289.7195 
L 140.088757 291.098533 
L 146.71436 288.383102 
L 153.339963 290.771815 
L 159.965566 289.777295 
L 166.591169 289.117275 
L 173.216772 287.826717 
L 179.842375 288.27125 
L 186.467978 286.546729 
L 193.093581 285.303553 
L 199.719184 284.656572 
L 206.344787 275.459243 
L 212.97039 279.413754 
L 219.595993 276.319058 
L 226.221596 270.059376 
L 232.847199 272.066095 
L 239.472801 267.39437 
L 246.098404 263.303837 
L 252.724007 254.397101 
L 259.34961 246.704885 
L 265.975213 239.29539 
L 272.600816 232.163608 
L 279.226419 228.173855 
L 285.852022 219.711725 
L 292.477625 213.894091 
L 299.103228 207.296542 
L 305.728831 199.411119 
L 312.354434 190.993904 
L 318.980037 178.305656 
L 325.60564 174.634724 
L 332.231243 165.834478 
L 338.856846 154.541328 
L 345.482449 137.583547 
L 352.108052 121.322488 
L 358.733655 123.639224 
L 365.359258 108.848873 
L 371.984861 110.806005 
L 378.610464 98.301623 
L 385.236067 91.294908 
L 391.86167 80.499917 
L 398.487273 63.647921 
L 398.487273 73.682778 
L 398.487273 73.682778 
L 391.86167 83.247223 
L 385.236067 93.08826 
L 378.610464 102.92293 
L 371.984861 114.274348 
L 365.359258 123.226063 
L 358.733655 132.452777 
L 352.108052 142.414484 
L 345.482449 151.3481 
L 338.856846 160.779403 
L 332.231243 170.427833 
L 325.60564 179.255181 
L 318.980037 188.202034 
L 312.354434 199.04441 
L 305.728831 207.636856 
L 299.103228 215.904459 
L 292.477625 223.786306 
L 285.852022 231.475053 
L 279.226419 238.089045 
L 272.600816 243.924198 
L 265.975213 250.566518 
L 259.34961 255.547569 
L 252.724007 261.178197 
L 246.098404 265.771134 
L 239.472801 269.658077 
L 232.847199 275.396996 
L 226.221596 278.557677 
L 219.595993 280.895029 
L 212.97039 282.185586 
L 206.344787 283.766763 
L 199.719184 287.965143 
L 193.093581 288.187551 
L 186.467978 289.23134 
L 179.842375 291.457791 
L 173.216772 290.97944 
L 166.591169 292.925444 
L 159.965566 292.430669 
L 153.339963 293.836916 
L 146.71436 292.646437 
L 140.088757 294.155727 
L 133.463154 293.932313 
L 126.837551 294.02792 
L 120.211948 294.219772 
L 113.586345 293.678389 
L 106.960742 293.932313 
L 100.335139 294.606048 
L 93.709536 293.996028 
L 87.083933 294.638394 
L 80.45833 295.389112 
L 73.832727 294.930603 
z
" style="fill:#ff7f0e;fill-opacity:0.1;"/>
   </g>
   <g id="PolyCollection_3">
    <path clip-path="url(#pf66dd528d5)" d="M 73.832727 295.488 
L 73.832727 291.789754 
L 80.45833 291.098533 
L 87.083933 292.093767 
L 93.709536 290.712676 
L 100.335139 290.771815 
L 106.960742 291.337706 
L 113.586345 289.031923 
L 120.211948 290.920017 
L 126.837551 290.949719 
L 133.463154 290.506325 
L 140.088757 289.117275 
L 146.71436 290.330233 
L 153.339963 290.949719 
L 159.965566 290.388851 
L 166.591169 289.632953 
L 173.216772 288.833423 
L 179.842375 287.965143 
L 186.467978 285.854601 
L 193.093581 285.46028 
L 199.719184 282.282734 
L 206.344787 275.939471 
L 212.97039 279.141578 
L 219.595993 277.174711 
L 226.221596 275.210792 
L 232.847199 270.817338 
L 239.472801 264.721879 
L 246.098404 257.765002 
L 252.724007 249.585408 
L 259.34961 247.306961 
L 265.975213 241.604766 
L 272.600816 234.37783 
L 279.226419 226.402425 
L 285.852022 222.061785 
L 292.477625 214.900378 
L 299.103228 205.169956 
L 305.728831 196.654845 
L 312.354434 191.571603 
L 318.980037 182.496016 
L 325.60564 173.960719 
L 332.231243 163.719697 
L 338.856846 152.670177 
L 345.482449 129.396096 
L 352.108052 128.536841 
L 358.733655 127.144557 
L 365.359258 103.188505 
L 371.984861 98.522173 
L 378.610464 99.013974 
L 385.236067 89.142632 
L 391.86167 72.70534 
L 398.487273 60.020414 
L 398.487273 72.157214 
L 398.487273 72.157214 
L 391.86167 82.493414 
L 385.236067 92.482172 
L 378.610464 101.40544 
L 371.984861 112.036688 
L 365.359258 122.52538 
L 358.733655 131.864208 
L 352.108052 141.609851 
L 345.482449 150.607584 
L 338.856846 160.167843 
L 332.231243 169.610823 
L 325.60564 177.660966 
L 318.980037 187.6347 
L 312.354434 197.638786 
L 305.728831 206.678801 
L 299.103228 214.366505 
L 292.477625 222.261493 
L 285.852022 231.086462 
L 279.226419 236.992139 
L 272.600816 243.466096 
L 265.975213 250.102044 
L 259.34961 256.114577 
L 252.724007 260.629561 
L 246.098404 266.004094 
L 239.472801 269.440747 
L 232.847199 274.291612 
L 226.221596 277.239573 
L 219.595993 280.895029 
L 212.97039 282.185586 
L 206.344787 284.196669 
L 199.719184 286.761941 
L 193.093581 289.031923 
L 186.467978 288.692193 
L 179.842375 291.367696 
L 173.216772 291.307737 
L 166.591169 293.08123 
L 159.965566 293.237579 
L 153.339963 293.710048 
L 146.71436 293.112454 
L 140.088757 293.018848 
L 133.463154 294.703159 
L 126.837551 293.646753 
L 120.211948 294.412479 
L 113.586345 294.283912 
L 106.960742 294.476906 
L 100.335139 294.091776 
L 93.709536 294.059837 
L 87.083933 294.735578 
L 80.45833 294.606048 
L 73.832727 295.488 
z
" style="fill:#2ca02c;fill-opacity:0.1;"/>
   </g>
   <g id="matplotlib.axis_1">
    <g id="xtick_1">
     <g id="line2d_1">
      <defs>
       <path d="M 0 0 
L 0 3.5 
" id="mfae7e73c40" style="stroke:#000000;stroke-width:0.8;"/>
      </defs>
      <g>
       <use style="stroke:#000000;stroke-width:0.8;" x="73.832727" xlink:href="#mfae7e73c40" y="307.584"/>
      </g>
     </g>
     <g id="text_1">
      <!-- $\mathdefault{10^{0}}$ -->
      <defs>
       <path d="M 12.40625 8.296875 
L 28.515625 8.296875 
L 28.515625 63.921875 
L 10.984375 60.40625 
L 10.984375 69.390625 
L 28.421875 72.90625 
L 38.28125 72.90625 
L 38.28125 8.296875 
L 54.390625 8.296875 
L 54.390625 0 
L 12.40625 0 
z
" id="DejaVuSans-49"/>
       <path d="M 31.78125 66.40625 
Q 24.171875 66.40625 20.328125 58.90625 
Q 16.5 51.421875 16.5 36.375 
Q 16.5 21.390625 20.328125 13.890625 
Q 24.171875 6.390625 31.78125 6.390625 
Q 39.453125 6.390625 43.28125 13.890625 
Q 47.125 21.390625 47.125 36.375 
Q 47.125 51.421875 43.28125 58.90625 
Q 39.453125 66.40625 31.78125 66.40625 
z
M 31.78125 74.21875 
Q 44.046875 74.21875 50.515625 64.515625 
Q 56.984375 54.828125 56.984375 36.375 
Q 56.984375 17.96875 50.515625 8.265625 
Q 44.046875 -1.421875 31.78125 -1.421875 
Q 19.53125 -1.421875 13.0625 8.265625 
Q 6.59375 17.96875 6.59375 36.375 
Q 6.59375 54.828125 13.0625 64.515625 
Q 19.53125 74.21875 31.78125 74.21875 
z
" id="DejaVuSans-48"/>
      </defs>
      <g transform="translate(65.032727 322.182437)scale(0.1 -0.1)">
       <use transform="translate(0 0.765625)" xlink:href="#DejaVuSans-49"/>
       <use transform="translate(63.623047 0.765625)" xlink:href="#DejaVuSans-48"/>
       <use transform="translate(128.203125 39.046875)scale(0.7)" xlink:href="#DejaVuSans-48"/>
      </g>
     </g>
    </g>
    <g id="xtick_2">
     <g id="line2d_2">
      <g>
       <use style="stroke:#000000;stroke-width:0.8;" x="138.763636" xlink:href="#mfae7e73c40" y="307.584"/>
      </g>
     </g>
     <g id="text_2">
      <!-- $\mathdefault{10^{1}}$ -->
      <g transform="translate(129.963636 322.182437)scale(0.1 -0.1)">
       <use transform="translate(0 0.684375)" xlink:href="#DejaVuSans-49"/>
       <use transform="translate(63.623047 0.684375)" xlink:href="#DejaVuSans-48"/>
       <use transform="translate(128.203125 38.965625)scale(0.7)" xlink:href="#DejaVuSans-49"/>
      </g>
     </g>
    </g>
    <g id="xtick_3">
     <g id="line2d_3">
      <g>
       <use style="stroke:#000000;stroke-width:0.8;" x="203.694545" xlink:href="#mfae7e73c40" y="307.584"/>
      </g>
     </g>
     <g id="text_3">
      <!-- $\mathdefault{10^{2}}$ -->
      <defs>
       <path d="M 19.1875 8.296875 
L 53.609375 8.296875 
L 53.609375 0 
L 7.328125 0 
L 7.328125 8.296875 
Q 12.9375 14.109375 22.625 23.890625 
Q 32.328125 33.6875 34.8125 36.53125 
Q 39.546875 41.84375 41.421875 45.53125 
Q 43.3125 49.21875 43.3125 52.78125 
Q 43.3125 58.59375 39.234375 62.25 
Q 35.15625 65.921875 28.609375 65.921875 
Q 23.96875 65.921875 18.8125 64.3125 
Q 13.671875 62.703125 7.8125 59.421875 
L 7.8125 69.390625 
Q 13.765625 71.78125 18.9375 73 
Q 24.125 74.21875 28.421875 74.21875 
Q 39.75 74.21875 46.484375 68.546875 
Q 53.21875 62.890625 53.21875 53.421875 
Q 53.21875 48.921875 51.53125 44.890625 
Q 49.859375 40.875 45.40625 35.40625 
Q 44.1875 33.984375 37.640625 27.21875 
Q 31.109375 20.453125 19.1875 8.296875 
z
" id="DejaVuSans-50"/>
      </defs>
      <g transform="translate(194.894545 322.182437)scale(0.1 -0.1)">
       <use transform="translate(0 0.765625)" xlink:href="#DejaVuSans-49"/>
       <use transform="translate(63.623047 0.765625)" xlink:href="#DejaVuSans-48"/>
       <use transform="translate(128.203125 39.046875)scale(0.7)" xlink:href="#DejaVuSans-50"/>
      </g>
     </g>
    </g>
    <g id="xtick_4">
     <g id="line2d_4">
      <g>
       <use style="stroke:#000000;stroke-width:0.8;" x="268.625455" xlink:href="#mfae7e73c40" y="307.584"/>
      </g>
     </g>
     <g id="text_4">
      <!-- $\mathdefault{10^{3}}$ -->
      <defs>
       <path d="M 40.578125 39.3125 
Q 47.65625 37.796875 51.625 33 
Q 55.609375 28.21875 55.609375 21.1875 
Q 55.609375 10.40625 48.1875 4.484375 
Q 40.765625 -1.421875 27.09375 -1.421875 
Q 22.515625 -1.421875 17.65625 -0.515625 
Q 12.796875 0.390625 7.625 2.203125 
L 7.625 11.71875 
Q 11.71875 9.328125 16.59375 8.109375 
Q 21.484375 6.890625 26.8125 6.890625 
Q 36.078125 6.890625 40.9375 10.546875 
Q 45.796875 14.203125 45.796875 21.1875 
Q 45.796875 27.640625 41.28125 31.265625 
Q 36.765625 34.90625 28.71875 34.90625 
L 20.21875 34.90625 
L 20.21875 43.015625 
L 29.109375 43.015625 
Q 36.375 43.015625 40.234375 45.921875 
Q 44.09375 48.828125 44.09375 54.296875 
Q 44.09375 59.90625 40.109375 62.90625 
Q 36.140625 65.921875 28.71875 65.921875 
Q 24.65625 65.921875 20.015625 65.03125 
Q 15.375 64.15625 9.8125 62.3125 
L 9.8125 71.09375 
Q 15.4375 72.65625 20.34375 73.4375 
Q 25.25 74.21875 29.59375 74.21875 
Q 40.828125 74.21875 47.359375 69.109375 
Q 53.90625 64.015625 53.90625 55.328125 
Q 53.90625 49.265625 50.4375 45.09375 
Q 46.96875 40.921875 40.578125 39.3125 
z
" id="DejaVuSans-51"/>
      </defs>
      <g transform="translate(259.825455 322.182437)scale(0.1 -0.1)">
       <use transform="translate(0 0.765625)" xlink:href="#DejaVuSans-49"/>
       <use transform="translate(63.623047 0.765625)" xlink:href="#DejaVuSans-48"/>
       <use transform="translate(128.203125 39.046875)scale(0.7)" xlink:href="#DejaVuSans-51"/>
      </g>
     </g>
    </g>
    <g id="xtick_5">
     <g id="line2d_5">
      <g>
       <use style="stroke:#000000;stroke-width:0.8;" x="333.556364" xlink:href="#mfae7e73c40" y="307.584"/>
      </g>
     </g>
     <g id="text_5">
      <!-- $\mathdefault{10^{4}}$ -->
      <defs>
       <path d="M 37.796875 64.3125 
L 12.890625 25.390625 
L 37.796875 25.390625 
z
M 35.203125 72.90625 
L 47.609375 72.90625 
L 47.609375 25.390625 
L 58.015625 25.390625 
L 58.015625 17.1875 
L 47.609375 17.1875 
L 47.609375 0 
L 37.796875 0 
L 37.796875 17.1875 
L 4.890625 17.1875 
L 4.890625 26.703125 
z
" id="DejaVuSans-52"/>
      </defs>
      <g transform="translate(324.756364 322.182437)scale(0.1 -0.1)">
       <use transform="translate(0 0.684375)" xlink:href="#DejaVuSans-49"/>
       <use transform="translate(63.623047 0.684375)" xlink:href="#DejaVuSans-48"/>
       <use transform="translate(128.203125 38.965625)scale(0.7)" xlink:href="#DejaVuSans-52"/>
      </g>
     </g>
    </g>
    <g id="xtick_6">
     <g id="line2d_6">
      <g>
       <use style="stroke:#000000;stroke-width:0.8;" x="398.487273" xlink:href="#mfae7e73c40" y="307.584"/>
      </g>
     </g>
     <g id="text_6">
      <!-- $\mathdefault{10^{5}}$ -->
      <defs>
       <path d="M 10.796875 72.90625 
L 49.515625 72.90625 
L 49.515625 64.59375 
L 19.828125 64.59375 
L 19.828125 46.734375 
Q 21.96875 47.46875 24.109375 47.828125 
Q 26.265625 48.1875 28.421875 48.1875 
Q 40.625 48.1875 47.75 41.5 
Q 54.890625 34.8125 54.890625 23.390625 
Q 54.890625 11.625 47.5625 5.09375 
Q 40.234375 -1.421875 26.90625 -1.421875 
Q 22.3125 -1.421875 17.546875 -0.640625 
Q 12.796875 0.140625 7.71875 1.703125 
L 7.71875 11.625 
Q 12.109375 9.234375 16.796875 8.0625 
Q 21.484375 6.890625 26.703125 6.890625 
Q 35.15625 6.890625 40.078125 11.328125 
Q 45.015625 15.765625 45.015625 23.390625 
Q 45.015625 31 40.078125 35.4375 
Q 35.15625 39.890625 26.703125 39.890625 
Q 22.75 39.890625 18.8125 39.015625 
Q 14.890625 38.140625 10.796875 36.28125 
z
" id="DejaVuSans-53"/>
      </defs>
      <g transform="translate(389.687273 322.182437)scale(0.1 -0.1)">
       <use transform="translate(0 0.684375)" xlink:href="#DejaVuSans-49"/>
       <use transform="translate(63.623047 0.684375)" xlink:href="#DejaVuSans-48"/>
       <use transform="translate(128.203125 38.965625)scale(0.7)" xlink:href="#DejaVuSans-53"/>
      </g>
     </g>
    </g>
    <g id="xtick_7">
     <g id="line2d_7">
      <defs>
       <path d="M 0 0 
L 0 2 
" id="ma3cbc1594d" style="stroke:#000000;stroke-width:0.6;"/>
      </defs>
      <g>
       <use style="stroke:#000000;stroke-width:0.6;" x="59.427886" xlink:href="#ma3cbc1594d" y="307.584"/>
      </g>
     </g>
    </g>
    <g id="xtick_8">
     <g id="line2d_8">
      <g>
       <use style="stroke:#000000;stroke-width:0.6;" x="63.774802" xlink:href="#ma3cbc1594d" y="307.584"/>
      </g>
     </g>
    </g>
    <g id="xtick_9">
     <g id="line2d_9">
      <g>
       <use style="stroke:#000000;stroke-width:0.6;" x="67.540272" xlink:href="#ma3cbc1594d" y="307.584"/>
      </g>
     </g>
    </g>
    <g id="xtick_10">
     <g id="line2d_10">
      <g>
       <use style="stroke:#000000;stroke-width:0.6;" x="70.861652" xlink:href="#ma3cbc1594d" y="307.584"/>
      </g>
     </g>
    </g>
    <g id="xtick_11">
     <g id="line2d_11">
      <g>
       <use style="stroke:#000000;stroke-width:0.6;" x="93.378879" xlink:href="#ma3cbc1594d" y="307.584"/>
      </g>
     </g>
    </g>
    <g id="xtick_12">
     <g id="line2d_12">
      <g>
       <use style="stroke:#000000;stroke-width:0.6;" x="104.812644" xlink:href="#ma3cbc1594d" y="307.584"/>
      </g>
     </g>
    </g>
    <g id="xtick_13">
     <g id="line2d_13">
      <g>
       <use style="stroke:#000000;stroke-width:0.6;" x="112.92503" xlink:href="#ma3cbc1594d" y="307.584"/>
      </g>
     </g>
    </g>
    <g id="xtick_14">
     <g id="line2d_14">
      <g>
       <use style="stroke:#000000;stroke-width:0.6;" x="119.217485" xlink:href="#ma3cbc1594d" y="307.584"/>
      </g>
     </g>
    </g>
    <g id="xtick_15">
     <g id="line2d_15">
      <g>
       <use style="stroke:#000000;stroke-width:0.6;" x="124.358795" xlink:href="#ma3cbc1594d" y="307.584"/>
      </g>
     </g>
    </g>
    <g id="xtick_16">
     <g id="line2d_16">
      <g>
       <use style="stroke:#000000;stroke-width:0.6;" x="128.705711" xlink:href="#ma3cbc1594d" y="307.584"/>
      </g>
     </g>
    </g>
    <g id="xtick_17">
     <g id="line2d_17">
      <g>
       <use style="stroke:#000000;stroke-width:0.6;" x="132.471181" xlink:href="#ma3cbc1594d" y="307.584"/>
      </g>
     </g>
    </g>
    <g id="xtick_18">
     <g id="line2d_18">
      <g>
       <use style="stroke:#000000;stroke-width:0.6;" x="135.792561" xlink:href="#ma3cbc1594d" y="307.584"/>
      </g>
     </g>
    </g>
    <g id="xtick_19">
     <g id="line2d_19">
      <g>
       <use style="stroke:#000000;stroke-width:0.6;" x="158.309788" xlink:href="#ma3cbc1594d" y="307.584"/>
      </g>
     </g>
    </g>
    <g id="xtick_20">
     <g id="line2d_20">
      <g>
       <use style="stroke:#000000;stroke-width:0.6;" x="169.743553" xlink:href="#ma3cbc1594d" y="307.584"/>
      </g>
     </g>
    </g>
    <g id="xtick_21">
     <g id="line2d_21">
      <g>
       <use style="stroke:#000000;stroke-width:0.6;" x="177.855939" xlink:href="#ma3cbc1594d" y="307.584"/>
      </g>
     </g>
    </g>
    <g id="xtick_22">
     <g id="line2d_22">
      <g>
       <use style="stroke:#000000;stroke-width:0.6;" x="184.148394" xlink:href="#ma3cbc1594d" y="307.584"/>
      </g>
     </g>
    </g>
    <g id="xtick_23">
     <g id="line2d_23">
      <g>
       <use style="stroke:#000000;stroke-width:0.6;" x="189.289704" xlink:href="#ma3cbc1594d" y="307.584"/>
      </g>
     </g>
    </g>
    <g id="xtick_24">
     <g id="line2d_24">
      <g>
       <use style="stroke:#000000;stroke-width:0.6;" x="193.63662" xlink:href="#ma3cbc1594d" y="307.584"/>
      </g>
     </g>
    </g>
    <g id="xtick_25">
     <g id="line2d_25">
      <g>
       <use style="stroke:#000000;stroke-width:0.6;" x="197.40209" xlink:href="#ma3cbc1594d" y="307.584"/>
      </g>
     </g>
    </g>
    <g id="xtick_26">
     <g id="line2d_26">
      <g>
       <use style="stroke:#000000;stroke-width:0.6;" x="200.72347" xlink:href="#ma3cbc1594d" y="307.584"/>
      </g>
     </g>
    </g>
    <g id="xtick_27">
     <g id="line2d_27">
      <g>
       <use style="stroke:#000000;stroke-width:0.6;" x="223.240697" xlink:href="#ma3cbc1594d" y="307.584"/>
      </g>
     </g>
    </g>
    <g id="xtick_28">
     <g id="line2d_28">
      <g>
       <use style="stroke:#000000;stroke-width:0.6;" x="234.674462" xlink:href="#ma3cbc1594d" y="307.584"/>
      </g>
     </g>
    </g>
    <g id="xtick_29">
     <g id="line2d_29">
      <g>
       <use style="stroke:#000000;stroke-width:0.6;" x="242.786848" xlink:href="#ma3cbc1594d" y="307.584"/>
      </g>
     </g>
    </g>
    <g id="xtick_30">
     <g id="line2d_30">
      <g>
       <use style="stroke:#000000;stroke-width:0.6;" x="249.079303" xlink:href="#ma3cbc1594d" y="307.584"/>
      </g>
     </g>
    </g>
    <g id="xtick_31">
     <g id="line2d_31">
      <g>
       <use style="stroke:#000000;stroke-width:0.6;" x="254.220614" xlink:href="#ma3cbc1594d" y="307.584"/>
      </g>
     </g>
    </g>
    <g id="xtick_32">
     <g id="line2d_32">
      <g>
       <use style="stroke:#000000;stroke-width:0.6;" x="258.567529" xlink:href="#ma3cbc1594d" y="307.584"/>
      </g>
     </g>
    </g>
    <g id="xtick_33">
     <g id="line2d_33">
      <g>
       <use style="stroke:#000000;stroke-width:0.6;" x="262.332999" xlink:href="#ma3cbc1594d" y="307.584"/>
      </g>
     </g>
    </g>
    <g id="xtick_34">
     <g id="line2d_34">
      <g>
       <use style="stroke:#000000;stroke-width:0.6;" x="265.654379" xlink:href="#ma3cbc1594d" y="307.584"/>
      </g>
     </g>
    </g>
    <g id="xtick_35">
     <g id="line2d_35">
      <g>
       <use style="stroke:#000000;stroke-width:0.6;" x="288.171606" xlink:href="#ma3cbc1594d" y="307.584"/>
      </g>
     </g>
    </g>
    <g id="xtick_36">
     <g id="line2d_36">
      <g>
       <use style="stroke:#000000;stroke-width:0.6;" x="299.605371" xlink:href="#ma3cbc1594d" y="307.584"/>
      </g>
     </g>
    </g>
    <g id="xtick_37">
     <g id="line2d_37">
      <g>
       <use style="stroke:#000000;stroke-width:0.6;" x="307.717757" xlink:href="#ma3cbc1594d" y="307.584"/>
      </g>
     </g>
    </g>
    <g id="xtick_38">
     <g id="line2d_38">
      <g>
       <use style="stroke:#000000;stroke-width:0.6;" x="314.010212" xlink:href="#ma3cbc1594d" y="307.584"/>
      </g>
     </g>
    </g>
    <g id="xtick_39">
     <g id="line2d_39">
      <g>
       <use style="stroke:#000000;stroke-width:0.6;" x="319.151523" xlink:href="#ma3cbc1594d" y="307.584"/>
      </g>
     </g>
    </g>
    <g id="xtick_40">
     <g id="line2d_40">
      <g>
       <use style="stroke:#000000;stroke-width:0.6;" x="323.498439" xlink:href="#ma3cbc1594d" y="307.584"/>
      </g>
     </g>
    </g>
    <g id="xtick_41">
     <g id="line2d_41">
      <g>
       <use style="stroke:#000000;stroke-width:0.6;" x="327.263908" xlink:href="#ma3cbc1594d" y="307.584"/>
      </g>
     </g>
    </g>
    <g id="xtick_42">
     <g id="line2d_42">
      <g>
       <use style="stroke:#000000;stroke-width:0.6;" x="330.585288" xlink:href="#ma3cbc1594d" y="307.584"/>
      </g>
     </g>
    </g>
    <g id="xtick_43">
     <g id="line2d_43">
      <g>
       <use style="stroke:#000000;stroke-width:0.6;" x="353.102515" xlink:href="#ma3cbc1594d" y="307.584"/>
      </g>
     </g>
    </g>
    <g id="xtick_44">
     <g id="line2d_44">
      <g>
       <use style="stroke:#000000;stroke-width:0.6;" x="364.53628" xlink:href="#ma3cbc1594d" y="307.584"/>
      </g>
     </g>
    </g>
    <g id="xtick_45">
     <g id="line2d_45">
      <g>
       <use style="stroke:#000000;stroke-width:0.6;" x="372.648666" xlink:href="#ma3cbc1594d" y="307.584"/>
      </g>
     </g>
    </g>
    <g id="xtick_46">
     <g id="line2d_46">
      <g>
       <use style="stroke:#000000;stroke-width:0.6;" x="378.941121" xlink:href="#ma3cbc1594d" y="307.584"/>
      </g>
     </g>
    </g>
    <g id="xtick_47">
     <g id="line2d_47">
      <g>
       <use style="stroke:#000000;stroke-width:0.6;" x="384.082432" xlink:href="#ma3cbc1594d" y="307.584"/>
      </g>
     </g>
    </g>
    <g id="xtick_48">
     <g id="line2d_48">
      <g>
       <use style="stroke:#000000;stroke-width:0.6;" x="388.429348" xlink:href="#ma3cbc1594d" y="307.584"/>
      </g>
     </g>
    </g>
    <g id="xtick_49">
     <g id="line2d_49">
      <g>
       <use style="stroke:#000000;stroke-width:0.6;" x="392.194817" xlink:href="#ma3cbc1594d" y="307.584"/>
      </g>
     </g>
    </g>
    <g id="xtick_50">
     <g id="line2d_50">
      <g>
       <use style="stroke:#000000;stroke-width:0.6;" x="395.516197" xlink:href="#ma3cbc1594d" y="307.584"/>
      </g>
     </g>
    </g>
    <g id="text_7">
     <!-- len(flavours) -->
     <defs>
      <path d="M 9.421875 75.984375 
L 18.40625 75.984375 
L 18.40625 0 
L 9.421875 0 
z
" id="DejaVuSans-108"/>
      <path d="M 56.203125 29.59375 
L 56.203125 25.203125 
L 14.890625 25.203125 
Q 15.484375 15.921875 20.484375 11.0625 
Q 25.484375 6.203125 34.421875 6.203125 
Q 39.59375 6.203125 44.453125 7.46875 
Q 49.3125 8.734375 54.109375 11.28125 
L 54.109375 2.78125 
Q 49.265625 0.734375 44.1875 -0.34375 
Q 39.109375 -1.421875 33.890625 -1.421875 
Q 20.796875 -1.421875 13.15625 6.1875 
Q 5.515625 13.8125 5.515625 26.8125 
Q 5.515625 40.234375 12.765625 48.109375 
Q 20.015625 56 32.328125 56 
Q 43.359375 56 49.78125 48.890625 
Q 56.203125 41.796875 56.203125 29.59375 
z
M 47.21875 32.234375 
Q 47.125 39.59375 43.09375 43.984375 
Q 39.0625 48.390625 32.421875 48.390625 
Q 24.90625 48.390625 20.390625 44.140625 
Q 15.875 39.890625 15.1875 32.171875 
z
" id="DejaVuSans-101"/>
      <path d="M 54.890625 33.015625 
L 54.890625 0 
L 45.90625 0 
L 45.90625 32.71875 
Q 45.90625 40.484375 42.875 44.328125 
Q 39.84375 48.1875 33.796875 48.1875 
Q 26.515625 48.1875 22.3125 43.546875 
Q 18.109375 38.921875 18.109375 30.90625 
L 18.109375 0 
L 9.078125 0 
L 9.078125 54.6875 
L 18.109375 54.6875 
L 18.109375 46.1875 
Q 21.34375 51.125 25.703125 53.5625 
Q 30.078125 56 35.796875 56 
Q 45.21875 56 50.046875 50.171875 
Q 54.890625 44.34375 54.890625 33.015625 
z
" id="DejaVuSans-110"/>
      <path d="M 31 75.875 
Q 24.46875 64.65625 21.28125 53.65625 
Q 18.109375 42.671875 18.109375 31.390625 
Q 18.109375 20.125 21.3125 9.0625 
Q 24.515625 -2 31 -13.1875 
L 23.1875 -13.1875 
Q 15.875 -1.703125 12.234375 9.375 
Q 8.59375 20.453125 8.59375 31.390625 
Q 8.59375 42.28125 12.203125 53.3125 
Q 15.828125 64.359375 23.1875 75.875 
z
" id="DejaVuSans-40"/>
      <path d="M 37.109375 75.984375 
L 37.109375 68.5 
L 28.515625 68.5 
Q 23.6875 68.5 21.796875 66.546875 
Q 19.921875 64.59375 19.921875 59.515625 
L 19.921875 54.6875 
L 34.71875 54.6875 
L 34.71875 47.703125 
L 19.921875 47.703125 
L 19.921875 0 
L 10.890625 0 
L 10.890625 47.703125 
L 2.296875 47.703125 
L 2.296875 54.6875 
L 10.890625 54.6875 
L 10.890625 58.5 
Q 10.890625 67.625 15.140625 71.796875 
Q 19.390625 75.984375 28.609375 75.984375 
z
" id="DejaVuSans-102"/>
      <path d="M 34.28125 27.484375 
Q 23.390625 27.484375 19.1875 25 
Q 14.984375 22.515625 14.984375 16.5 
Q 14.984375 11.71875 18.140625 8.90625 
Q 21.296875 6.109375 26.703125 6.109375 
Q 34.1875 6.109375 38.703125 11.40625 
Q 43.21875 16.703125 43.21875 25.484375 
L 43.21875 27.484375 
z
M 52.203125 31.203125 
L 52.203125 0 
L 43.21875 0 
L 43.21875 8.296875 
Q 40.140625 3.328125 35.546875 0.953125 
Q 30.953125 -1.421875 24.3125 -1.421875 
Q 15.921875 -1.421875 10.953125 3.296875 
Q 6 8.015625 6 15.921875 
Q 6 25.140625 12.171875 29.828125 
Q 18.359375 34.515625 30.609375 34.515625 
L 43.21875 34.515625 
L 43.21875 35.40625 
Q 43.21875 41.609375 39.140625 45 
Q 35.0625 48.390625 27.6875 48.390625 
Q 23 48.390625 18.546875 47.265625 
Q 14.109375 46.140625 10.015625 43.890625 
L 10.015625 52.203125 
Q 14.9375 54.109375 19.578125 55.046875 
Q 24.21875 56 28.609375 56 
Q 40.484375 56 46.34375 49.84375 
Q 52.203125 43.703125 52.203125 31.203125 
z
" id="DejaVuSans-97"/>
      <path d="M 2.984375 54.6875 
L 12.5 54.6875 
L 29.59375 8.796875 
L 46.6875 54.6875 
L 56.203125 54.6875 
L 35.6875 0 
L 23.484375 0 
z
" id="DejaVuSans-118"/>
      <path d="M 30.609375 48.390625 
Q 23.390625 48.390625 19.1875 42.75 
Q 14.984375 37.109375 14.984375 27.296875 
Q 14.984375 17.484375 19.15625 11.84375 
Q 23.34375 6.203125 30.609375 6.203125 
Q 37.796875 6.203125 41.984375 11.859375 
Q 46.1875 17.53125 46.1875 27.296875 
Q 46.1875 37.015625 41.984375 42.703125 
Q 37.796875 48.390625 30.609375 48.390625 
z
M 30.609375 56 
Q 42.328125 56 49.015625 48.375 
Q 55.71875 40.765625 55.71875 27.296875 
Q 55.71875 13.875 49.015625 6.21875 
Q 42.328125 -1.421875 30.609375 -1.421875 
Q 18.84375 -1.421875 12.171875 6.21875 
Q 5.515625 13.875 5.515625 27.296875 
Q 5.515625 40.765625 12.171875 48.375 
Q 18.84375 56 30.609375 56 
z
" id="DejaVuSans-111"/>
      <path d="M 8.5 21.578125 
L 8.5 54.6875 
L 17.484375 54.6875 
L 17.484375 21.921875 
Q 17.484375 14.15625 20.5 10.265625 
Q 23.53125 6.390625 29.59375 6.390625 
Q 36.859375 6.390625 41.078125 11.03125 
Q 45.3125 15.671875 45.3125 23.6875 
L 45.3125 54.6875 
L 54.296875 54.6875 
L 54.296875 0 
L 45.3125 0 
L 45.3125 8.40625 
Q 42.046875 3.421875 37.71875 1 
Q 33.40625 -1.421875 27.6875 -1.421875 
Q 18.265625 -1.421875 13.375 4.4375 
Q 8.5 10.296875 8.5 21.578125 
z
M 31.109375 56 
z
" id="DejaVuSans-117"/>
      <path d="M 41.109375 46.296875 
Q 39.59375 47.171875 37.8125 47.578125 
Q 36.03125 48 33.890625 48 
Q 26.265625 48 22.1875 43.046875 
Q 18.109375 38.09375 18.109375 28.8125 
L 18.109375 0 
L 9.078125 0 
L 9.078125 54.6875 
L 18.109375 54.6875 
L 18.109375 46.1875 
Q 20.953125 51.171875 25.484375 53.578125 
Q 30.03125 56 36.53125 56 
Q 37.453125 56 38.578125 55.875 
Q 39.703125 55.765625 41.0625 55.515625 
z
" id="DejaVuSans-114"/>
      <path d="M 44.28125 53.078125 
L 44.28125 44.578125 
Q 40.484375 46.53125 36.375 47.5 
Q 32.28125 48.484375 27.875 48.484375 
Q 21.1875 48.484375 17.84375 46.4375 
Q 14.5 44.390625 14.5 40.28125 
Q 14.5 37.15625 16.890625 35.375 
Q 19.28125 33.59375 26.515625 31.984375 
L 29.59375 31.296875 
Q 39.15625 29.25 43.1875 25.515625 
Q 47.21875 21.78125 47.21875 15.09375 
Q 47.21875 7.46875 41.1875 3.015625 
Q 35.15625 -1.421875 24.609375 -1.421875 
Q 20.21875 -1.421875 15.453125 -0.5625 
Q 10.6875 0.296875 5.421875 2 
L 5.421875 11.28125 
Q 10.40625 8.6875 15.234375 7.390625 
Q 20.0625 6.109375 24.8125 6.109375 
Q 31.15625 6.109375 34.5625 8.28125 
Q 37.984375 10.453125 37.984375 14.40625 
Q 37.984375 18.0625 35.515625 20.015625 
Q 33.0625 21.96875 24.703125 23.78125 
L 21.578125 24.515625 
Q 13.234375 26.265625 9.515625 29.90625 
Q 5.8125 33.546875 5.8125 39.890625 
Q 5.8125 47.609375 11.28125 51.796875 
Q 16.75 56 26.8125 56 
Q 31.78125 56 36.171875 55.265625 
Q 40.578125 54.546875 44.28125 53.078125 
z
" id="DejaVuSans-115"/>
      <path d="M 8.015625 75.875 
L 15.828125 75.875 
Q 23.140625 64.359375 26.78125 53.3125 
Q 30.421875 42.28125 30.421875 31.390625 
Q 30.421875 20.453125 26.78125 9.375 
Q 23.140625 -1.703125 15.828125 -13.1875 
L 8.015625 -13.1875 
Q 14.5 -2 17.703125 9.0625 
Q 20.90625 20.125 20.90625 31.390625 
Q 20.90625 42.671875 17.703125 53.65625 
Q 14.5 64.65625 8.015625 75.875 
z
" id="DejaVuSans-41"/>
     </defs>
     <g transform="translate(204.563125 335.860562)scale(0.1 -0.1)">
      <use xlink:href="#DejaVuSans-108"/>
      <use x="27.783203" xlink:href="#DejaVuSans-101"/>
      <use x="89.306641" xlink:href="#DejaVuSans-110"/>
      <use x="152.685547" xlink:href="#DejaVuSans-40"/>
      <use x="191.699219" xlink:href="#DejaVuSans-102"/>
      <use x="226.904297" xlink:href="#DejaVuSans-108"/>
      <use x="254.6875" xlink:href="#DejaVuSans-97"/>
      <use x="315.966797" xlink:href="#DejaVuSans-118"/>
      <use x="375.146484" xlink:href="#DejaVuSans-111"/>
      <use x="436.328125" xlink:href="#DejaVuSans-117"/>
      <use x="499.707031" xlink:href="#DejaVuSans-114"/>
      <use x="540.820312" xlink:href="#DejaVuSans-115"/>
      <use x="592.919922" xlink:href="#DejaVuSans-41"/>
     </g>
    </g>
   </g>
   <g id="matplotlib.axis_2">
    <g id="ytick_1">
     <g id="line2d_51">
      <defs>
       <path d="M 0 0 
L -3.5 0 
" id="m60f73bf3de" style="stroke:#000000;stroke-width:0.8;"/>
      </defs>
      <g>
       <use style="stroke:#000000;stroke-width:0.8;" x="57.6" xlink:href="#m60f73bf3de" y="307.161401"/>
      </g>
     </g>
     <g id="text_8">
      <!-- $\mathdefault{10^{-4}}$ -->
      <defs>
       <path d="M 10.59375 35.5 
L 73.1875 35.5 
L 73.1875 27.203125 
L 10.59375 27.203125 
z
" id="DejaVuSans-8722"/>
      </defs>
      <g transform="translate(27.1 310.960619)scale(0.1 -0.1)">
       <use transform="translate(0 0.684375)" xlink:href="#DejaVuSans-49"/>
       <use transform="translate(63.623047 0.684375)" xlink:href="#DejaVuSans-48"/>
       <use transform="translate(128.203125 38.965625)scale(0.7)" xlink:href="#DejaVuSans-8722"/>
       <use transform="translate(186.855469 38.965625)scale(0.7)" xlink:href="#DejaVuSans-52"/>
      </g>
     </g>
    </g>
    <g id="ytick_2">
     <g id="line2d_52">
      <g>
       <use style="stroke:#000000;stroke-width:0.8;" x="57.6" xlink:href="#m60f73bf3de" y="207.619561"/>
      </g>
     </g>
     <g id="text_9">
      <!-- $\mathdefault{10^{-3}}$ -->
      <g transform="translate(27.1 211.418779)scale(0.1 -0.1)">
       <use transform="translate(0 0.765625)" xlink:href="#DejaVuSans-49"/>
       <use transform="translate(63.623047 0.765625)" xlink:href="#DejaVuSans-48"/>
       <use transform="translate(128.203125 39.046875)scale(0.7)" xlink:href="#DejaVuSans-8722"/>
       <use transform="translate(186.855469 39.046875)scale(0.7)" xlink:href="#DejaVuSans-51"/>
      </g>
     </g>
    </g>
    <g id="ytick_3">
     <g id="line2d_53">
      <g>
       <use style="stroke:#000000;stroke-width:0.8;" x="57.6" xlink:href="#m60f73bf3de" y="108.077721"/>
      </g>
     </g>
     <g id="text_10">
      <!-- $\mathdefault{10^{-2}}$ -->
      <g transform="translate(27.1 111.87694)scale(0.1 -0.1)">
       <use transform="translate(0 0.765625)" xlink:href="#DejaVuSans-49"/>
       <use transform="translate(63.623047 0.765625)" xlink:href="#DejaVuSans-48"/>
       <use transform="translate(128.203125 39.046875)scale(0.7)" xlink:href="#DejaVuSans-8722"/>
       <use transform="translate(186.855469 39.046875)scale(0.7)" xlink:href="#DejaVuSans-50"/>
      </g>
     </g>
    </g>
    <g id="ytick_4">
     <g id="line2d_54">
      <defs>
       <path d="M 0 0 
L -2 0 
" id="m42b56117da" style="stroke:#000000;stroke-width:0.6;"/>
      </defs>
      <g>
       <use style="stroke:#000000;stroke-width:0.6;" x="57.6" xlink:href="#m42b56117da" y="277.196321"/>
      </g>
     </g>
    </g>
    <g id="ytick_5">
     <g id="line2d_55">
      <g>
       <use style="stroke:#000000;stroke-width:0.6;" x="57.6" xlink:href="#m42b56117da" y="259.667873"/>
      </g>
     </g>
    </g>
    <g id="ytick_6">
     <g id="line2d_56">
      <g>
       <use style="stroke:#000000;stroke-width:0.6;" x="57.6" xlink:href="#m42b56117da" y="247.231241"/>
      </g>
     </g>
    </g>
    <g id="ytick_7">
     <g id="line2d_57">
      <g>
       <use style="stroke:#000000;stroke-width:0.6;" x="57.6" xlink:href="#m42b56117da" y="237.58464"/>
      </g>
     </g>
    </g>
    <g id="ytick_8">
     <g id="line2d_58">
      <g>
       <use style="stroke:#000000;stroke-width:0.6;" x="57.6" xlink:href="#m42b56117da" y="229.702793"/>
      </g>
     </g>
    </g>
    <g id="ytick_9">
     <g id="line2d_59">
      <g>
       <use style="stroke:#000000;stroke-width:0.6;" x="57.6" xlink:href="#m42b56117da" y="223.038787"/>
      </g>
     </g>
    </g>
    <g id="ytick_10">
     <g id="line2d_60">
      <g>
       <use style="stroke:#000000;stroke-width:0.6;" x="57.6" xlink:href="#m42b56117da" y="217.266162"/>
      </g>
     </g>
    </g>
    <g id="ytick_11">
     <g id="line2d_61">
      <g>
       <use style="stroke:#000000;stroke-width:0.6;" x="57.6" xlink:href="#m42b56117da" y="212.174346"/>
      </g>
     </g>
    </g>
    <g id="ytick_12">
     <g id="line2d_62">
      <g>
       <use style="stroke:#000000;stroke-width:0.6;" x="57.6" xlink:href="#m42b56117da" y="177.654481"/>
      </g>
     </g>
    </g>
    <g id="ytick_13">
     <g id="line2d_63">
      <g>
       <use style="stroke:#000000;stroke-width:0.6;" x="57.6" xlink:href="#m42b56117da" y="160.126033"/>
      </g>
     </g>
    </g>
    <g id="ytick_14">
     <g id="line2d_64">
      <g>
       <use style="stroke:#000000;stroke-width:0.6;" x="57.6" xlink:href="#m42b56117da" y="147.689401"/>
      </g>
     </g>
    </g>
    <g id="ytick_15">
     <g id="line2d_65">
      <g>
       <use style="stroke:#000000;stroke-width:0.6;" x="57.6" xlink:href="#m42b56117da" y="138.042801"/>
      </g>
     </g>
    </g>
    <g id="ytick_16">
     <g id="line2d_66">
      <g>
       <use style="stroke:#000000;stroke-width:0.6;" x="57.6" xlink:href="#m42b56117da" y="130.160954"/>
      </g>
     </g>
    </g>
    <g id="ytick_17">
     <g id="line2d_67">
      <g>
       <use style="stroke:#000000;stroke-width:0.6;" x="57.6" xlink:href="#m42b56117da" y="123.496947"/>
      </g>
     </g>
    </g>
    <g id="ytick_18">
     <g id="line2d_68">
      <g>
       <use style="stroke:#000000;stroke-width:0.6;" x="57.6" xlink:href="#m42b56117da" y="117.724322"/>
      </g>
     </g>
    </g>
    <g id="ytick_19">
     <g id="line2d_69">
      <g>
       <use style="stroke:#000000;stroke-width:0.6;" x="57.6" xlink:href="#m42b56117da" y="112.632506"/>
      </g>
     </g>
    </g>
    <g id="ytick_20">
     <g id="line2d_70">
      <g>
       <use style="stroke:#000000;stroke-width:0.6;" x="57.6" xlink:href="#m42b56117da" y="78.112641"/>
      </g>
     </g>
    </g>
    <g id="ytick_21">
     <g id="line2d_71">
      <g>
       <use style="stroke:#000000;stroke-width:0.6;" x="57.6" xlink:href="#m42b56117da" y="60.584193"/>
      </g>
     </g>
    </g>
    <g id="ytick_22">
     <g id="line2d_72">
      <g>
       <use style="stroke:#000000;stroke-width:0.6;" x="57.6" xlink:href="#m42b56117da" y="48.147562"/>
      </g>
     </g>
    </g>
    <g id="text_11">
     <!-- Time [s] -->
     <defs>
      <path d="M -0.296875 72.90625 
L 61.375 72.90625 
L 61.375 64.59375 
L 35.5 64.59375 
L 35.5 0 
L 25.59375 0 
L 25.59375 64.59375 
L -0.296875 64.59375 
z
" id="DejaVuSans-84"/>
      <path d="M 9.421875 54.6875 
L 18.40625 54.6875 
L 18.40625 0 
L 9.421875 0 
z
M 9.421875 75.984375 
L 18.40625 75.984375 
L 18.40625 64.59375 
L 9.421875 64.59375 
z
" id="DejaVuSans-105"/>
      <path d="M 52 44.1875 
Q 55.375 50.25 60.0625 53.125 
Q 64.75 56 71.09375 56 
Q 79.640625 56 84.28125 50.015625 
Q 88.921875 44.046875 88.921875 33.015625 
L 88.921875 0 
L 79.890625 0 
L 79.890625 32.71875 
Q 79.890625 40.578125 77.09375 44.375 
Q 74.3125 48.1875 68.609375 48.1875 
Q 61.625 48.1875 57.5625 43.546875 
Q 53.515625 38.921875 53.515625 30.90625 
L 53.515625 0 
L 44.484375 0 
L 44.484375 32.71875 
Q 44.484375 40.625 41.703125 44.40625 
Q 38.921875 48.1875 33.109375 48.1875 
Q 26.21875 48.1875 22.15625 43.53125 
Q 18.109375 38.875 18.109375 30.90625 
L 18.109375 0 
L 9.078125 0 
L 9.078125 54.6875 
L 18.109375 54.6875 
L 18.109375 46.1875 
Q 21.1875 51.21875 25.484375 53.609375 
Q 29.78125 56 35.6875 56 
Q 41.65625 56 45.828125 52.96875 
Q 50 49.953125 52 44.1875 
z
" id="DejaVuSans-109"/>
      <path id="DejaVuSans-32"/>
      <path d="M 8.59375 75.984375 
L 29.296875 75.984375 
L 29.296875 69 
L 17.578125 69 
L 17.578125 -6.203125 
L 29.296875 -6.203125 
L 29.296875 -13.1875 
L 8.59375 -13.1875 
z
" id="DejaVuSans-91"/>
      <path d="M 30.421875 75.984375 
L 30.421875 -13.1875 
L 9.71875 -13.1875 
L 9.71875 -6.203125 
L 21.390625 -6.203125 
L 21.390625 69 
L 9.71875 69 
L 9.71875 75.984375 
z
" id="DejaVuSans-93"/>
     </defs>
     <g transform="translate(21.020312 195.010812)rotate(-90)scale(0.1 -0.1)">
      <use xlink:href="#DejaVuSans-84"/>
      <use x="61.037109" xlink:href="#DejaVuSans-105"/>
      <use x="88.820312" xlink:href="#DejaVuSans-109"/>
      <use x="186.232422" xlink:href="#DejaVuSans-101"/>
      <use x="247.755859" xlink:href="#DejaVuSans-32"/>
      <use x="279.542969" xlink:href="#DejaVuSans-91"/>
      <use x="318.556641" xlink:href="#DejaVuSans-115"/>
      <use x="370.65625" xlink:href="#DejaVuSans-93"/>
     </g>
    </g>
   </g>
   <g id="line2d_73">
    <path clip-path="url(#pf66dd528d5)" d="M 73.832727 286.869949 
L 80.45833 295.389112 
L 87.083933 295.29045 
L 93.709536 294.348148 
L 100.335139 294.44468 
L 106.960742 294.25183 
L 113.586345 294.476906 
L 120.211948 293.74173 
L 126.837551 294.44468 
L 133.463154 293.710048 
L 140.088757 294.898037 
L 146.71436 293.237579 
L 153.339963 294.412479 
L 159.965566 292.739239 
L 166.591169 293.268917 
L 173.216772 292.677349 
L 179.842375 290.565182 
L 186.467978 290.096555 
L 193.093581 289.060355 
L 199.719184 288.131842 
L 206.344787 282.575492 
L 212.97039 281.083808 
L 219.595993 279.482067 
L 226.221596 276.766163 
L 232.847199 274.514502 
L 239.472801 269.080941 
L 246.098404 263.729136 
L 252.724007 259.711125 
L 259.34961 254.614501 
L 265.975213 248.648401 
L 272.600816 242.748928 
L 279.226419 235.980656 
L 285.852022 230.568814 
L 292.477625 222.55974 
L 299.103228 214.341246 
L 305.728831 206.661885 
L 312.354434 195.369221 
L 318.980037 186.429115 
L 325.60564 179.73788 
L 332.231243 169.272979 
L 338.856846 160.140446 
L 345.482449 151.716644 
L 352.108052 142.011717 
L 358.733655 132.483937 
L 365.359258 122.287513 
L 371.984861 113.628588 
L 378.610464 103.122537 
L 385.236067 92.796447 
L 391.86167 83.604809 
L 398.487273 72.832559 
" style="fill:none;stroke:#1f77b4;stroke-linecap:square;stroke-width:1.5;"/>
   </g>
   <g id="line2d_74">
    <path clip-path="url(#pf66dd528d5)" d="M 73.832727 294.930603 
L 80.45833 295.389112 
L 87.083933 294.638394 
L 93.709536 293.996028 
L 100.335139 294.606048 
L 106.960742 293.932313 
L 113.586345 293.678389 
L 120.211948 294.219772 
L 126.837551 294.02792 
L 133.463154 293.932313 
L 140.088757 294.155727 
L 146.71436 292.646437 
L 153.339963 293.836916 
L 159.965566 292.430669 
L 166.591169 292.925444 
L 173.216772 290.97944 
L 179.842375 291.457791 
L 186.467978 289.23134 
L 193.093581 288.187551 
L 199.719184 287.965143 
L 206.344787 283.766763 
L 212.97039 282.185586 
L 219.595993 280.895029 
L 226.221596 278.557677 
L 232.847199 275.396996 
L 239.472801 269.658077 
L 246.098404 265.771134 
L 252.724007 261.178197 
L 259.34961 255.547569 
L 265.975213 250.566518 
L 272.600816 243.924198 
L 279.226419 238.089045 
L 285.852022 231.475053 
L 292.477625 223.786306 
L 299.103228 215.904459 
L 305.728831 207.636856 
L 312.354434 199.04441 
L 318.980037 188.202034 
L 325.60564 179.255181 
L 332.231243 170.427833 
L 338.856846 160.779403 
L 345.482449 151.3481 
L 352.108052 142.414484 
L 358.733655 132.452777 
L 365.359258 123.226063 
L 371.984861 114.274348 
L 378.610464 102.92293 
L 385.236067 93.08826 
L 391.86167 83.247223 
L 398.487273 73.682778 
" style="fill:none;stroke:#ff7f0e;stroke-linecap:square;stroke-width:1.5;"/>
   </g>
   <g id="line2d_75">
    <path clip-path="url(#pf66dd528d5)" d="M 73.832727 295.488 
L 80.45833 294.606048 
L 87.083933 294.735578 
L 93.709536 294.059837 
L 100.335139 294.091776 
L 106.960742 294.476906 
L 113.586345 294.283912 
L 120.211948 294.412479 
L 126.837551 293.646753 
L 133.463154 294.703159 
L 140.088757 293.018848 
L 146.71436 293.112454 
L 153.339963 293.710048 
L 159.965566 293.237579 
L 166.591169 293.08123 
L 173.216772 291.307737 
L 179.842375 291.367696 
L 186.467978 288.692193 
L 193.093581 289.031923 
L 199.719184 286.761941 
L 206.344787 284.196669 
L 212.97039 282.185586 
L 219.595993 280.895029 
L 226.221596 277.239573 
L 232.847199 274.291612 
L 239.472801 269.440747 
L 246.098404 266.004094 
L 252.724007 260.629561 
L 259.34961 256.114577 
L 265.975213 250.102044 
L 272.600816 243.466096 
L 279.226419 236.992139 
L 285.852022 231.086462 
L 292.477625 222.261493 
L 299.103228 214.366505 
L 305.728831 206.678801 
L 312.354434 195.206712 
L 318.980037 187.6347 
L 325.60564 177.660966 
L 332.231243 169.610823 
L 338.856846 160.167843 
L 345.482449 150.607584 
L 352.108052 141.609851 
L 358.733655 131.864208 
L 365.359258 122.52538 
L 371.984861 112.036688 
L 378.610464 101.40544 
L 385.236067 92.482172 
L 391.86167 82.493414 
L 398.487273 72.157214 
" style="fill:none;stroke:#2ca02c;stroke-linecap:square;stroke-width:1.5;"/>
   </g>
   <g id="patch_3">
    <path d="M 57.6 307.584 
L 57.6 41.472 
" style="fill:none;stroke:#000000;stroke-linecap:square;stroke-linejoin:miter;stroke-width:0.8;"/>
   </g>
   <g id="patch_4">
    <path d="M 414.72 307.584 
L 414.72 41.472 
" style="fill:none;stroke:#000000;stroke-linecap:square;stroke-linejoin:miter;stroke-width:0.8;"/>
   </g>
   <g id="patch_5">
    <path d="M 57.6 307.584 
L 414.72 307.584 
" style="fill:none;stroke:#000000;stroke-linecap:square;stroke-linejoin:miter;stroke-width:0.8;"/>
   </g>
   <g id="patch_6">
    <path d="M 57.6 41.472 
L 414.72 41.472 
" style="fill:none;stroke:#000000;stroke-linecap:square;stroke-linejoin:miter;stroke-width:0.8;"/>
   </g>
   <g id="legend_1">
    <g id="patch_7">
     <path d="M 64.6 94.34075 
L 252.723438 94.34075 
Q 254.723438 94.34075 254.723438 92.34075 
L 254.723438 48.472 
Q 254.723438 46.472 252.723438 46.472 
L 64.6 46.472 
Q 62.6 46.472 62.6 48.472 
L 62.6 92.34075 
Q 62.6 94.34075 64.6 94.34075 
z
" style="fill:#ffffff;opacity:0.8;stroke:#cccccc;stroke-linejoin:miter;"/>
    </g>
    <g id="line2d_76">
     <path d="M 66.6 54.570438 
L 86.6 54.570438 
" style="fill:none;stroke:#1f77b4;stroke-linecap:square;stroke-width:1.5;"/>
    </g>
    <g id="line2d_77"/>
    <g id="text_12">
     <!-- se_code.peilonrayz.display -->
     <defs>
      <path d="M 50.984375 -16.609375 
L 50.984375 -23.578125 
L -0.984375 -23.578125 
L -0.984375 -16.609375 
z
" id="DejaVuSans-95"/>
      <path d="M 48.78125 52.59375 
L 48.78125 44.1875 
Q 44.96875 46.296875 41.140625 47.34375 
Q 37.3125 48.390625 33.40625 48.390625 
Q 24.65625 48.390625 19.8125 42.84375 
Q 14.984375 37.3125 14.984375 27.296875 
Q 14.984375 17.28125 19.8125 11.734375 
Q 24.65625 6.203125 33.40625 6.203125 
Q 37.3125 6.203125 41.140625 7.25 
Q 44.96875 8.296875 48.78125 10.40625 
L 48.78125 2.09375 
Q 45.015625 0.34375 40.984375 -0.53125 
Q 36.96875 -1.421875 32.421875 -1.421875 
Q 20.0625 -1.421875 12.78125 6.34375 
Q 5.515625 14.109375 5.515625 27.296875 
Q 5.515625 40.671875 12.859375 48.328125 
Q 20.21875 56 33.015625 56 
Q 37.15625 56 41.109375 55.140625 
Q 45.0625 54.296875 48.78125 52.59375 
z
" id="DejaVuSans-99"/>
      <path d="M 45.40625 46.390625 
L 45.40625 75.984375 
L 54.390625 75.984375 
L 54.390625 0 
L 45.40625 0 
L 45.40625 8.203125 
Q 42.578125 3.328125 38.25 0.953125 
Q 33.9375 -1.421875 27.875 -1.421875 
Q 17.96875 -1.421875 11.734375 6.484375 
Q 5.515625 14.40625 5.515625 27.296875 
Q 5.515625 40.1875 11.734375 48.09375 
Q 17.96875 56 27.875 56 
Q 33.9375 56 38.25 53.625 
Q 42.578125 51.265625 45.40625 46.390625 
z
M 14.796875 27.296875 
Q 14.796875 17.390625 18.875 11.75 
Q 22.953125 6.109375 30.078125 6.109375 
Q 37.203125 6.109375 41.296875 11.75 
Q 45.40625 17.390625 45.40625 27.296875 
Q 45.40625 37.203125 41.296875 42.84375 
Q 37.203125 48.484375 30.078125 48.484375 
Q 22.953125 48.484375 18.875 42.84375 
Q 14.796875 37.203125 14.796875 27.296875 
z
" id="DejaVuSans-100"/>
      <path d="M 10.6875 12.40625 
L 21 12.40625 
L 21 0 
L 10.6875 0 
z
" id="DejaVuSans-46"/>
      <path d="M 18.109375 8.203125 
L 18.109375 -20.796875 
L 9.078125 -20.796875 
L 9.078125 54.6875 
L 18.109375 54.6875 
L 18.109375 46.390625 
Q 20.953125 51.265625 25.265625 53.625 
Q 29.59375 56 35.59375 56 
Q 45.5625 56 51.78125 48.09375 
Q 58.015625 40.1875 58.015625 27.296875 
Q 58.015625 14.40625 51.78125 6.484375 
Q 45.5625 -1.421875 35.59375 -1.421875 
Q 29.59375 -1.421875 25.265625 0.953125 
Q 20.953125 3.328125 18.109375 8.203125 
z
M 48.6875 27.296875 
Q 48.6875 37.203125 44.609375 42.84375 
Q 40.53125 48.484375 33.40625 48.484375 
Q 26.265625 48.484375 22.1875 42.84375 
Q 18.109375 37.203125 18.109375 27.296875 
Q 18.109375 17.390625 22.1875 11.75 
Q 26.265625 6.109375 33.40625 6.109375 
Q 40.53125 6.109375 44.609375 11.75 
Q 48.6875 17.390625 48.6875 27.296875 
z
" id="DejaVuSans-112"/>
      <path d="M 32.171875 -5.078125 
Q 28.375 -14.84375 24.75 -17.8125 
Q 21.140625 -20.796875 15.09375 -20.796875 
L 7.90625 -20.796875 
L 7.90625 -13.28125 
L 13.1875 -13.28125 
Q 16.890625 -13.28125 18.9375 -11.515625 
Q 21 -9.765625 23.484375 -3.21875 
L 25.09375 0.875 
L 2.984375 54.6875 
L 12.5 54.6875 
L 29.59375 11.921875 
L 46.6875 54.6875 
L 56.203125 54.6875 
z
" id="DejaVuSans-121"/>
      <path d="M 5.515625 54.6875 
L 48.1875 54.6875 
L 48.1875 46.484375 
L 14.40625 7.171875 
L 48.1875 7.171875 
L 48.1875 0 
L 4.296875 0 
L 4.296875 8.203125 
L 38.09375 47.515625 
L 5.515625 47.515625 
z
" id="DejaVuSans-122"/>
     </defs>
     <g transform="translate(94.6 58.070438)scale(0.1 -0.1)">
      <use xlink:href="#DejaVuSans-115"/>
      <use x="52.099609" xlink:href="#DejaVuSans-101"/>
      <use x="113.623047" xlink:href="#DejaVuSans-95"/>
      <use x="163.623047" xlink:href="#DejaVuSans-99"/>
      <use x="218.603516" xlink:href="#DejaVuSans-111"/>
      <use x="279.785156" xlink:href="#DejaVuSans-100"/>
      <use x="343.261719" xlink:href="#DejaVuSans-101"/>
      <use x="404.785156" xlink:href="#DejaVuSans-46"/>
      <use x="436.572266" xlink:href="#DejaVuSans-112"/>
      <use x="500.048828" xlink:href="#DejaVuSans-101"/>
      <use x="561.572266" xlink:href="#DejaVuSans-105"/>
      <use x="589.355469" xlink:href="#DejaVuSans-108"/>
      <use x="617.138672" xlink:href="#DejaVuSans-111"/>
      <use x="678.320312" xlink:href="#DejaVuSans-110"/>
      <use x="741.699219" xlink:href="#DejaVuSans-114"/>
      <use x="782.8125" xlink:href="#DejaVuSans-97"/>
      <use x="844.091797" xlink:href="#DejaVuSans-121"/>
      <use x="903.271484" xlink:href="#DejaVuSans-122"/>
      <use x="955.761719" xlink:href="#DejaVuSans-46"/>
      <use x="987.548828" xlink:href="#DejaVuSans-100"/>
      <use x="1051.025391" xlink:href="#DejaVuSans-105"/>
      <use x="1078.808594" xlink:href="#DejaVuSans-115"/>
      <use x="1130.908203" xlink:href="#DejaVuSans-112"/>
      <use x="1194.384766" xlink:href="#DejaVuSans-108"/>
      <use x="1222.167969" xlink:href="#DejaVuSans-97"/>
      <use x="1283.447266" xlink:href="#DejaVuSans-121"/>
     </g>
    </g>
    <g id="line2d_78">
     <path d="M 66.6 69.526688 
L 86.6 69.526688 
" style="fill:none;stroke:#ff7f0e;stroke-linecap:square;stroke-width:1.5;"/>
    </g>
    <g id="line2d_79"/>
    <g id="text_13">
     <!-- se_code.maarten_fabre.display -->
     <defs>
      <path d="M 18.3125 70.21875 
L 18.3125 54.6875 
L 36.8125 54.6875 
L 36.8125 47.703125 
L 18.3125 47.703125 
L 18.3125 18.015625 
Q 18.3125 11.328125 20.140625 9.421875 
Q 21.96875 7.515625 27.59375 7.515625 
L 36.8125 7.515625 
L 36.8125 0 
L 27.59375 0 
Q 17.1875 0 13.234375 3.875 
Q 9.28125 7.765625 9.28125 18.015625 
L 9.28125 47.703125 
L 2.6875 47.703125 
L 2.6875 54.6875 
L 9.28125 54.6875 
L 9.28125 70.21875 
z
" id="DejaVuSans-116"/>
      <path d="M 48.6875 27.296875 
Q 48.6875 37.203125 44.609375 42.84375 
Q 40.53125 48.484375 33.40625 48.484375 
Q 26.265625 48.484375 22.1875 42.84375 
Q 18.109375 37.203125 18.109375 27.296875 
Q 18.109375 17.390625 22.1875 11.75 
Q 26.265625 6.109375 33.40625 6.109375 
Q 40.53125 6.109375 44.609375 11.75 
Q 48.6875 17.390625 48.6875 27.296875 
z
M 18.109375 46.390625 
Q 20.953125 51.265625 25.265625 53.625 
Q 29.59375 56 35.59375 56 
Q 45.5625 56 51.78125 48.09375 
Q 58.015625 40.1875 58.015625 27.296875 
Q 58.015625 14.40625 51.78125 6.484375 
Q 45.5625 -1.421875 35.59375 -1.421875 
Q 29.59375 -1.421875 25.265625 0.953125 
Q 20.953125 3.328125 18.109375 8.203125 
L 18.109375 0 
L 9.078125 0 
L 9.078125 75.984375 
L 18.109375 75.984375 
z
" id="DejaVuSans-98"/>
     </defs>
     <g transform="translate(94.6 73.026688)scale(0.1 -0.1)">
      <use xlink:href="#DejaVuSans-115"/>
      <use x="52.099609" xlink:href="#DejaVuSans-101"/>
      <use x="113.623047" xlink:href="#DejaVuSans-95"/>
      <use x="163.623047" xlink:href="#DejaVuSans-99"/>
      <use x="218.603516" xlink:href="#DejaVuSans-111"/>
      <use x="279.785156" xlink:href="#DejaVuSans-100"/>
      <use x="343.261719" xlink:href="#DejaVuSans-101"/>
      <use x="404.785156" xlink:href="#DejaVuSans-46"/>
      <use x="436.572266" xlink:href="#DejaVuSans-109"/>
      <use x="533.984375" xlink:href="#DejaVuSans-97"/>
      <use x="595.263672" xlink:href="#DejaVuSans-97"/>
      <use x="656.542969" xlink:href="#DejaVuSans-114"/>
      <use x="697.65625" xlink:href="#DejaVuSans-116"/>
      <use x="736.865234" xlink:href="#DejaVuSans-101"/>
      <use x="798.388672" xlink:href="#DejaVuSans-110"/>
      <use x="861.767578" xlink:href="#DejaVuSans-95"/>
      <use x="911.767578" xlink:href="#DejaVuSans-102"/>
      <use x="946.972656" xlink:href="#DejaVuSans-97"/>
      <use x="1008.251953" xlink:href="#DejaVuSans-98"/>
      <use x="1071.728516" xlink:href="#DejaVuSans-114"/>
      <use x="1112.810547" xlink:href="#DejaVuSans-101"/>
      <use x="1174.333984" xlink:href="#DejaVuSans-46"/>
      <use x="1206.121094" xlink:href="#DejaVuSans-100"/>
      <use x="1269.597656" xlink:href="#DejaVuSans-105"/>
      <use x="1297.380859" xlink:href="#DejaVuSans-115"/>
      <use x="1349.480469" xlink:href="#DejaVuSans-112"/>
      <use x="1412.957031" xlink:href="#DejaVuSans-108"/>
      <use x="1440.740234" xlink:href="#DejaVuSans-97"/>
      <use x="1502.019531" xlink:href="#DejaVuSans-121"/>
     </g>
    </g>
    <g id="line2d_80">
     <path d="M 66.6 84.482938 
L 86.6 84.482938 
" style="fill:none;stroke:#2ca02c;stroke-linecap:square;stroke-width:1.5;"/>
    </g>
    <g id="line2d_81"/>
    <g id="text_14">
     <!-- se_code.andy.display -->
     <g transform="translate(94.6 87.982938)scale(0.1 -0.1)">
      <use xlink:href="#DejaVuSans-115"/>
      <use x="52.099609" xlink:href="#DejaVuSans-101"/>
      <use x="113.623047" xlink:href="#DejaVuSans-95"/>
      <use x="163.623047" xlink:href="#DejaVuSans-99"/>
      <use x="218.603516" xlink:href="#DejaVuSans-111"/>
      <use x="279.785156" xlink:href="#DejaVuSans-100"/>
      <use x="343.261719" xlink:href="#DejaVuSans-101"/>
      <use x="404.785156" xlink:href="#DejaVuSans-46"/>
      <use x="436.572266" xlink:href="#DejaVuSans-97"/>
      <use x="497.851562" xlink:href="#DejaVuSans-110"/>
      <use x="561.230469" xlink:href="#DejaVuSans-100"/>
      <use x="624.707031" xlink:href="#DejaVuSans-121"/>
      <use x="683.667969" xlink:href="#DejaVuSans-46"/>
      <use x="715.455078" xlink:href="#DejaVuSans-100"/>
      <use x="778.931641" xlink:href="#DejaVuSans-105"/>
      <use x="806.714844" xlink:href="#DejaVuSans-115"/>
      <use x="858.814453" xlink:href="#DejaVuSans-112"/>
      <use x="922.291016" xlink:href="#DejaVuSans-108"/>
      <use x="950.074219" xlink:href="#DejaVuSans-97"/>
      <use x="1011.353516" xlink:href="#DejaVuSans-121"/>
     </g>
    </g>
   </g>
  </g>
 </g>
 <defs>
  <clipPath id="pf66dd528d5">
   <rect height="266.112" width="357.12" x="57.6" y="41.472"/>
  </clipPath>
 </defs>
</svg>
