<?xml version="1.0" encoding="utf-8" standalone="no"?>
<!DOCTYPE svg PUBLIC "-//W3C//DTD SVG 1.1//EN"
  "http://www.w3.org/Graphics/SVG/1.1/DTD/svg11.dtd">
<!-- Created with matplotlib (https://matplotlib.org/) -->
<svg height="345.6pt" version="1.1" viewBox="0 0 460.8 345.6" width="460.8pt" xmlns="http://www.w3.org/2000/svg" xmlns:xlink="http://www.w3.org/1999/xlink">
 <defs>
  <style type="text/css">
*{stroke-linecap:butt;stroke-linejoin:round;white-space:pre;}
  </style>
 </defs>
 <g id="figure_1">
  <g id="patch_1">
   <path d="M 0 345.6 
L 460.8 345.6 
L 460.8 0 
L 0 0 
z
" style="fill:#ffffff;"/>
  </g>
  <g id="axes_1">
   <g id="patch_2">
    <path d="M 57.6 307.584 
L 414.72 307.584 
L 414.72 41.472 
L 57.6 41.472 
z
" style="fill:#ffffff;"/>
   </g>
   <g id="PolyCollection_1">
    <path clip-path="url(#p165369f411)" d="M 73.832727 290.457348 
L 73.832727 286.468509 
L 80.45833 292.791643 
L 87.083933 292.946105 
L 93.709536 292.971916 
L 100.335139 293.231083 
L 106.960742 292.484765 
L 113.586345 292.817339 
L 120.211948 292.791643 
L 126.837551 292.029472 
L 133.463154 292.843054 
L 140.088757 292.714669 
L 146.71436 291.954167 
L 153.339963 292.535723 
L 159.965566 291.234515 
L 166.591169 292.180574 
L 173.216772 292.104941 
L 179.842375 291.879025 
L 186.467978 291.804045 
L 193.093581 291.779088 
L 199.719184 291.136413 
L 206.344787 291.185429 
L 212.97039 291.136413 
L 219.595993 290.098953 
L 226.221596 290.194164 
L 232.847199 283.731619 
L 239.472801 279.559972 
L 246.098404 278.302004 
L 252.724007 284.189755 
L 259.34961 280.32287 
L 265.975213 279.930457 
L 272.600816 287.555893 
L 279.226419 276.617282 
L 285.852022 275.459833 
L 292.477625 282.987695 
L 299.103228 279.524893 
L 305.728831 276.633409 
L 312.354434 271.750988 
L 318.980037 268.451232 
L 325.60564 266.433671 
L 332.231243 265.205063 
L 338.856846 267.003495 
L 345.482449 259.53149 
L 352.108052 257.894881 
L 358.733655 256.86644 
L 365.359258 258.463742 
L 371.984861 244.05602 
L 378.610464 247.102455 
L 385.236067 246.34576 
L 391.86167 241.156541 
L 398.487273 243.399395 
L 398.487273 255.903082 
L 398.487273 255.903082 
L 391.86167 259.227242 
L 385.236067 261.259416 
L 378.610464 263.739137 
L 371.984861 265.873046 
L 365.359258 268.874361 
L 358.733655 271.08472 
L 352.108052 272.861701 
L 345.482449 274.204092 
L 338.856846 277.664772 
L 332.231243 279.665422 
L 325.60564 280.520752 
L 318.980037 281.732323 
L 312.354434 282.392395 
L 305.728831 283.007069 
L 299.103228 284.431203 
L 292.477625 285.145171 
L 285.852022 288.610042 
L 279.226419 289.091589 
L 272.600816 290.289637 
L 265.975213 291.038587 
L 259.34961 290.770978 
L 252.724007 291.82902 
L 246.098404 291.431555 
L 239.472801 292.612301 
L 232.847199 293.153129 
L 226.221596 292.408467 
L 219.595993 293.597196 
L 212.97039 293.623496 
L 206.344787 292.868788 
L 199.719184 293.179094 
L 193.093581 293.335293 
L 186.467978 293.728892 
L 179.842375 293.755292 
L 173.216772 293.570917 
L 166.591169 293.702513 
L 159.965566 293.94065 
L 153.339963 293.83461 
L 146.71436 294.127004 
L 140.088757 293.967211 
L 133.463154 293.967211 
L 126.837551 294.020393 
L 120.211948 294.180432 
L 113.586345 294.909872 
L 106.960742 294.047015 
L 100.335139 294.502737 
L 93.709536 295.460251 
L 87.083933 294.394969 
L 80.45833 295.321836 
L 73.832727 290.457348 
z
" style="fill:#1f77b4;fill-opacity:0.1;"/>
   </g>
   <g id="PolyCollection_2">
    <path clip-path="url(#p165369f411)" d="M 73.832727 292.946105 
L 73.832727 289.579908 
L 80.45833 291.604887 
L 87.083933 291.804045 
L 93.709536 292.104941 
L 100.335139 291.729227 
L 106.960742 269.723184 
L 113.586345 269.842366 
L 120.211948 269.657148 
L 126.837551 256.467053 
L 133.463154 256.539328 
L 140.088757 246.177584 
L 146.71436 246.575794 
L 153.339963 238.95155 
L 159.965566 232.817527 
L 166.591169 227.878359 
L 173.216772 223.26236 
L 179.842375 218.979395 
L 186.467978 215.576182 
L 193.093581 208.634055 
L 199.719184 203.881978 
L 206.344787 198.85746 
L 212.97039 193.494026 
L 219.595993 186.433012 
L 226.221596 183.63683 
L 232.847199 167.13165 
L 239.472801 173.199886 
L 246.098404 166.801781 
L 252.724007 162.481602 
L 259.34961 153.549122 
L 265.975213 152.919677 
L 272.600816 149.107222 
L 279.226419 143.911613 
L 285.852022 139.056215 
L 292.477625 134.028707 
L 299.103228 129.495324 
L 305.728831 124.083751 
L 312.354434 119.228441 
L 318.980037 114.209973 
L 325.60564 109.531111 
L 332.231243 103.438715 
L 338.856846 99.086153 
L 345.482449 94.158171 
L 352.108052 88.916434 
L 358.733655 76.306558 
L 365.359258 75.071855 
L 371.984861 69.658316 
L 378.610464 67.210247 
L 385.236067 61.625779 
L 391.86167 57.094001 
L 398.487273 53.568 
L 398.487273 56.971464 
L 398.487273 56.971464 
L 391.86167 61.860592 
L 385.236067 66.689762 
L 378.610464 71.652186 
L 371.984861 76.782163 
L 365.359258 81.526598 
L 358.733655 86.441379 
L 352.108052 91.274118 
L 345.482449 96.323804 
L 338.856846 101.404678 
L 332.231243 106.191308 
L 325.60564 110.951813 
L 318.980037 116.358487 
L 312.354434 121.008249 
L 305.728831 125.895704 
L 299.103228 130.616156 
L 292.477625 135.672521 
L 285.852022 140.40373 
L 279.226419 145.351274 
L 272.600816 150.64618 
L 265.975213 155.470016 
L 259.34961 160.686901 
L 252.724007 165.797398 
L 246.098404 169.976508 
L 239.472801 175.816157 
L 232.847199 180.086303 
L 226.221596 185.467538 
L 219.595993 189.824743 
L 212.97039 195.35206 
L 206.344787 200.869662 
L 199.719184 205.129081 
L 193.093581 210.682998 
L 186.467978 216.92835 
L 179.842375 220.496233 
L 173.216772 224.545005 
L 166.591169 229.190537 
L 159.965566 234.502102 
L 153.339963 240.781097 
L 146.71436 249.175547 
L 140.088757 248.15904 
L 133.463154 257.866681 
L 126.837551 257.791593 
L 120.211948 271.208675 
L 113.586345 272.004172 
L 106.960742 271.208675 
L 100.335139 293.439818 
L 93.709536 294.287535 
L 87.083933 293.413657 
L 80.45833 294.233942 
L 73.832727 292.946105 
z
" style="fill:#ff7f0e;fill-opacity:0.1;"/>
   </g>
   <g id="PolyCollection_3">
    <path clip-path="url(#p165369f411)" d="M 73.832727 294.10032 
L 73.832727 290.989777 
L 80.45833 291.979251 
L 87.083933 292.946105 
L 93.709536 292.997746 
L 100.335139 293.101257 
L 106.960742 292.535723 
L 113.586345 292.740308 
L 120.211948 292.612301 
L 126.837551 292.56123 
L 133.463154 292.765966 
L 140.088757 292.433881 
L 146.71436 292.535723 
L 153.339963 292.56123 
L 159.965566 292.256372 
L 166.591169 291.357534 
L 173.216772 292.383071 
L 179.842375 291.580072 
L 186.467978 291.82902 
L 193.093581 290.746751 
L 199.719184 291.530496 
L 206.344787 291.357534 
L 212.97039 286.812782 
L 219.595993 276.344273 
L 226.221596 286.640219 
L 232.847199 280.340812 
L 239.472801 277.747953 
L 246.098404 283.298986 
L 252.724007 283.711837 
L 259.34961 277.499004 
L 265.975213 287.688697 
L 272.600816 282.430495 
L 279.226419 285.769047 
L 285.852022 274.673501 
L 292.477625 281.527436 
L 299.103228 282.259373 
L 305.728831 281.546012 
L 312.354434 270.188984 
L 318.980037 268.311327 
L 325.60564 265.193458 
L 332.231243 265.967834 
L 338.856846 267.003495 
L 345.482449 264.232221 
L 352.108052 253.369428 
L 358.733655 260.480816 
L 365.359258 255.867582 
L 371.984861 244.049708 
L 378.610464 252.626245 
L 385.236067 240.205652 
L 391.86167 246.575794 
L 398.487273 237.53126 
L 398.487273 255.611284 
L 398.487273 255.611284 
L 391.86167 259.295711 
L 385.236067 262.140783 
L 378.610464 264.220936 
L 371.984861 264.801175 
L 365.359258 269.551752 
L 358.733655 271.513553 
L 352.108052 273.342527 
L 345.482449 274.385047 
L 338.856846 277.781281 
L 332.231243 278.642146 
L 325.60564 280.448664 
L 318.980037 282.430495 
L 312.354434 282.602464 
L 305.728831 284.129654 
L 299.103228 284.491829 
L 292.477625 285.895179 
L 285.852022 287.933497 
L 279.226419 288.202536 
L 272.600816 289.23041 
L 265.975213 289.463017 
L 259.34961 291.063017 
L 252.724007 291.779088 
L 246.098404 290.941036 
L 239.472801 292.205822 
L 232.847199 291.979251 
L 226.221596 292.05461 
L 219.595993 292.256372 
L 212.97039 293.023595 
L 206.344787 293.676154 
L 199.719184 294.10032 
L 193.093581 293.439818 
L 186.467978 293.492198 
L 179.842375 293.702513 
L 173.216772 294.42188 
L 166.591169 293.755292 
L 159.965566 293.91411 
L 153.339963 294.529731 
L 146.71436 294.529731 
L 140.088757 294.475764 
L 133.463154 293.94065 
L 126.837551 293.91411 
L 120.211948 294.127004 
L 113.586345 294.773629 
L 106.960742 293.80815 
L 100.335139 294.937185 
L 93.709536 295.239051 
L 87.083933 295.266624 
L 80.45833 295.101514 
L 73.832727 294.10032 
z
" style="fill:#2ca02c;fill-opacity:0.1;"/>
   </g>
   <g id="PolyCollection_4">
    <path clip-path="url(#p165369f411)" d="M 73.832727 294.34121 
L 73.832727 292.868788 
L 80.45833 292.740308 
L 87.083933 292.868788 
L 93.709536 293.179094 
L 100.335139 292.997746 
L 106.960742 292.510234 
L 113.586345 292.383071 
L 120.211948 292.714669 
L 126.837551 292.637865 
L 133.463154 291.160912 
L 140.088757 292.231088 
L 146.71436 292.079767 
L 153.339963 289.956624 
L 159.965566 291.979251 
L 166.591169 292.510234 
L 173.216772 291.185429 
L 179.842375 291.28367 
L 186.467978 292.104941 
L 193.093581 287.379607 
L 199.719184 291.456264 
L 206.344787 291.604887 
L 212.97039 289.626775 
L 219.595993 285.497324 
L 226.221596 290.098953 
L 232.847199 286.74797 
L 239.472801 283.39684 
L 246.098404 288.315253 
L 252.724007 282.145758 
L 259.34961 278.796303 
L 265.975213 287.116845 
L 272.600816 287.533808 
L 279.226419 287.291799 
L 285.852022 284.189755 
L 292.477625 276.02581 
L 299.103228 271.849229 
L 305.728831 271.471821 
L 312.354434 272.516144 
L 318.980037 268.020608 
L 325.60564 270.974907 
L 332.231243 263.783675 
L 338.856846 266.13434 
L 345.482449 252.926502 
L 352.108052 253.876661 
L 358.733655 257.215102 
L 365.359258 258.055115 
L 371.984861 246.528309 
L 378.610464 246.11724 
L 385.236067 244.828428 
L 391.86167 241.150734 
L 398.487273 242.379969 
L 398.487273 257.307439 
L 398.487273 257.307439 
L 391.86167 260.05791 
L 385.236067 261.603004 
L 378.610464 264.356593 
L 371.984861 266.747737 
L 365.359258 270.242618 
L 358.733655 272.616577 
L 352.108052 272.774989 
L 345.482449 275.647469 
L 338.856846 278.488669 
L 332.231243 279.002916 
L 325.60564 281.286846 
L 318.980037 283.162453 
L 312.354434 283.534299 
L 305.728831 284.55256 
L 299.103228 285.434919 
L 292.477625 285.979522 
L 285.852022 288.815602 
L 279.226419 288.701252 
L 272.600816 289.697193 
L 265.975213 289.885678 
L 259.34961 291.185429 
L 252.724007 291.754148 
L 246.098404 292.510234 
L 239.472801 292.306997 
L 232.847199 292.079767 
L 226.221596 292.332336 
L 219.595993 292.56123 
L 212.97039 292.408467 
L 206.344787 293.205079 
L 199.719184 293.153129 
L 193.093581 294.020393 
L 186.467978 293.465998 
L 179.842375 293.465998 
L 173.216772 293.623496 
L 166.591169 294.260728 
L 159.965566 293.623496 
L 153.339963 293.83461 
L 146.71436 293.86109 
L 140.088757 294.475764 
L 133.463154 293.83461 
L 126.837551 293.88759 
L 120.211948 293.967211 
L 113.586345 294.020393 
L 106.960742 294.368079 
L 100.335139 294.991875 
L 93.709536 294.233942 
L 87.083933 295.488 
L 80.45833 295.377136 
L 73.832727 294.34121 
z
" style="fill:#d62728;fill-opacity:0.1;"/>
   </g>
   <g id="matplotlib.axis_1">
    <g id="xtick_1">
     <g id="line2d_1">
      <defs>
       <path d="M 0 0 
L 0 3.5 
" id="m84c8f9460c" style="stroke:#000000;stroke-width:0.8;"/>
      </defs>
      <g>
       <use style="stroke:#000000;stroke-width:0.8;" x="73.832727" xlink:href="#m84c8f9460c" y="307.584"/>
      </g>
     </g>
     <g id="text_1">
      <!-- $\mathdefault{10^{0}}$ -->
      <defs>
       <path d="M 12.40625 8.296875 
L 28.515625 8.296875 
L 28.515625 63.921875 
L 10.984375 60.40625 
L 10.984375 69.390625 
L 28.421875 72.90625 
L 38.28125 72.90625 
L 38.28125 8.296875 
L 54.390625 8.296875 
L 54.390625 0 
L 12.40625 0 
z
" id="DejaVuSans-49"/>
       <path d="M 31.78125 66.40625 
Q 24.171875 66.40625 20.328125 58.90625 
Q 16.5 51.421875 16.5 36.375 
Q 16.5 21.390625 20.328125 13.890625 
Q 24.171875 6.390625 31.78125 6.390625 
Q 39.453125 6.390625 43.28125 13.890625 
Q 47.125 21.390625 47.125 36.375 
Q 47.125 51.421875 43.28125 58.90625 
Q 39.453125 66.40625 31.78125 66.40625 
z
M 31.78125 74.21875 
Q 44.046875 74.21875 50.515625 64.515625 
Q 56.984375 54.828125 56.984375 36.375 
Q 56.984375 17.96875 50.515625 8.265625 
Q 44.046875 -1.421875 31.78125 -1.421875 
Q 19.53125 -1.421875 13.0625 8.265625 
Q 6.59375 17.96875 6.59375 36.375 
Q 6.59375 54.828125 13.0625 64.515625 
Q 19.53125 74.21875 31.78125 74.21875 
z
" id="DejaVuSans-48"/>
      </defs>
      <g transform="translate(65.032727 322.182437)scale(0.1 -0.1)">
       <use transform="translate(0 0.765625)" xlink:href="#DejaVuSans-49"/>
       <use transform="translate(63.623047 0.765625)" xlink:href="#DejaVuSans-48"/>
       <use transform="translate(128.203125 39.046875)scale(0.7)" xlink:href="#DejaVuSans-48"/>
      </g>
     </g>
    </g>
    <g id="xtick_2">
     <g id="line2d_2">
      <g>
       <use style="stroke:#000000;stroke-width:0.8;" x="182.050909" xlink:href="#m84c8f9460c" y="307.584"/>
      </g>
     </g>
     <g id="text_2">
      <!-- $\mathdefault{10^{1}}$ -->
      <g transform="translate(173.250909 322.182437)scale(0.1 -0.1)">
       <use transform="translate(0 0.684375)" xlink:href="#DejaVuSans-49"/>
       <use transform="translate(63.623047 0.684375)" xlink:href="#DejaVuSans-48"/>
       <use transform="translate(128.203125 38.965625)scale(0.7)" xlink:href="#DejaVuSans-49"/>
      </g>
     </g>
    </g>
    <g id="xtick_3">
     <g id="line2d_3">
      <g>
       <use style="stroke:#000000;stroke-width:0.8;" x="290.269091" xlink:href="#m84c8f9460c" y="307.584"/>
      </g>
     </g>
     <g id="text_3">
      <!-- $\mathdefault{10^{2}}$ -->
      <defs>
       <path d="M 19.1875 8.296875 
L 53.609375 8.296875 
L 53.609375 0 
L 7.328125 0 
L 7.328125 8.296875 
Q 12.9375 14.109375 22.625 23.890625 
Q 32.328125 33.6875 34.8125 36.53125 
Q 39.546875 41.84375 41.421875 45.53125 
Q 43.3125 49.21875 43.3125 52.78125 
Q 43.3125 58.59375 39.234375 62.25 
Q 35.15625 65.921875 28.609375 65.921875 
Q 23.96875 65.921875 18.8125 64.3125 
Q 13.671875 62.703125 7.8125 59.421875 
L 7.8125 69.390625 
Q 13.765625 71.78125 18.9375 73 
Q 24.125 74.21875 28.421875 74.21875 
Q 39.75 74.21875 46.484375 68.546875 
Q 53.21875 62.890625 53.21875 53.421875 
Q 53.21875 48.921875 51.53125 44.890625 
Q 49.859375 40.875 45.40625 35.40625 
Q 44.1875 33.984375 37.640625 27.21875 
Q 31.109375 20.453125 19.1875 8.296875 
z
" id="DejaVuSans-50"/>
      </defs>
      <g transform="translate(281.469091 322.182437)scale(0.1 -0.1)">
       <use transform="translate(0 0.765625)" xlink:href="#DejaVuSans-49"/>
       <use transform="translate(63.623047 0.765625)" xlink:href="#DejaVuSans-48"/>
       <use transform="translate(128.203125 39.046875)scale(0.7)" xlink:href="#DejaVuSans-50"/>
      </g>
     </g>
    </g>
    <g id="xtick_4">
     <g id="line2d_4">
      <g>
       <use style="stroke:#000000;stroke-width:0.8;" x="398.487273" xlink:href="#m84c8f9460c" y="307.584"/>
      </g>
     </g>
     <g id="text_4">
      <!-- $\mathdefault{10^{3}}$ -->
      <defs>
       <path d="M 40.578125 39.3125 
Q 47.65625 37.796875 51.625 33 
Q 55.609375 28.21875 55.609375 21.1875 
Q 55.609375 10.40625 48.1875 4.484375 
Q 40.765625 -1.421875 27.09375 -1.421875 
Q 22.515625 -1.421875 17.65625 -0.515625 
Q 12.796875 0.390625 7.625 2.203125 
L 7.625 11.71875 
Q 11.71875 9.328125 16.59375 8.109375 
Q 21.484375 6.890625 26.8125 6.890625 
Q 36.078125 6.890625 40.9375 10.546875 
Q 45.796875 14.203125 45.796875 21.1875 
Q 45.796875 27.640625 41.28125 31.265625 
Q 36.765625 34.90625 28.71875 34.90625 
L 20.21875 34.90625 
L 20.21875 43.015625 
L 29.109375 43.015625 
Q 36.375 43.015625 40.234375 45.921875 
Q 44.09375 48.828125 44.09375 54.296875 
Q 44.09375 59.90625 40.109375 62.90625 
Q 36.140625 65.921875 28.71875 65.921875 
Q 24.65625 65.921875 20.015625 65.03125 
Q 15.375 64.15625 9.8125 62.3125 
L 9.8125 71.09375 
Q 15.4375 72.65625 20.34375 73.4375 
Q 25.25 74.21875 29.59375 74.21875 
Q 40.828125 74.21875 47.359375 69.109375 
Q 53.90625 64.015625 53.90625 55.328125 
Q 53.90625 49.265625 50.4375 45.09375 
Q 46.96875 40.921875 40.578125 39.3125 
z
" id="DejaVuSans-51"/>
      </defs>
      <g transform="translate(389.687273 322.182437)scale(0.1 -0.1)">
       <use transform="translate(0 0.765625)" xlink:href="#DejaVuSans-49"/>
       <use transform="translate(63.623047 0.765625)" xlink:href="#DejaVuSans-48"/>
       <use transform="translate(128.203125 39.046875)scale(0.7)" xlink:href="#DejaVuSans-51"/>
      </g>
     </g>
    </g>
    <g id="xtick_5">
     <g id="line2d_5">
      <defs>
       <path d="M 0 0 
L 0 2 
" id="m1222e945a0" style="stroke:#000000;stroke-width:0.6;"/>
      </defs>
      <g>
       <use style="stroke:#000000;stroke-width:0.6;" x="63.345302" xlink:href="#m1222e945a0" y="307.584"/>
      </g>
     </g>
    </g>
    <g id="xtick_6">
     <g id="line2d_6">
      <g>
       <use style="stroke:#000000;stroke-width:0.6;" x="68.880935" xlink:href="#m1222e945a0" y="307.584"/>
      </g>
     </g>
    </g>
    <g id="xtick_7">
     <g id="line2d_7">
      <g>
       <use style="stroke:#000000;stroke-width:0.6;" x="106.409646" xlink:href="#m1222e945a0" y="307.584"/>
      </g>
     </g>
    </g>
    <g id="xtick_8">
     <g id="line2d_8">
      <g>
       <use style="stroke:#000000;stroke-width:0.6;" x="125.465922" xlink:href="#m1222e945a0" y="307.584"/>
      </g>
     </g>
    </g>
    <g id="xtick_9">
     <g id="line2d_9">
      <g>
       <use style="stroke:#000000;stroke-width:0.6;" x="138.986565" xlink:href="#m1222e945a0" y="307.584"/>
      </g>
     </g>
    </g>
    <g id="xtick_10">
     <g id="line2d_10">
      <g>
       <use style="stroke:#000000;stroke-width:0.6;" x="149.47399" xlink:href="#m1222e945a0" y="307.584"/>
      </g>
     </g>
    </g>
    <g id="xtick_11">
     <g id="line2d_11">
      <g>
       <use style="stroke:#000000;stroke-width:0.6;" x="158.042841" xlink:href="#m1222e945a0" y="307.584"/>
      </g>
     </g>
    </g>
    <g id="xtick_12">
     <g id="line2d_12">
      <g>
       <use style="stroke:#000000;stroke-width:0.6;" x="165.287701" xlink:href="#m1222e945a0" y="307.584"/>
      </g>
     </g>
    </g>
    <g id="xtick_13">
     <g id="line2d_13">
      <g>
       <use style="stroke:#000000;stroke-width:0.6;" x="171.563484" xlink:href="#m1222e945a0" y="307.584"/>
      </g>
     </g>
    </g>
    <g id="xtick_14">
     <g id="line2d_14">
      <g>
       <use style="stroke:#000000;stroke-width:0.6;" x="177.099117" xlink:href="#m1222e945a0" y="307.584"/>
      </g>
     </g>
    </g>
    <g id="xtick_15">
     <g id="line2d_15">
      <g>
       <use style="stroke:#000000;stroke-width:0.6;" x="214.627828" xlink:href="#m1222e945a0" y="307.584"/>
      </g>
     </g>
    </g>
    <g id="xtick_16">
     <g id="line2d_16">
      <g>
       <use style="stroke:#000000;stroke-width:0.6;" x="233.684104" xlink:href="#m1222e945a0" y="307.584"/>
      </g>
     </g>
    </g>
    <g id="xtick_17">
     <g id="line2d_17">
      <g>
       <use style="stroke:#000000;stroke-width:0.6;" x="247.204747" xlink:href="#m1222e945a0" y="307.584"/>
      </g>
     </g>
    </g>
    <g id="xtick_18">
     <g id="line2d_18">
      <g>
       <use style="stroke:#000000;stroke-width:0.6;" x="257.692172" xlink:href="#m1222e945a0" y="307.584"/>
      </g>
     </g>
    </g>
    <g id="xtick_19">
     <g id="line2d_19">
      <g>
       <use style="stroke:#000000;stroke-width:0.6;" x="266.261023" xlink:href="#m1222e945a0" y="307.584"/>
      </g>
     </g>
    </g>
    <g id="xtick_20">
     <g id="line2d_20">
      <g>
       <use style="stroke:#000000;stroke-width:0.6;" x="273.505882" xlink:href="#m1222e945a0" y="307.584"/>
      </g>
     </g>
    </g>
    <g id="xtick_21">
     <g id="line2d_21">
      <g>
       <use style="stroke:#000000;stroke-width:0.6;" x="279.781666" xlink:href="#m1222e945a0" y="307.584"/>
      </g>
     </g>
    </g>
    <g id="xtick_22">
     <g id="line2d_22">
      <g>
       <use style="stroke:#000000;stroke-width:0.6;" x="285.317298" xlink:href="#m1222e945a0" y="307.584"/>
      </g>
     </g>
    </g>
    <g id="xtick_23">
     <g id="line2d_23">
      <g>
       <use style="stroke:#000000;stroke-width:0.6;" x="322.84601" xlink:href="#m1222e945a0" y="307.584"/>
      </g>
     </g>
    </g>
    <g id="xtick_24">
     <g id="line2d_24">
      <g>
       <use style="stroke:#000000;stroke-width:0.6;" x="341.902286" xlink:href="#m1222e945a0" y="307.584"/>
      </g>
     </g>
    </g>
    <g id="xtick_25">
     <g id="line2d_25">
      <g>
       <use style="stroke:#000000;stroke-width:0.6;" x="355.422929" xlink:href="#m1222e945a0" y="307.584"/>
      </g>
     </g>
    </g>
    <g id="xtick_26">
     <g id="line2d_26">
      <g>
       <use style="stroke:#000000;stroke-width:0.6;" x="365.910354" xlink:href="#m1222e945a0" y="307.584"/>
      </g>
     </g>
    </g>
    <g id="xtick_27">
     <g id="line2d_27">
      <g>
       <use style="stroke:#000000;stroke-width:0.6;" x="374.479204" xlink:href="#m1222e945a0" y="307.584"/>
      </g>
     </g>
    </g>
    <g id="xtick_28">
     <g id="line2d_28">
      <g>
       <use style="stroke:#000000;stroke-width:0.6;" x="381.724064" xlink:href="#m1222e945a0" y="307.584"/>
      </g>
     </g>
    </g>
    <g id="xtick_29">
     <g id="line2d_29">
      <g>
       <use style="stroke:#000000;stroke-width:0.6;" x="387.999847" xlink:href="#m1222e945a0" y="307.584"/>
      </g>
     </g>
    </g>
    <g id="xtick_30">
     <g id="line2d_30">
      <g>
       <use style="stroke:#000000;stroke-width:0.6;" x="393.53548" xlink:href="#m1222e945a0" y="307.584"/>
      </g>
     </g>
    </g>
    <g id="text_5">
     <!-- len(flavours) -->
     <defs>
      <path d="M 9.421875 75.984375 
L 18.40625 75.984375 
L 18.40625 0 
L 9.421875 0 
z
" id="DejaVuSans-108"/>
      <path d="M 56.203125 29.59375 
L 56.203125 25.203125 
L 14.890625 25.203125 
Q 15.484375 15.921875 20.484375 11.0625 
Q 25.484375 6.203125 34.421875 6.203125 
Q 39.59375 6.203125 44.453125 7.46875 
Q 49.3125 8.734375 54.109375 11.28125 
L 54.109375 2.78125 
Q 49.265625 0.734375 44.1875 -0.34375 
Q 39.109375 -1.421875 33.890625 -1.421875 
Q 20.796875 -1.421875 13.15625 6.1875 
Q 5.515625 13.8125 5.515625 26.8125 
Q 5.515625 40.234375 12.765625 48.109375 
Q 20.015625 56 32.328125 56 
Q 43.359375 56 49.78125 48.890625 
Q 56.203125 41.796875 56.203125 29.59375 
z
M 47.21875 32.234375 
Q 47.125 39.59375 43.09375 43.984375 
Q 39.0625 48.390625 32.421875 48.390625 
Q 24.90625 48.390625 20.390625 44.140625 
Q 15.875 39.890625 15.1875 32.171875 
z
" id="DejaVuSans-101"/>
      <path d="M 54.890625 33.015625 
L 54.890625 0 
L 45.90625 0 
L 45.90625 32.71875 
Q 45.90625 40.484375 42.875 44.328125 
Q 39.84375 48.1875 33.796875 48.1875 
Q 26.515625 48.1875 22.3125 43.546875 
Q 18.109375 38.921875 18.109375 30.90625 
L 18.109375 0 
L 9.078125 0 
L 9.078125 54.6875 
L 18.109375 54.6875 
L 18.109375 46.1875 
Q 21.34375 51.125 25.703125 53.5625 
Q 30.078125 56 35.796875 56 
Q 45.21875 56 50.046875 50.171875 
Q 54.890625 44.34375 54.890625 33.015625 
z
" id="DejaVuSans-110"/>
      <path d="M 31 75.875 
Q 24.46875 64.65625 21.28125 53.65625 
Q 18.109375 42.671875 18.109375 31.390625 
Q 18.109375 20.125 21.3125 9.0625 
Q 24.515625 -2 31 -13.1875 
L 23.1875 -13.1875 
Q 15.875 -1.703125 12.234375 9.375 
Q 8.59375 20.453125 8.59375 31.390625 
Q 8.59375 42.28125 12.203125 53.3125 
Q 15.828125 64.359375 23.1875 75.875 
z
" id="DejaVuSans-40"/>
      <path d="M 37.109375 75.984375 
L 37.109375 68.5 
L 28.515625 68.5 
Q 23.6875 68.5 21.796875 66.546875 
Q 19.921875 64.59375 19.921875 59.515625 
L 19.921875 54.6875 
L 34.71875 54.6875 
L 34.71875 47.703125 
L 19.921875 47.703125 
L 19.921875 0 
L 10.890625 0 
L 10.890625 47.703125 
L 2.296875 47.703125 
L 2.296875 54.6875 
L 10.890625 54.6875 
L 10.890625 58.5 
Q 10.890625 67.625 15.140625 71.796875 
Q 19.390625 75.984375 28.609375 75.984375 
z
" id="DejaVuSans-102"/>
      <path d="M 34.28125 27.484375 
Q 23.390625 27.484375 19.1875 25 
Q 14.984375 22.515625 14.984375 16.5 
Q 14.984375 11.71875 18.140625 8.90625 
Q 21.296875 6.109375 26.703125 6.109375 
Q 34.1875 6.109375 38.703125 11.40625 
Q 43.21875 16.703125 43.21875 25.484375 
L 43.21875 27.484375 
z
M 52.203125 31.203125 
L 52.203125 0 
L 43.21875 0 
L 43.21875 8.296875 
Q 40.140625 3.328125 35.546875 0.953125 
Q 30.953125 -1.421875 24.3125 -1.421875 
Q 15.921875 -1.421875 10.953125 3.296875 
Q 6 8.015625 6 15.921875 
Q 6 25.140625 12.171875 29.828125 
Q 18.359375 34.515625 30.609375 34.515625 
L 43.21875 34.515625 
L 43.21875 35.40625 
Q 43.21875 41.609375 39.140625 45 
Q 35.0625 48.390625 27.6875 48.390625 
Q 23 48.390625 18.546875 47.265625 
Q 14.109375 46.140625 10.015625 43.890625 
L 10.015625 52.203125 
Q 14.9375 54.109375 19.578125 55.046875 
Q 24.21875 56 28.609375 56 
Q 40.484375 56 46.34375 49.84375 
Q 52.203125 43.703125 52.203125 31.203125 
z
" id="DejaVuSans-97"/>
      <path d="M 2.984375 54.6875 
L 12.5 54.6875 
L 29.59375 8.796875 
L 46.6875 54.6875 
L 56.203125 54.6875 
L 35.6875 0 
L 23.484375 0 
z
" id="DejaVuSans-118"/>
      <path d="M 30.609375 48.390625 
Q 23.390625 48.390625 19.1875 42.75 
Q 14.984375 37.109375 14.984375 27.296875 
Q 14.984375 17.484375 19.15625 11.84375 
Q 23.34375 6.203125 30.609375 6.203125 
Q 37.796875 6.203125 41.984375 11.859375 
Q 46.1875 17.53125 46.1875 27.296875 
Q 46.1875 37.015625 41.984375 42.703125 
Q 37.796875 48.390625 30.609375 48.390625 
z
M 30.609375 56 
Q 42.328125 56 49.015625 48.375 
Q 55.71875 40.765625 55.71875 27.296875 
Q 55.71875 13.875 49.015625 6.21875 
Q 42.328125 -1.421875 30.609375 -1.421875 
Q 18.84375 -1.421875 12.171875 6.21875 
Q 5.515625 13.875 5.515625 27.296875 
Q 5.515625 40.765625 12.171875 48.375 
Q 18.84375 56 30.609375 56 
z
" id="DejaVuSans-111"/>
      <path d="M 8.5 21.578125 
L 8.5 54.6875 
L 17.484375 54.6875 
L 17.484375 21.921875 
Q 17.484375 14.15625 20.5 10.265625 
Q 23.53125 6.390625 29.59375 6.390625 
Q 36.859375 6.390625 41.078125 11.03125 
Q 45.3125 15.671875 45.3125 23.6875 
L 45.3125 54.6875 
L 54.296875 54.6875 
L 54.296875 0 
L 45.3125 0 
L 45.3125 8.40625 
Q 42.046875 3.421875 37.71875 1 
Q 33.40625 -1.421875 27.6875 -1.421875 
Q 18.265625 -1.421875 13.375 4.4375 
Q 8.5 10.296875 8.5 21.578125 
z
M 31.109375 56 
z
" id="DejaVuSans-117"/>
      <path d="M 41.109375 46.296875 
Q 39.59375 47.171875 37.8125 47.578125 
Q 36.03125 48 33.890625 48 
Q 26.265625 48 22.1875 43.046875 
Q 18.109375 38.09375 18.109375 28.8125 
L 18.109375 0 
L 9.078125 0 
L 9.078125 54.6875 
L 18.109375 54.6875 
L 18.109375 46.1875 
Q 20.953125 51.171875 25.484375 53.578125 
Q 30.03125 56 36.53125 56 
Q 37.453125 56 38.578125 55.875 
Q 39.703125 55.765625 41.0625 55.515625 
z
" id="DejaVuSans-114"/>
      <path d="M 44.28125 53.078125 
L 44.28125 44.578125 
Q 40.484375 46.53125 36.375 47.5 
Q 32.28125 48.484375 27.875 48.484375 
Q 21.1875 48.484375 17.84375 46.4375 
Q 14.5 44.390625 14.5 40.28125 
Q 14.5 37.15625 16.890625 35.375 
Q 19.28125 33.59375 26.515625 31.984375 
L 29.59375 31.296875 
Q 39.15625 29.25 43.1875 25.515625 
Q 47.21875 21.78125 47.21875 15.09375 
Q 47.21875 7.46875 41.1875 3.015625 
Q 35.15625 -1.421875 24.609375 -1.421875 
Q 20.21875 -1.421875 15.453125 -0.5625 
Q 10.6875 0.296875 5.421875 2 
L 5.421875 11.28125 
Q 10.40625 8.6875 15.234375 7.390625 
Q 20.0625 6.109375 24.8125 6.109375 
Q 31.15625 6.109375 34.5625 8.28125 
Q 37.984375 10.453125 37.984375 14.40625 
Q 37.984375 18.0625 35.515625 20.015625 
Q 33.0625 21.96875 24.703125 23.78125 
L 21.578125 24.515625 
Q 13.234375 26.265625 9.515625 29.90625 
Q 5.8125 33.546875 5.8125 39.890625 
Q 5.8125 47.609375 11.28125 51.796875 
Q 16.75 56 26.8125 56 
Q 31.78125 56 36.171875 55.265625 
Q 40.578125 54.546875 44.28125 53.078125 
z
" id="DejaVuSans-115"/>
      <path d="M 8.015625 75.875 
L 15.828125 75.875 
Q 23.140625 64.359375 26.78125 53.3125 
Q 30.421875 42.28125 30.421875 31.390625 
Q 30.421875 20.453125 26.78125 9.375 
Q 23.140625 -1.703125 15.828125 -13.1875 
L 8.015625 -13.1875 
Q 14.5 -2 17.703125 9.0625 
Q 20.90625 20.125 20.90625 31.390625 
Q 20.90625 42.671875 17.703125 53.65625 
Q 14.5 64.65625 8.015625 75.875 
z
" id="DejaVuSans-41"/>
     </defs>
     <g transform="translate(204.563125 335.860562)scale(0.1 -0.1)">
      <use xlink:href="#DejaVuSans-108"/>
      <use x="27.783203" xlink:href="#DejaVuSans-101"/>
      <use x="89.306641" xlink:href="#DejaVuSans-110"/>
      <use x="152.685547" xlink:href="#DejaVuSans-40"/>
      <use x="191.699219" xlink:href="#DejaVuSans-102"/>
      <use x="226.904297" xlink:href="#DejaVuSans-108"/>
      <use x="254.6875" xlink:href="#DejaVuSans-97"/>
      <use x="315.966797" xlink:href="#DejaVuSans-118"/>
      <use x="375.146484" xlink:href="#DejaVuSans-111"/>
      <use x="436.328125" xlink:href="#DejaVuSans-117"/>
      <use x="499.707031" xlink:href="#DejaVuSans-114"/>
      <use x="540.820312" xlink:href="#DejaVuSans-115"/>
      <use x="592.919922" xlink:href="#DejaVuSans-41"/>
     </g>
    </g>
   </g>
   <g id="matplotlib.axis_2">
    <g id="ytick_1">
     <g id="line2d_31">
      <defs>
       <path d="M 0 0 
L -3.5 0 
" id="m4218abf5c5" style="stroke:#000000;stroke-width:0.8;"/>
      </defs>
      <g>
       <use style="stroke:#000000;stroke-width:0.8;" x="57.6" xlink:href="#m4218abf5c5" y="303.265142"/>
      </g>
     </g>
     <g id="text_6">
      <!-- $\mathdefault{10^{-4}}$ -->
      <defs>
       <path d="M 10.59375 35.5 
L 73.1875 35.5 
L 73.1875 27.203125 
L 10.59375 27.203125 
z
" id="DejaVuSans-8722"/>
       <path d="M 37.796875 64.3125 
L 12.890625 25.390625 
L 37.796875 25.390625 
z
M 35.203125 72.90625 
L 47.609375 72.90625 
L 47.609375 25.390625 
L 58.015625 25.390625 
L 58.015625 17.1875 
L 47.609375 17.1875 
L 47.609375 0 
L 37.796875 0 
L 37.796875 17.1875 
L 4.890625 17.1875 
L 4.890625 26.703125 
z
" id="DejaVuSans-52"/>
      </defs>
      <g transform="translate(27.1 307.064361)scale(0.1 -0.1)">
       <use transform="translate(0 0.684375)" xlink:href="#DejaVuSans-49"/>
       <use transform="translate(63.623047 0.684375)" xlink:href="#DejaVuSans-48"/>
       <use transform="translate(128.203125 38.965625)scale(0.7)" xlink:href="#DejaVuSans-8722"/>
       <use transform="translate(186.855469 38.965625)scale(0.7)" xlink:href="#DejaVuSans-52"/>
      </g>
     </g>
    </g>
    <g id="ytick_2">
     <g id="line2d_32">
      <g>
       <use style="stroke:#000000;stroke-width:0.8;" x="57.6" xlink:href="#m4218abf5c5" y="223.30054"/>
      </g>
     </g>
     <g id="text_7">
      <!-- $\mathdefault{10^{-3}}$ -->
      <g transform="translate(27.1 227.099758)scale(0.1 -0.1)">
       <use transform="translate(0 0.765625)" xlink:href="#DejaVuSans-49"/>
       <use transform="translate(63.623047 0.765625)" xlink:href="#DejaVuSans-48"/>
       <use transform="translate(128.203125 39.046875)scale(0.7)" xlink:href="#DejaVuSans-8722"/>
       <use transform="translate(186.855469 39.046875)scale(0.7)" xlink:href="#DejaVuSans-51"/>
      </g>
     </g>
    </g>
    <g id="ytick_3">
     <g id="line2d_33">
      <g>
       <use style="stroke:#000000;stroke-width:0.8;" x="57.6" xlink:href="#m4218abf5c5" y="143.335937"/>
      </g>
     </g>
     <g id="text_8">
      <!-- $\mathdefault{10^{-2}}$ -->
      <g transform="translate(27.1 147.135156)scale(0.1 -0.1)">
       <use transform="translate(0 0.765625)" xlink:href="#DejaVuSans-49"/>
       <use transform="translate(63.623047 0.765625)" xlink:href="#DejaVuSans-48"/>
       <use transform="translate(128.203125 39.046875)scale(0.7)" xlink:href="#DejaVuSans-8722"/>
       <use transform="translate(186.855469 39.046875)scale(0.7)" xlink:href="#DejaVuSans-50"/>
      </g>
     </g>
    </g>
    <g id="ytick_4">
     <g id="line2d_34">
      <g>
       <use style="stroke:#000000;stroke-width:0.8;" x="57.6" xlink:href="#m4218abf5c5" y="63.371334"/>
      </g>
     </g>
     <g id="text_9">
      <!-- $\mathdefault{10^{-1}}$ -->
      <g transform="translate(27.1 67.170553)scale(0.1 -0.1)">
       <use transform="translate(0 0.684375)" xlink:href="#DejaVuSans-49"/>
       <use transform="translate(63.623047 0.684375)" xlink:href="#DejaVuSans-48"/>
       <use transform="translate(128.203125 38.965625)scale(0.7)" xlink:href="#DejaVuSans-8722"/>
       <use transform="translate(186.855469 38.965625)scale(0.7)" xlink:href="#DejaVuSans-49"/>
      </g>
     </g>
    </g>
    <g id="ytick_5">
     <g id="line2d_35">
      <defs>
       <path d="M 0 0 
L -2 0 
" id="m1be27ae1c5" style="stroke:#000000;stroke-width:0.6;"/>
      </defs>
      <g>
       <use style="stroke:#000000;stroke-width:0.6;" x="57.6" xlink:href="#m1be27ae1c5" y="306.924122"/>
      </g>
     </g>
    </g>
    <g id="ytick_6">
     <g id="line2d_36">
      <g>
       <use style="stroke:#000000;stroke-width:0.6;" x="57.6" xlink:href="#m1be27ae1c5" y="279.193398"/>
      </g>
     </g>
    </g>
    <g id="ytick_7">
     <g id="line2d_37">
      <g>
       <use style="stroke:#000000;stroke-width:0.6;" x="57.6" xlink:href="#m1be27ae1c5" y="265.112331"/>
      </g>
     </g>
    </g>
    <g id="ytick_8">
     <g id="line2d_38">
      <g>
       <use style="stroke:#000000;stroke-width:0.6;" x="57.6" xlink:href="#m1be27ae1c5" y="255.121654"/>
      </g>
     </g>
    </g>
    <g id="ytick_9">
     <g id="line2d_39">
      <g>
       <use style="stroke:#000000;stroke-width:0.6;" x="57.6" xlink:href="#m1be27ae1c5" y="247.372284"/>
      </g>
     </g>
    </g>
    <g id="ytick_10">
     <g id="line2d_40">
      <g>
       <use style="stroke:#000000;stroke-width:0.6;" x="57.6" xlink:href="#m1be27ae1c5" y="241.040587"/>
      </g>
     </g>
    </g>
    <g id="ytick_11">
     <g id="line2d_41">
      <g>
       <use style="stroke:#000000;stroke-width:0.6;" x="57.6" xlink:href="#m1be27ae1c5" y="235.687213"/>
      </g>
     </g>
    </g>
    <g id="ytick_12">
     <g id="line2d_42">
      <g>
       <use style="stroke:#000000;stroke-width:0.6;" x="57.6" xlink:href="#m1be27ae1c5" y="231.04991"/>
      </g>
     </g>
    </g>
    <g id="ytick_13">
     <g id="line2d_43">
      <g>
       <use style="stroke:#000000;stroke-width:0.6;" x="57.6" xlink:href="#m1be27ae1c5" y="226.959519"/>
      </g>
     </g>
    </g>
    <g id="ytick_14">
     <g id="line2d_44">
      <g>
       <use style="stroke:#000000;stroke-width:0.6;" x="57.6" xlink:href="#m1be27ae1c5" y="199.228796"/>
      </g>
     </g>
    </g>
    <g id="ytick_15">
     <g id="line2d_45">
      <g>
       <use style="stroke:#000000;stroke-width:0.6;" x="57.6" xlink:href="#m1be27ae1c5" y="185.147728"/>
      </g>
     </g>
    </g>
    <g id="ytick_16">
     <g id="line2d_46">
      <g>
       <use style="stroke:#000000;stroke-width:0.6;" x="57.6" xlink:href="#m1be27ae1c5" y="175.157052"/>
      </g>
     </g>
    </g>
    <g id="ytick_17">
     <g id="line2d_47">
      <g>
       <use style="stroke:#000000;stroke-width:0.6;" x="57.6" xlink:href="#m1be27ae1c5" y="167.407681"/>
      </g>
     </g>
    </g>
    <g id="ytick_18">
     <g id="line2d_48">
      <g>
       <use style="stroke:#000000;stroke-width:0.6;" x="57.6" xlink:href="#m1be27ae1c5" y="161.075984"/>
      </g>
     </g>
    </g>
    <g id="ytick_19">
     <g id="line2d_49">
      <g>
       <use style="stroke:#000000;stroke-width:0.6;" x="57.6" xlink:href="#m1be27ae1c5" y="155.722611"/>
      </g>
     </g>
    </g>
    <g id="ytick_20">
     <g id="line2d_50">
      <g>
       <use style="stroke:#000000;stroke-width:0.6;" x="57.6" xlink:href="#m1be27ae1c5" y="151.085308"/>
      </g>
     </g>
    </g>
    <g id="ytick_21">
     <g id="line2d_51">
      <g>
       <use style="stroke:#000000;stroke-width:0.6;" x="57.6" xlink:href="#m1be27ae1c5" y="146.994917"/>
      </g>
     </g>
    </g>
    <g id="ytick_22">
     <g id="line2d_52">
      <g>
       <use style="stroke:#000000;stroke-width:0.6;" x="57.6" xlink:href="#m1be27ae1c5" y="119.264193"/>
      </g>
     </g>
    </g>
    <g id="ytick_23">
     <g id="line2d_53">
      <g>
       <use style="stroke:#000000;stroke-width:0.6;" x="57.6" xlink:href="#m1be27ae1c5" y="105.183125"/>
      </g>
     </g>
    </g>
    <g id="ytick_24">
     <g id="line2d_54">
      <g>
       <use style="stroke:#000000;stroke-width:0.6;" x="57.6" xlink:href="#m1be27ae1c5" y="95.192449"/>
      </g>
     </g>
    </g>
    <g id="ytick_25">
     <g id="line2d_55">
      <g>
       <use style="stroke:#000000;stroke-width:0.6;" x="57.6" xlink:href="#m1be27ae1c5" y="87.443078"/>
      </g>
     </g>
    </g>
    <g id="ytick_26">
     <g id="line2d_56">
      <g>
       <use style="stroke:#000000;stroke-width:0.6;" x="57.6" xlink:href="#m1be27ae1c5" y="81.111381"/>
      </g>
     </g>
    </g>
    <g id="ytick_27">
     <g id="line2d_57">
      <g>
       <use style="stroke:#000000;stroke-width:0.6;" x="57.6" xlink:href="#m1be27ae1c5" y="75.758008"/>
      </g>
     </g>
    </g>
    <g id="ytick_28">
     <g id="line2d_58">
      <g>
       <use style="stroke:#000000;stroke-width:0.6;" x="57.6" xlink:href="#m1be27ae1c5" y="71.120705"/>
      </g>
     </g>
    </g>
    <g id="ytick_29">
     <g id="line2d_59">
      <g>
       <use style="stroke:#000000;stroke-width:0.6;" x="57.6" xlink:href="#m1be27ae1c5" y="67.030314"/>
      </g>
     </g>
    </g>
    <g id="text_10">
     <!-- Time [s] -->
     <defs>
      <path d="M -0.296875 72.90625 
L 61.375 72.90625 
L 61.375 64.59375 
L 35.5 64.59375 
L 35.5 0 
L 25.59375 0 
L 25.59375 64.59375 
L -0.296875 64.59375 
z
" id="DejaVuSans-84"/>
      <path d="M 9.421875 54.6875 
L 18.40625 54.6875 
L 18.40625 0 
L 9.421875 0 
z
M 9.421875 75.984375 
L 18.40625 75.984375 
L 18.40625 64.59375 
L 9.421875 64.59375 
z
" id="DejaVuSans-105"/>
      <path d="M 52 44.1875 
Q 55.375 50.25 60.0625 53.125 
Q 64.75 56 71.09375 56 
Q 79.640625 56 84.28125 50.015625 
Q 88.921875 44.046875 88.921875 33.015625 
L 88.921875 0 
L 79.890625 0 
L 79.890625 32.71875 
Q 79.890625 40.578125 77.09375 44.375 
Q 74.3125 48.1875 68.609375 48.1875 
Q 61.625 48.1875 57.5625 43.546875 
Q 53.515625 38.921875 53.515625 30.90625 
L 53.515625 0 
L 44.484375 0 
L 44.484375 32.71875 
Q 44.484375 40.625 41.703125 44.40625 
Q 38.921875 48.1875 33.109375 48.1875 
Q 26.21875 48.1875 22.15625 43.53125 
Q 18.109375 38.875 18.109375 30.90625 
L 18.109375 0 
L 9.078125 0 
L 9.078125 54.6875 
L 18.109375 54.6875 
L 18.109375 46.1875 
Q 21.1875 51.21875 25.484375 53.609375 
Q 29.78125 56 35.6875 56 
Q 41.65625 56 45.828125 52.96875 
Q 50 49.953125 52 44.1875 
z
" id="DejaVuSans-109"/>
      <path id="DejaVuSans-32"/>
      <path d="M 8.59375 75.984375 
L 29.296875 75.984375 
L 29.296875 69 
L 17.578125 69 
L 17.578125 -6.203125 
L 29.296875 -6.203125 
L 29.296875 -13.1875 
L 8.59375 -13.1875 
z
" id="DejaVuSans-91"/>
      <path d="M 30.421875 75.984375 
L 30.421875 -13.1875 
L 9.71875 -13.1875 
L 9.71875 -6.203125 
L 21.390625 -6.203125 
L 21.390625 69 
L 9.71875 69 
L 9.71875 75.984375 
z
" id="DejaVuSans-93"/>
     </defs>
     <g transform="translate(21.020312 195.010812)rotate(-90)scale(0.1 -0.1)">
      <use xlink:href="#DejaVuSans-84"/>
      <use x="61.037109" xlink:href="#DejaVuSans-105"/>
      <use x="88.820312" xlink:href="#DejaVuSans-109"/>
      <use x="186.232422" xlink:href="#DejaVuSans-101"/>
      <use x="247.755859" xlink:href="#DejaVuSans-32"/>
      <use x="279.542969" xlink:href="#DejaVuSans-91"/>
      <use x="318.556641" xlink:href="#DejaVuSans-115"/>
      <use x="370.65625" xlink:href="#DejaVuSans-93"/>
     </g>
    </g>
   </g>
   <g id="line2d_60">
    <path clip-path="url(#p165369f411)" d="M 73.832727 290.457348 
L 80.45833 295.321836 
L 87.083933 294.394969 
L 93.709536 295.460251 
L 100.335139 294.502737 
L 106.960742 294.047015 
L 113.586345 294.909872 
L 120.211948 294.180432 
L 126.837551 294.020393 
L 133.463154 293.967211 
L 140.088757 293.967211 
L 146.71436 294.127004 
L 153.339963 293.83461 
L 159.965566 293.94065 
L 166.591169 293.702513 
L 173.216772 293.570917 
L 179.842375 293.755292 
L 186.467978 293.728892 
L 193.093581 293.335293 
L 199.719184 293.179094 
L 206.344787 292.868788 
L 212.97039 293.623496 
L 219.595993 293.597196 
L 226.221596 292.408467 
L 232.847199 293.153129 
L 239.472801 292.612301 
L 246.098404 291.431555 
L 252.724007 291.82902 
L 259.34961 290.770978 
L 265.975213 291.038587 
L 272.600816 290.289637 
L 279.226419 289.091589 
L 285.852022 288.610042 
L 292.477625 285.145171 
L 299.103228 284.431203 
L 305.728831 283.007069 
L 312.354434 282.392395 
L 318.980037 281.732323 
L 325.60564 280.520752 
L 332.231243 279.665422 
L 338.856846 277.664772 
L 345.482449 274.204092 
L 352.108052 272.861701 
L 358.733655 271.08472 
L 365.359258 268.874361 
L 371.984861 265.873046 
L 378.610464 263.739137 
L 385.236067 261.259416 
L 391.86167 259.227242 
L 398.487273 255.903082 
" style="fill:none;stroke:#1f77b4;stroke-linecap:square;stroke-width:1.5;"/>
   </g>
   <g id="line2d_61">
    <path clip-path="url(#p165369f411)" d="M 73.832727 292.946105 
L 80.45833 294.233942 
L 87.083933 293.413657 
L 93.709536 294.287535 
L 100.335139 293.439818 
L 106.960742 271.208675 
L 113.586345 272.004172 
L 120.211948 271.208675 
L 126.837551 257.791593 
L 133.463154 257.866681 
L 140.088757 248.15904 
L 146.71436 249.175547 
L 153.339963 240.781097 
L 159.965566 234.502102 
L 166.591169 229.190537 
L 173.216772 224.545005 
L 179.842375 220.496233 
L 186.467978 216.92835 
L 193.093581 210.682998 
L 199.719184 205.129081 
L 206.344787 200.869662 
L 212.97039 195.35206 
L 219.595993 189.824743 
L 226.221596 185.467538 
L 232.847199 180.086303 
L 239.472801 175.816157 
L 246.098404 169.976508 
L 252.724007 165.797398 
L 259.34961 160.686901 
L 265.975213 155.470016 
L 272.600816 150.64618 
L 279.226419 145.351274 
L 285.852022 140.40373 
L 292.477625 135.672521 
L 299.103228 130.616156 
L 305.728831 125.895704 
L 312.354434 121.008249 
L 318.980037 116.358487 
L 325.60564 110.951813 
L 332.231243 106.191308 
L 338.856846 101.404678 
L 345.482449 96.323804 
L 352.108052 91.274118 
L 358.733655 86.441379 
L 365.359258 81.526598 
L 371.984861 76.782163 
L 378.610464 71.652186 
L 385.236067 66.689762 
L 391.86167 61.860592 
L 398.487273 56.971464 
" style="fill:none;stroke:#ff7f0e;stroke-linecap:square;stroke-width:1.5;"/>
   </g>
   <g id="line2d_62">
    <path clip-path="url(#p165369f411)" d="M 73.832727 294.10032 
L 80.45833 295.101514 
L 87.083933 295.266624 
L 93.709536 295.239051 
L 100.335139 294.937185 
L 106.960742 293.80815 
L 113.586345 294.773629 
L 120.211948 294.127004 
L 126.837551 293.91411 
L 133.463154 293.94065 
L 140.088757 294.475764 
L 146.71436 294.529731 
L 153.339963 294.529731 
L 159.965566 293.91411 
L 166.591169 293.755292 
L 173.216772 294.42188 
L 179.842375 293.702513 
L 186.467978 293.492198 
L 193.093581 293.439818 
L 199.719184 293.257106 
L 206.344787 293.676154 
L 212.97039 293.023595 
L 219.595993 292.256372 
L 226.221596 292.05461 
L 232.847199 291.979251 
L 239.472801 292.205822 
L 246.098404 290.941036 
L 252.724007 291.779088 
L 259.34961 291.063017 
L 265.975213 289.463017 
L 272.600816 289.23041 
L 279.226419 288.202536 
L 285.852022 287.933497 
L 292.477625 285.895179 
L 299.103228 284.491829 
L 305.728831 284.129654 
L 312.354434 282.602464 
L 318.980037 282.430495 
L 325.60564 280.448664 
L 332.231243 278.642146 
L 338.856846 277.781281 
L 345.482449 274.385047 
L 352.108052 273.342527 
L 358.733655 271.513553 
L 365.359258 269.551752 
L 371.984861 264.801175 
L 378.610464 264.220936 
L 385.236067 262.140783 
L 391.86167 259.295711 
L 398.487273 255.611284 
" style="fill:none;stroke:#2ca02c;stroke-linecap:square;stroke-width:1.5;"/>
   </g>
   <g id="line2d_63">
    <path clip-path="url(#p165369f411)" d="M 73.832727 294.34121 
L 80.45833 295.377136 
L 87.083933 295.488 
L 93.709536 294.233942 
L 100.335139 294.991875 
L 106.960742 294.368079 
L 113.586345 294.020393 
L 120.211948 293.967211 
L 126.837551 293.88759 
L 133.463154 293.83461 
L 140.088757 294.475764 
L 146.71436 293.86109 
L 153.339963 293.83461 
L 159.965566 293.623496 
L 166.591169 294.260728 
L 173.216772 293.623496 
L 179.842375 293.465998 
L 186.467978 293.465998 
L 193.093581 294.020393 
L 199.719184 293.153129 
L 206.344787 293.205079 
L 212.97039 292.408467 
L 219.595993 292.56123 
L 226.221596 292.332336 
L 232.847199 292.079767 
L 239.472801 292.306997 
L 246.098404 292.510234 
L 252.724007 291.754148 
L 259.34961 291.185429 
L 265.975213 289.885678 
L 272.600816 289.697193 
L 279.226419 288.701252 
L 285.852022 288.815602 
L 292.477625 285.979522 
L 299.103228 285.434919 
L 305.728831 284.55256 
L 312.354434 283.534299 
L 318.980037 283.162453 
L 325.60564 281.286846 
L 332.231243 279.002916 
L 338.856846 278.488669 
L 345.482449 275.647469 
L 352.108052 272.774989 
L 358.733655 272.616577 
L 365.359258 270.242618 
L 371.984861 266.747737 
L 378.610464 264.356593 
L 385.236067 261.603004 
L 391.86167 260.05791 
L 398.487273 257.307439 
" style="fill:none;stroke:#d62728;stroke-linecap:square;stroke-width:1.5;"/>
   </g>
   <g id="patch_3">
    <path d="M 57.6 307.584 
L 57.6 41.472 
" style="fill:none;stroke:#000000;stroke-linecap:square;stroke-linejoin:miter;stroke-width:0.8;"/>
   </g>
   <g id="patch_4">
    <path d="M 414.72 307.584 
L 414.72 41.472 
" style="fill:none;stroke:#000000;stroke-linecap:square;stroke-linejoin:miter;stroke-width:0.8;"/>
   </g>
   <g id="patch_5">
    <path d="M 57.6 307.584 
L 414.72 307.584 
" style="fill:none;stroke:#000000;stroke-linecap:square;stroke-linejoin:miter;stroke-width:0.8;"/>
   </g>
   <g id="patch_6">
    <path d="M 57.6 41.472 
L 414.72 41.472 
" style="fill:none;stroke:#000000;stroke-linecap:square;stroke-linejoin:miter;stroke-width:0.8;"/>
   </g>
   <g id="legend_1">
    <g id="patch_7">
     <path d="M 64.6 109.297 
L 252.723438 109.297 
Q 254.723438 109.297 254.723438 107.297 
L 254.723438 48.472 
Q 254.723438 46.472 252.723438 46.472 
L 64.6 46.472 
Q 62.6 46.472 62.6 48.472 
L 62.6 107.297 
Q 62.6 109.297 64.6 109.297 
z
" style="fill:#ffffff;opacity:0.8;stroke:#cccccc;stroke-linejoin:miter;"/>
    </g>
    <g id="line2d_64">
     <path d="M 66.6 54.570437 
L 86.6 54.570437 
" style="fill:none;stroke:#1f77b4;stroke-linecap:square;stroke-width:1.5;"/>
    </g>
    <g id="line2d_65"/>
    <g id="text_11">
     <!-- se_code.peilonrayz.display -->
     <defs>
      <path d="M 50.984375 -16.609375 
L 50.984375 -23.578125 
L -0.984375 -23.578125 
L -0.984375 -16.609375 
z
" id="DejaVuSans-95"/>
      <path d="M 48.78125 52.59375 
L 48.78125 44.1875 
Q 44.96875 46.296875 41.140625 47.34375 
Q 37.3125 48.390625 33.40625 48.390625 
Q 24.65625 48.390625 19.8125 42.84375 
Q 14.984375 37.3125 14.984375 27.296875 
Q 14.984375 17.28125 19.8125 11.734375 
Q 24.65625 6.203125 33.40625 6.203125 
Q 37.3125 6.203125 41.140625 7.25 
Q 44.96875 8.296875 48.78125 10.40625 
L 48.78125 2.09375 
Q 45.015625 0.34375 40.984375 -0.53125 
Q 36.96875 -1.421875 32.421875 -1.421875 
Q 20.0625 -1.421875 12.78125 6.34375 
Q 5.515625 14.109375 5.515625 27.296875 
Q 5.515625 40.671875 12.859375 48.328125 
Q 20.21875 56 33.015625 56 
Q 37.15625 56 41.109375 55.140625 
Q 45.0625 54.296875 48.78125 52.59375 
z
" id="DejaVuSans-99"/>
      <path d="M 45.40625 46.390625 
L 45.40625 75.984375 
L 54.390625 75.984375 
L 54.390625 0 
L 45.40625 0 
L 45.40625 8.203125 
Q 42.578125 3.328125 38.25 0.953125 
Q 33.9375 -1.421875 27.875 -1.421875 
Q 17.96875 -1.421875 11.734375 6.484375 
Q 5.515625 14.40625 5.515625 27.296875 
Q 5.515625 40.1875 11.734375 48.09375 
Q 17.96875 56 27.875 56 
Q 33.9375 56 38.25 53.625 
Q 42.578125 51.265625 45.40625 46.390625 
z
M 14.796875 27.296875 
Q 14.796875 17.390625 18.875 11.75 
Q 22.953125 6.109375 30.078125 6.109375 
Q 37.203125 6.109375 41.296875 11.75 
Q 45.40625 17.390625 45.40625 27.296875 
Q 45.40625 37.203125 41.296875 42.84375 
Q 37.203125 48.484375 30.078125 48.484375 
Q 22.953125 48.484375 18.875 42.84375 
Q 14.796875 37.203125 14.796875 27.296875 
z
" id="DejaVuSans-100"/>
      <path d="M 10.6875 12.40625 
L 21 12.40625 
L 21 0 
L 10.6875 0 
z
" id="DejaVuSans-46"/>
      <path d="M 18.109375 8.203125 
L 18.109375 -20.796875 
L 9.078125 -20.796875 
L 9.078125 54.6875 
L 18.109375 54.6875 
L 18.109375 46.390625 
Q 20.953125 51.265625 25.265625 53.625 
Q 29.59375 56 35.59375 56 
Q 45.5625 56 51.78125 48.09375 
Q 58.015625 40.1875 58.015625 27.296875 
Q 58.015625 14.40625 51.78125 6.484375 
Q 45.5625 -1.421875 35.59375 -1.421875 
Q 29.59375 -1.421875 25.265625 0.953125 
Q 20.953125 3.328125 18.109375 8.203125 
z
M 48.6875 27.296875 
Q 48.6875 37.203125 44.609375 42.84375 
Q 40.53125 48.484375 33.40625 48.484375 
Q 26.265625 48.484375 22.1875 42.84375 
Q 18.109375 37.203125 18.109375 27.296875 
Q 18.109375 17.390625 22.1875 11.75 
Q 26.265625 6.109375 33.40625 6.109375 
Q 40.53125 6.109375 44.609375 11.75 
Q 48.6875 17.390625 48.6875 27.296875 
z
" id="DejaVuSans-112"/>
      <path d="M 32.171875 -5.078125 
Q 28.375 -14.84375 24.75 -17.8125 
Q 21.140625 -20.796875 15.09375 -20.796875 
L 7.90625 -20.796875 
L 7.90625 -13.28125 
L 13.1875 -13.28125 
Q 16.890625 -13.28125 18.9375 -11.515625 
Q 21 -9.765625 23.484375 -3.21875 
L 25.09375 0.875 
L 2.984375 54.6875 
L 12.5 54.6875 
L 29.59375 11.921875 
L 46.6875 54.6875 
L 56.203125 54.6875 
z
" id="DejaVuSans-121"/>
      <path d="M 5.515625 54.6875 
L 48.1875 54.6875 
L 48.1875 46.484375 
L 14.40625 7.171875 
L 48.1875 7.171875 
L 48.1875 0 
L 4.296875 0 
L 4.296875 8.203125 
L 38.09375 47.515625 
L 5.515625 47.515625 
z
" id="DejaVuSans-122"/>
     </defs>
     <g transform="translate(94.6 58.070437)scale(0.1 -0.1)">
      <use xlink:href="#DejaVuSans-115"/>
      <use x="52.099609" xlink:href="#DejaVuSans-101"/>
      <use x="113.623047" xlink:href="#DejaVuSans-95"/>
      <use x="163.623047" xlink:href="#DejaVuSans-99"/>
      <use x="218.603516" xlink:href="#DejaVuSans-111"/>
      <use x="279.785156" xlink:href="#DejaVuSans-100"/>
      <use x="343.261719" xlink:href="#DejaVuSans-101"/>
      <use x="404.785156" xlink:href="#DejaVuSans-46"/>
      <use x="436.572266" xlink:href="#DejaVuSans-112"/>
      <use x="500.048828" xlink:href="#DejaVuSans-101"/>
      <use x="561.572266" xlink:href="#DejaVuSans-105"/>
      <use x="589.355469" xlink:href="#DejaVuSans-108"/>
      <use x="617.138672" xlink:href="#DejaVuSans-111"/>
      <use x="678.320312" xlink:href="#DejaVuSans-110"/>
      <use x="741.699219" xlink:href="#DejaVuSans-114"/>
      <use x="782.8125" xlink:href="#DejaVuSans-97"/>
      <use x="844.091797" xlink:href="#DejaVuSans-121"/>
      <use x="903.271484" xlink:href="#DejaVuSans-122"/>
      <use x="955.761719" xlink:href="#DejaVuSans-46"/>
      <use x="987.548828" xlink:href="#DejaVuSans-100"/>
      <use x="1051.025391" xlink:href="#DejaVuSans-105"/>
      <use x="1078.808594" xlink:href="#DejaVuSans-115"/>
      <use x="1130.908203" xlink:href="#DejaVuSans-112"/>
      <use x="1194.384766" xlink:href="#DejaVuSans-108"/>
      <use x="1222.167969" xlink:href="#DejaVuSans-97"/>
      <use x="1283.447266" xlink:href="#DejaVuSans-121"/>
     </g>
    </g>
    <g id="line2d_66">
     <path d="M 66.6 69.526687 
L 86.6 69.526687 
" style="fill:none;stroke:#ff7f0e;stroke-linecap:square;stroke-width:1.5;"/>
    </g>
    <g id="line2d_67"/>
    <g id="text_12">
     <!-- se_code.ajneufeld.display -->
     <defs>
      <path d="M 9.421875 54.6875 
L 18.40625 54.6875 
L 18.40625 -0.984375 
Q 18.40625 -11.421875 14.421875 -16.109375 
Q 10.453125 -20.796875 1.609375 -20.796875 
L -1.8125 -20.796875 
L -1.8125 -13.1875 
L 0.59375 -13.1875 
Q 5.71875 -13.1875 7.5625 -10.8125 
Q 9.421875 -8.453125 9.421875 -0.984375 
z
M 9.421875 75.984375 
L 18.40625 75.984375 
L 18.40625 64.59375 
L 9.421875 64.59375 
z
" id="DejaVuSans-106"/>
     </defs>
     <g transform="translate(94.6 73.026687)scale(0.1 -0.1)">
      <use xlink:href="#DejaVuSans-115"/>
      <use x="52.099609" xlink:href="#DejaVuSans-101"/>
      <use x="113.623047" xlink:href="#DejaVuSans-95"/>
      <use x="163.623047" xlink:href="#DejaVuSans-99"/>
      <use x="218.603516" xlink:href="#DejaVuSans-111"/>
      <use x="279.785156" xlink:href="#DejaVuSans-100"/>
      <use x="343.261719" xlink:href="#DejaVuSans-101"/>
      <use x="404.785156" xlink:href="#DejaVuSans-46"/>
      <use x="436.572266" xlink:href="#DejaVuSans-97"/>
      <use x="497.851562" xlink:href="#DejaVuSans-106"/>
      <use x="525.634766" xlink:href="#DejaVuSans-110"/>
      <use x="589.013672" xlink:href="#DejaVuSans-101"/>
      <use x="650.537109" xlink:href="#DejaVuSans-117"/>
      <use x="713.916016" xlink:href="#DejaVuSans-102"/>
      <use x="749.121094" xlink:href="#DejaVuSans-101"/>
      <use x="810.644531" xlink:href="#DejaVuSans-108"/>
      <use x="838.427734" xlink:href="#DejaVuSans-100"/>
      <use x="901.904297" xlink:href="#DejaVuSans-46"/>
      <use x="933.691406" xlink:href="#DejaVuSans-100"/>
      <use x="997.167969" xlink:href="#DejaVuSans-105"/>
      <use x="1024.951172" xlink:href="#DejaVuSans-115"/>
      <use x="1077.050781" xlink:href="#DejaVuSans-112"/>
      <use x="1140.527344" xlink:href="#DejaVuSans-108"/>
      <use x="1168.310547" xlink:href="#DejaVuSans-97"/>
      <use x="1229.589844" xlink:href="#DejaVuSans-121"/>
     </g>
    </g>
    <g id="line2d_68">
     <path d="M 66.6 84.482937 
L 86.6 84.482937 
" style="fill:none;stroke:#2ca02c;stroke-linecap:square;stroke-width:1.5;"/>
    </g>
    <g id="line2d_69"/>
    <g id="text_13">
     <!-- se_code.maarten_fabre.display -->
     <defs>
      <path d="M 18.3125 70.21875 
L 18.3125 54.6875 
L 36.8125 54.6875 
L 36.8125 47.703125 
L 18.3125 47.703125 
L 18.3125 18.015625 
Q 18.3125 11.328125 20.140625 9.421875 
Q 21.96875 7.515625 27.59375 7.515625 
L 36.8125 7.515625 
L 36.8125 0 
L 27.59375 0 
Q 17.1875 0 13.234375 3.875 
Q 9.28125 7.765625 9.28125 18.015625 
L 9.28125 47.703125 
L 2.6875 47.703125 
L 2.6875 54.6875 
L 9.28125 54.6875 
L 9.28125 70.21875 
z
" id="DejaVuSans-116"/>
      <path d="M 48.6875 27.296875 
Q 48.6875 37.203125 44.609375 42.84375 
Q 40.53125 48.484375 33.40625 48.484375 
Q 26.265625 48.484375 22.1875 42.84375 
Q 18.109375 37.203125 18.109375 27.296875 
Q 18.109375 17.390625 22.1875 11.75 
Q 26.265625 6.109375 33.40625 6.109375 
Q 40.53125 6.109375 44.609375 11.75 
Q 48.6875 17.390625 48.6875 27.296875 
z
M 18.109375 46.390625 
Q 20.953125 51.265625 25.265625 53.625 
Q 29.59375 56 35.59375 56 
Q 45.5625 56 51.78125 48.09375 
Q 58.015625 40.1875 58.015625 27.296875 
Q 58.015625 14.40625 51.78125 6.484375 
Q 45.5625 -1.421875 35.59375 -1.421875 
Q 29.59375 -1.421875 25.265625 0.953125 
Q 20.953125 3.328125 18.109375 8.203125 
L 18.109375 0 
L 9.078125 0 
L 9.078125 75.984375 
L 18.109375 75.984375 
z
" id="DejaVuSans-98"/>
     </defs>
     <g transform="translate(94.6 87.982937)scale(0.1 -0.1)">
      <use xlink:href="#DejaVuSans-115"/>
      <use x="52.099609" xlink:href="#DejaVuSans-101"/>
      <use x="113.623047" xlink:href="#DejaVuSans-95"/>
      <use x="163.623047" xlink:href="#DejaVuSans-99"/>
      <use x="218.603516" xlink:href="#DejaVuSans-111"/>
      <use x="279.785156" xlink:href="#DejaVuSans-100"/>
      <use x="343.261719" xlink:href="#DejaVuSans-101"/>
      <use x="404.785156" xlink:href="#DejaVuSans-46"/>
      <use x="436.572266" xlink:href="#DejaVuSans-109"/>
      <use x="533.984375" xlink:href="#DejaVuSans-97"/>
      <use x="595.263672" xlink:href="#DejaVuSans-97"/>
      <use x="656.542969" xlink:href="#DejaVuSans-114"/>
      <use x="697.65625" xlink:href="#DejaVuSans-116"/>
      <use x="736.865234" xlink:href="#DejaVuSans-101"/>
      <use x="798.388672" xlink:href="#DejaVuSans-110"/>
      <use x="861.767578" xlink:href="#DejaVuSans-95"/>
      <use x="911.767578" xlink:href="#DejaVuSans-102"/>
      <use x="946.972656" xlink:href="#DejaVuSans-97"/>
      <use x="1008.251953" xlink:href="#DejaVuSans-98"/>
      <use x="1071.728516" xlink:href="#DejaVuSans-114"/>
      <use x="1112.810547" xlink:href="#DejaVuSans-101"/>
      <use x="1174.333984" xlink:href="#DejaVuSans-46"/>
      <use x="1206.121094" xlink:href="#DejaVuSans-100"/>
      <use x="1269.597656" xlink:href="#DejaVuSans-105"/>
      <use x="1297.380859" xlink:href="#DejaVuSans-115"/>
      <use x="1349.480469" xlink:href="#DejaVuSans-112"/>
      <use x="1412.957031" xlink:href="#DejaVuSans-108"/>
      <use x="1440.740234" xlink:href="#DejaVuSans-97"/>
      <use x="1502.019531" xlink:href="#DejaVuSans-121"/>
     </g>
    </g>
    <g id="line2d_70">
     <path d="M 66.6 99.439187 
L 86.6 99.439187 
" style="fill:none;stroke:#d62728;stroke-linecap:square;stroke-width:1.5;"/>
    </g>
    <g id="line2d_71"/>
    <g id="text_14">
     <!-- se_code.andy.display -->
     <g transform="translate(94.6 102.939187)scale(0.1 -0.1)">
      <use xlink:href="#DejaVuSans-115"/>
      <use x="52.099609" xlink:href="#DejaVuSans-101"/>
      <use x="113.623047" xlink:href="#DejaVuSans-95"/>
      <use x="163.623047" xlink:href="#DejaVuSans-99"/>
      <use x="218.603516" xlink:href="#DejaVuSans-111"/>
      <use x="279.785156" xlink:href="#DejaVuSans-100"/>
      <use x="343.261719" xlink:href="#DejaVuSans-101"/>
      <use x="404.785156" xlink:href="#DejaVuSans-46"/>
      <use x="436.572266" xlink:href="#DejaVuSans-97"/>
      <use x="497.851562" xlink:href="#DejaVuSans-110"/>
      <use x="561.230469" xlink:href="#DejaVuSans-100"/>
      <use x="624.707031" xlink:href="#DejaVuSans-121"/>
      <use x="683.667969" xlink:href="#DejaVuSans-46"/>
      <use x="715.455078" xlink:href="#DejaVuSans-100"/>
      <use x="778.931641" xlink:href="#DejaVuSans-105"/>
      <use x="806.714844" xlink:href="#DejaVuSans-115"/>
      <use x="858.814453" xlink:href="#DejaVuSans-112"/>
      <use x="922.291016" xlink:href="#DejaVuSans-108"/>
      <use x="950.074219" xlink:href="#DejaVuSans-97"/>
      <use x="1011.353516" xlink:href="#DejaVuSans-121"/>
     </g>
    </g>
   </g>
  </g>
 </g>
 <defs>
  <clipPath id="p165369f411">
   <rect height="266.112" width="357.12" x="57.6" y="41.472"/>
  </clipPath>
 </defs>
</svg>
